<?xml version="1.0" encoding="utf-8"?>
<!-- Generator: Adobe Illustrator 24.2.3, SVG Export Plug-In . SVG Version: 6.00 Build 0)  -->
<svg version="1.1" id="Layer_1" xmlns="http://www.w3.org/2000/svg" xmlns:xlink="http://www.w3.org/1999/xlink" x="0px" y="0px"
	 viewBox="0 0 363 293.9" style="enable-background:new 0 0 363 293.9;" xml:space="preserve">
<style type="text/css">
	.st0{fill-rule:evenodd;clip-rule:evenodd;fill:#E61562;}
	.st1{clip-path:url(#SVGID_4_);fill:#E61562;}
	.st2{clip-path:url(#SVGID_8_);fill:#E61562;}
	.st3{fill-rule:evenodd;clip-rule:evenodd;fill:#F8AF07;}
	.st4{clip-path:url(#SVGID_10_);fill:#F8AF07;}
	.st5{clip-path:url(#SVGID_12_);fill:#F8AF07;}
	.st6{fill:#14B5EB;}
</style>
<g>
	<g>
		<path id="SVGID_1_" class="st0" d="M41.2,101c6.9-4,11.9-6.4,20.7-10.1c12.7-5.6,5.3-21.6-6.8-17.4c-8.7,3.4-21,8.9-29.6,14.3
			C6,65.6,17,41.4,35.5,29.9c19.9-11.6,47.9-21,80.8-26c13.3-2,18.3,15.3,1.9,17.7c-20.7,3.1-41.7,10-53.8,15.1
			C53.1,41,58.3,56,71.6,51.3c14.1-4.9,29.4-8.5,47.1-11.4l0.1,0.1c5.7-0.8,11.2,2.3,12.2,7s-2.9,9.1-8.6,9.9
			c-8.2,1.1-16.1,2.5-23.7,4.1c-6,1.2-9.6,6.1-8.1,11c1.4,5,7.4,7.9,13.4,6.7c4.4-0.9,8.8-1.7,13.4-2.5c0.3-0.1,0.7-0.1,1-0.2
			c6-0.8,11.7,2.4,12.7,7.3c1,4.8-2.9,9.5-8.9,10.3l0,0c-24.2,3.5-46.1,9-64.2,16.1C51.7,107,46,104.1,41.2,101"/>
	</g>
	<g>
		<defs>
			<path id="SVGID_2_" d="M41.2,101c6.9-4,11.9-6.4,20.7-10.1c12.7-5.6,5.3-21.6-6.8-17.4c-8.7,3.4-21,8.9-29.6,14.3
				C6,65.6,17,41.4,35.5,29.9c19.9-11.6,47.9-21,80.8-26c13.3-2,18.3,15.3,1.9,17.7c-20.7,3.1-41.7,10-53.8,15.1
				C53.1,41,58.3,56,71.6,51.3c14.1-4.9,29.4-8.5,47.1-11.4l0.1,0.1c5.7-0.8,11.2,2.3,12.2,7s-2.9,9.1-8.6,9.9
				c-8.2,1.1-16.1,2.5-23.7,4.1c-6,1.2-9.6,6.1-8.1,11c1.4,5,7.4,7.9,13.4,6.7c4.4-0.9,8.8-1.7,13.4-2.5c0.3-0.1,0.7-0.1,1-0.2
				c6-0.8,11.7,2.4,12.7,7.3c1,4.8-2.9,9.5-8.9,10.3l0,0c-24.2,3.5-46.1,9-64.2,16.1C51.7,107,46,104.1,41.2,101"/>
		</defs>
		<clipPath id="SVGID_4_">
			<use xlink:href="#SVGID_2_"  style="overflow:visible;"/>
		</clipPath>
		<rect x="6" y="1.9" class="st1" width="128.5" height="108"/>
	</g>
</g>
<g>
	<g>
		<path id="SVGID_3_" class="st0" d="M147.1,0.1c-5,0.8-8.3,5.4-7.4,10.2c0.9,4.8,5.6,8,10.5,7.2c5-0.8,8.3-5.4,7.4-10.2
			S152-0.7,147.1,0.1"/>
	</g>
	<g>
		<defs>
			<path id="SVGID_6_" d="M147.1,0.1c-5,0.8-8.3,5.4-7.4,10.2c0.9,4.8,5.6,8,10.5,7.2c5-0.8,8.3-5.4,7.4-10.2S152-0.7,147.1,0.1"/>
		</defs>
		<clipPath id="SVGID_8_">
			<use xlink:href="#SVGID_6_"  style="overflow:visible;"/>
		</clipPath>
		<rect x="138.8" y="-0.7" class="st2" width="19.6" height="19.1"/>
	</g>
</g>
<g>
	<g>
		<path id="SVGID_5_" class="st3" d="M209.4,72.8c5,0.8,8.3,5.4,7.4,10.2c-0.9,4.8-5.6,8-10.5,7.2c-5-0.8-8.3-5.4-7.4-10.2
			C199.8,75.2,204.5,72,209.4,72.8"/>
	</g>
	<g>
		<defs>
			<path id="SVGID_9_" d="M209.4,72.8c5,0.8,8.3,5.4,7.4,10.2c-0.9,4.8-5.6,8-10.5,7.2c-5-0.8-8.3-5.4-7.4-10.2
				C199.8,75.2,204.5,72,209.4,72.8"/>
		</defs>
		<clipPath id="SVGID_10_">
			<use xlink:href="#SVGID_9_"  style="overflow:visible;"/>
		</clipPath>
		<rect x="198.1" y="72" class="st4" width="19.6" height="19.1"/>
	</g>
</g>
<g>
	<g>
		<path id="SVGID_7_" class="st3" d="M321.8,101c-6.9-4-11.9-6.4-20.7-10.1c-12.7-5.6-5.3-21.6,6.8-17.4c8.7,3.4,21,8.9,29.6,14.3
			c19.5-22.3,8.6-46.5-9.9-58c-19.9-11.6-47.9-21-80.8-26c-13.3-2-18.3,15.3-1.9,17.7c20.7,3.1,41.7,10,53.8,15.1
			c11.3,4.3,6.1,19.3-7.2,14.6c-14.1-4.9-29.4-8.5-47.1-11.4l-0.1,0.1c-5.7-0.8-11.2,2.3-12.2,7s2.9,9.1,8.6,9.9
			c8.2,1.1,16.1,2.5,23.7,4.1c6,1.2,9.6,6.1,8.1,11s-7.5,7.8-13.5,6.6c-4.4-0.9-8.8-1.7-13.4-2.5c-0.3-0.1-0.7-0.1-1-0.2
			c-6-0.8-11.7,2.4-12.7,7.3c-1,4.8,2.9,9.5,8.9,10.3l0,0c24.2,3.5,46.1,9,64.2,16.1C311.3,107,317,104.1,321.8,101"/>
	</g>
	<g>
		<defs>
			<path id="SVGID_11_" d="M321.8,101c-6.9-4-11.9-6.4-20.7-10.1c-12.7-5.6-5.3-21.6,6.8-17.4c8.7,3.4,21,8.9,29.6,14.3
				c19.5-22.3,8.6-46.5-9.9-58c-19.9-11.6-47.9-21-80.8-26c-13.3-2-18.3,15.3-1.9,17.7c20.7,3.1,41.7,10,53.8,15.1
				c11.3,4.3,6.1,19.3-7.2,14.6c-14.1-4.9-29.4-8.5-47.1-11.4l-0.1,0.1c-5.7-0.8-11.2,2.3-12.2,7s2.9,9.1,8.6,9.9
				c8.2,1.1,16.1,2.5,23.7,4.1c6,1.2,9.6,6.1,8.1,11s-7.5,7.8-13.5,6.6c-4.4-0.9-8.8-1.7-13.4-2.5c-0.3-0.1-0.7-0.1-1-0.2
				c-6-0.8-11.7,2.4-12.7,7.3c-1,4.8,2.9,9.5,8.9,10.3l0,0c24.2,3.5,46.1,9,64.2,16.1C311.3,107,317,104.1,321.8,101"/>
		</defs>
		<clipPath id="SVGID_12_">
			<use xlink:href="#SVGID_11_"  style="overflow:visible;"/>
		</clipPath>
		<rect x="228.5" y="1.9" class="st5" width="128.5" height="108"/>
	</g>
</g>
<path class="st6" d="M339.4,105.3L245.9,162c-41.3,25.1-57.9,55.1-64.4,91.6c-6.5-36.5-23.1-66.6-64.4-91.6l-93.5-56.8
	C12.9,98.8,1,85.8,0,70.6v63.7c7.7,26.1,26.5,56.6,68.5,84.5l113,75.1l113-75.1c41.9-27.9,60.8-58.4,68.5-84.5V70.6
	C362,85.8,350.1,98.8,339.4,105.3z"/>
</svg>
