<?xml version="1.0" encoding="utf-8"?>
<!-- Generator: Adobe Illustrator 24.2.3, SVG Export Plug-In . SVG Version: 6.00 Build 0)  -->
<svg version="1.1" xmlns="http://www.w3.org/2000/svg" xmlns:xlink="http://www.w3.org/1999/xlink" x="0px" y="0px"
	 viewBox="0 0 1200 1200" style="enable-background:new 0 0 1200 1200;" xml:space="preserve">
<style type="text/css">
	.st0{fill:#FFFFFF;}
	.st1{fill:#444444;}
	.st2{fill:#E3E3E3;}
	.st3{fill:#E5E5E5;}
	.st4{fill:#E8F3F9;}
	.st5{fill-rule:evenodd;clip-rule:evenodd;fill:#E61562;}
	.st6{clip-path:url(#SVGID_4_);fill:#E61562;}
	.st7{clip-path:url(#SVGID_8_);fill:#E61562;}
	.st8{fill-rule:evenodd;clip-rule:evenodd;fill:#F8AF07;}
	.st9{clip-path:url(#SVGID_10_);fill:#F8AF07;}
	.st10{clip-path:url(#SVGID_12_);fill:#F8AF07;}
	.st11{fill:#14B5EB;}
</style>
<g id="Ñëîé_1_1_">
</g>
<g id="Ñëîé_2">
	<g>
		<path class="st0" d="M219.3,968.6c0.7,0.3,148.5-176.5,149.3-177.2c21.8-18.9,44.8-35.9,67.8-53.3c15.3-11.6,27.4-26.8,35.3-44.4
			c8.6-19.2,17.2-39.6,23.2-59.8c1.9-6.3,6.3-16.4,5.6-23c-0.7-6.4-8.6-13.8-13.1-18c-6.5-6-13.9-10.9-21.5-15.4
			c-8.1-4.8-9.8-5.5-10.6-15c-2-22.8,0.2-46.7,0.3-69.5c0.1-22.9,2.7-62.4,3.1-102.4l28.5-58.2c9.5-19.4,9.5-39.8-5.4-55.4
			c-10.7-11.2-27.2-6.4-34.9-2.3c-28.4,14.8-46,40.6-64,66.5c-13.5,19.4-26.9,38.8-40.4,58.2c-10.9,15.7-23.8,30.4-30.9,48.4
			c-7.8,19.9-10.4,41.6-13.1,62.7c-4,30.8-6.4,61.7-9.2,92.7c-1.4,16-3.2,32-4.9,47.9c-1.2,11.4-1.9,23.2-6.4,33.9
			c-6,14-16.3,25.6-26,37.1c-3.3,3.9-142.1,145.6-142.1,145.6L219.3,968.6z"/>
		<g>
			<path class="st1" d="M219.1,970.3c2.4-0.4,4-3,5.5-4.7c3.5-4,6.9-8,10.3-12.1c11.6-13.7,23.2-27.5,34.8-41.2
				c27-32.1,53.9-64.2,80.9-96.4c6.5-7.7,12.6-15.9,19.5-23.2c2.9-3.1,6.4-5.6,9.6-8.3c8.3-6.9,16.9-13.7,25.5-20.3
				c15.6-12.1,33-23,46.7-37.3c13.4-14,21.4-30.7,28.9-48.3c7.9-18.4,14.7-37.3,20.4-56.5c2-7,2.7-12.9-1.4-19.2
				c-4.4-6.6-11-12.3-17.2-17.1c-3.7-2.9-7.7-5.5-11.7-7.9c-3.1-1.9-6.9-3.6-9.6-6.1c-2.1-2-2.8-4.5-3.2-7.2
				c-0.8-5.6-0.9-11.5-1-17.1c-0.4-20,0.8-40,1.1-60c0.3-17.9,1.3-35.9,1.9-53.8c0.4-10.5,0.7-21,0.9-31.5c0.1-4.7-0.8-9.5,1.2-13.7
				c3.9-8,7.9-16,11.8-24c4.3-8.9,8.7-17.7,13-26.6c4.5-9.1,8.5-18.4,9.1-28.7c0.9-14.6-6-33.1-20.5-39c-13-5.3-27.1,0.9-38.1,7.9
				c-31.7,20.1-51.5,55-72.4,85c-12.1,17.4-24.1,34.9-36.6,52c-11.4,15.6-20.1,31.5-24.9,50.3c-5.2,20.5-7.3,42-9.6,63
				c-2.5,22-4.3,44-6.3,66.1c-1.9,21.7-4.2,43.3-6.5,65c-1.1,10.4-2.9,20.5-7.6,29.9c-4.5,8.9-10.7,16.7-17.1,24.4
				c-7.5,9-15.5,17.2-23.7,25.5c-13.8,14.2-27.6,28.3-41.4,42.4c-26.3,26.9-52.5,53.7-78.8,80.6c-1.6,1.6-3.2,3.2-4.7,4.8
				c-2.1,2.2,2.5,3,4,1.4c19.4-19.8,38.8-39.6,58.2-59.5c26.1-26.7,52.2-53.3,78.2-80.1c14-14.5,29-31.1,34.5-50.9
				c2.8-10,3.4-20.5,4.4-30.9c1.1-10.5,2.3-21.1,3.3-31.6c2.1-21.6,3.8-43.2,5.9-64.8c2-21.1,4.3-42.2,7.5-63.1
				c3.1-20.3,8.1-40,19.2-57.5c10.7-17,23.3-32.9,34.7-49.3c11.8-16.9,23.4-34,35.3-50.8c10.3-14.6,21.4-29.1,35.2-40.6
				c11.1-9.3,28.3-21.9,43.7-16.1c8.9,3.4,14.9,13.2,17.5,21.9c2.4,8.2,2,17-0.2,25.2c-2.1,7.8-6.1,15.1-9.7,22.3
				c-4.5,9.3-9.1,18.6-13.6,27.8c-3.1,6.3-7.2,12.7-9.5,19.3c-0.5,1.3-0.4,2.5-0.4,3.9c-0.1,5.5-0.2,11.1-0.3,16.6
				c-0.3,10.6-0.7,21.2-1.1,31.9c-0.7,16.6-1.5,33.2-1.7,49.8c-0.2,20.5-1.7,40.9-0.9,61.4c0.3,6-0.5,14.3,3.4,19.4
				c4,5.2,12,8.1,17.4,11.7c7.5,5.1,14.9,11.1,20.6,18.2c2.4,3,4.5,6.3,4.5,10.2c0,4.4-1.5,8.8-2.9,12.9
				c-6.4,19.1-12.8,38-20.9,56.5c-7.7,17.8-16.5,34.1-30.9,47.5c-7.4,6.9-15.8,12.7-23.9,18.8c-8.4,6.4-16.8,12.7-25.1,19.2
				c-8.3,6.5-16.5,13.1-24.5,20c-1.5,1.3-2.9,2.4-4.1,3.8c-2.4,2.7-4.6,5.5-6.9,8.2c-23.6,28.1-47.2,56.3-70.8,84.4
				c-22.1,26.4-44.1,52.8-66.6,78.9c-0.9,1.1-1.9,2.2-2.9,3.3c-1.6,1.8-1.4,0.8,0.9,0.4C216.9,967.3,215.8,970.9,219.1,970.3
				L219.1,970.3z"/>
		</g>
	</g>
	<g>
		<path class="st2" d="M461.8,190.6h219c20,0,36.1,16.5,36.1,36.9v446.4c0,20.4-16.2,36.9-36.1,36.9h-219c-20,0-36.1-16.5-36.1-36.9
			V227.5C425.7,207.1,441.8,190.6,461.8,190.6z"/>
		<path class="st3" d="M461.9,182.2h219.6c20,0,36.3,16.5,36.3,36.9v446.4c0,20.4-16.2,36.9-36.3,36.9H461.9
			c-20,0-36.3-16.5-36.3-36.9V219.1C425.7,198.7,441.9,182.2,461.9,182.2z"/>
		<g>
			<path class="st0" d="M472.6,182.2h219.6c20,0,36.3,16.5,36.3,36.9v446.4c0,20.4-16.2,36.9-36.3,36.9H472.6
				c-20,0-36.3-16.5-36.3-36.9V219.1C436.4,198.7,452.6,182.2,472.6,182.2z"/>
			<g>
				<path class="st1" d="M471.6,183.5c17.5,0,35,0,52.6,0c33.7,0,67.4,0,101.1,0c21.5,0,43.1-0.1,64.6,0
					c18.9,0.1,34.7,14.3,36.1,33.4c0.2,3.3,0.1,6.7,0.1,10c0,17.9,0,35.8,0,53.8c0,29.5,0,59,0,88.5c0,34.5,0,69.1,0,103.6
					c0,32.6,0,65.1,0,97.7c0,23.7,0,47.5,0,71.2c0,11.9,1.9,26.8-2.7,38.1c-5.1,12.4-16.7,20.9-30.2,21.2c-1.4,0-2.8,0-4.2,0
					c-9.3,0-18.6,0-27.9,0c-32.4,0-64.7,0-97.1,0c-27,0-54.1,0-81.1,0c-9,0-17.5,0.3-25.7-4.3c-12.4-6.9-18.4-19.9-18.4-33.7
					c0-14,0-28.1,0-42.1c0-27.4,0-54.9,0-82.3c0-33.8,0-67.7,0-101.5c0-33.7,0-67.4,0-101c0-26.5,0-53,0-79.5
					c0-12.5-0.1-24.9,0-37.4C439,200.6,452.3,183.9,471.6,183.5c1.7,0,5.1-2.7,1.9-2.6c-21.6,0.4-39.3,16.9-39.6,38.8
					c0,2.9,0,5.9,0,8.8c0,19.3,0,38.6,0,57.9c0,30.9,0,61.8,0,92.8c0,35.5,0,70.9,0,106.4c0,32.4,0,64.8,0,97.2
					c0,22.2,0,44.4,0,66.6c0,5,0,10,0,15.1c0,13.3,5.7,25.8,17.1,33.2c8.7,5.6,18,6,27.8,6c10.8,0,21.6,0,32.4,0
					c33.9,0,67.8,0,101.7,0c24.8,0,49.6,0,74.4,0c12.4,0,24.1-3.1,33-12.4c7.6-8,10.5-18.2,10.5-29c0-15.4,0-30.7,0-46.1
					c0-28.8,0-57.5,0-86.3c0-35.1,0-70.2,0-105.2c0-33.8,0-67.5,0-101.3c0-25.3,0-50.7,0-76c0-11.1,1.1-22.8-0.3-33.8
					c-2.5-19.2-19.1-32.4-38-32.6c-6.9-0.1-13.8,0-20.7,0c-31.5,0-63,0-94.5,0c-29.7,0-59.5,0-89.2,0c-4.9,0-9.8,0-14.6,0
					C471.8,180.9,468.4,183.5,471.6,183.5z"/>
			</g>
		</g>
		<rect x="452.5" y="243.9" class="st4" width="259.8" height="391.5"/>
		<g>
			<path class="st1" d="M451.5,636.5c29.2,0,58.4,0,87.6,0c46.6,0,93.2,0,139.8,0c10.8,0,21.5,0,32.3,0c0.9,0,3.4-0.5,3.4-1.7
				c0-13,0-26,0-39.1c0-31.1,0-62.2,0-93.3c0-37.6,0-75.2,0-112.8c0-32.7,0-65.4,0-98c0-10.8,0-21.5,0-32.3c0-3.3,0-6.7,0-10
				c0-1.4,0.5-4,0-5.3c-0.1-0.2,0-0.5,0-0.7c0-0.5-1.2-0.5-1.4-0.5c-29.2,0-58.4,0-87.6,0c-46.6,0-93.2,0-139.8,0
				c-10.8,0-21.5,0-32.3,0c-0.9,0-3.4,0.5-3.4,1.7c0,13,0,26,0,39.1c0,31.1,0,62.2,0,93.3c0,37.6,0,75.2,0,112.8c0,32.7,0,65.4,0,98
				c0,10.8,0,21.5,0,32.3c0,3.3,0,6.7,0,10c0,1.4-0.5,4,0,5.3c0.1,0.2,0,0.5,0,0.7c0,1,4.8,0.3,4.8-1.3c0-13,0-26,0-39.1
				c0-31.1,0-62.2,0-93.3c0-37.6,0-75.2,0-112.8c0-32.7,0-65.4,0-98c0-10.8,0-21.5,0-32.3c0-3.3,0-6.7,0-10c0-1.5,0.5-3.9,0-5.3
				c-0.1-0.2,0-0.5,0-0.7c-1.1,0.6-2.3,1.2-3.4,1.7c29.2,0,58.4,0,87.6,0c46.6,0,93.2,0,139.8,0c10.8,0,21.5,0,32.3,0
				c-0.5-0.2-0.9-0.3-1.4-0.5c0,13,0,26,0,39.1c0,31.1,0,62.2,0,93.3c0,37.6,0,75.2,0,112.8c0,32.7,0,65.4,0,98
				c0,10.8,0,21.5,0,32.3c0,3.3,0,6.7,0,10c0,1.5-0.5,3.9,0,5.3c0.1,0.2,0,0.5,0,0.7c1.1-0.6,2.3-1.2,3.4-1.7c-29.2,0-58.4,0-87.6,0
				c-46.6,0-93.2,0-139.8,0c-10.8,0-21.5,0-32.3,0C452.1,634.3,448.3,636.5,451.5,636.5z"/>
		</g>
		<g>
			<g>
				<path class="st3" d="M552.6,219.4c9,0,18.1,0,27.1,0c5.7,0,11.4,0,17.1,0c2.8,0,6.1,0.4,8.7-0.5c6-2.2,7.2-11.3,0.4-13.3
					c-2.7-0.8-6.2-0.3-8.9-0.3c-11.8,0-23.5,0-35.2,0c-3.3,0-7.3-0.6-10.6,0.3c-8,2.2-7.1,12.8,0.9,13.8c2.3,0.3,5-2.9,1.7-3.4
					c-4.1-0.6-4.7-6.3-0.8-7.4c0.8-0.2,2,0,2.8,0c3.8,0,7.6,0,11.4,0c9.5,0,19.1,0,28.6,0c1.8,0,5.2-0.7,7,0
					c3.4,1.3,4.1,5.6,0.5,7.4c-0.5,0.2-1.7,0-2.3,0c-8.6,0-17.2,0-25.7,0c-7.4,0-14.8,0-22.2,0C550.4,216,549.3,219.4,552.6,219.4z"
					/>
			</g>
			<g>
				<path class="st1" d="M556.4,219c9,0,18.1,0,27.1,0c5.7,0,11.4,0,17.1,0c2.8,0,6,0.4,8.7-0.4c5.9-1.6,8.7-10.4,1.6-12.7
					c-2.6-0.8-6-0.4-8.7-0.4c-11.8,0-23.5,0-35.2,0c-3.4,0-7.2-0.5-10.6,0.2c-7.5,1.6-9.1,11.9-0.5,13.1c1.4,0.2,5.7-2.2,3-2.5
					c-3.1-0.4-6.6-6.3-2.3-8.2c0.6-0.3,2,0,2.7,0c3.7,0,7.5,0,11.2,0c9.7,0,19.4,0,29.1,0c2.2,0,4.8-0.4,7,0c3,0.6,5.9,6.3,2.1,8.2
					c-0.5,0.2-1.4-0.1-1.9,0c-8.3,0.9-17.3,0-25.7,0c-7.6,0-15.1,0-22.7,0C556.6,216.4,553.2,219,556.4,219z"/>
			</g>
			<g>
				<path class="st3" d="M523.2,218.9c3.8,0,8.5-1.7,9.1-6c0.5-4-2.2-6.9-6.1-7.1c-3.6-0.2-8.3,1.5-9.2,5.4c-0.9,4,1.7,7.5,5.8,7.7
					c1.1,0.1,2.6-0.1,3.4-0.9c0.6-0.6,0.7-1.4-0.4-1.4c-2.5-0.1-4-2.1-4.1-4.5c-0.1-1.5,0.4-3.9,2.3-3.9c4,0.1,5.2,8.4,1.3,8.4
					c-0.9,0-2.7,0.3-3.2,1.2C521.5,218.7,522.4,218.9,523.2,218.9z"/>
			</g>
			<g>
				<path class="st1" d="M527,218.6c3.6,0,8.5-1.2,9.5-5.3c1-3.9-1.7-7.3-5.7-7.4c-3.6-0.1-8.6,1.3-9.5,5.3
					C520.4,215.3,523.1,218.4,527,218.6c1,0.1,2.6-0.3,3.4-0.9c0.7-0.5,0.8-0.9-0.3-1c-2.5-0.1-4.1-2.4-4.2-4.8
					c0-0.9,0.1-1.8,0.5-2.6c0.3-0.6,0.7-1.1,1.2-1.5c-0.5,0.4-0.4-0.1,0.1,0.1c2.4,0.8,4.1,1.9,4.2,4.7c0,0.9-0.1,1.9-0.5,2.7
					c-0.3,0.6-0.7,1.1-1.2,1.5c0.3-0.2,0.6-0.1-0.1-0.1c-1.1,0-2.6,0.2-3.4,0.9C526.1,218.1,526,218.6,527,218.6z"/>
			</g>
		</g>
		<g>
			<g>
				<path class="st3" d="M574.6,692.1c9.1,0,18-1.6,24.2-9c7.2-8.5,6.9-21.4-0.8-29.5c-13.7-14.5-44-6.5-45.9,14.3
					C550.9,681.3,561.7,691.7,574.6,692.1c1.1,0,5.5-2,3.1-2.1c-11.5-0.4-20.9-9.7-20.9-21.3c0-12.2,9.7-20.5,21.5-20
					c11.5,0.4,20.9,9.6,20.9,21.3c0,5.6-2.2,10.9-6.1,14.9c-4.3,4.4-9.6,5.2-15.4,5.2C576.6,690,572.2,692.1,574.6,692.1z"/>
			</g>
			<g>
				<path class="st1" d="M580.3,692.7c9.8,0,18.9-2.6,24.5-11.3c6-9.3,4.4-21.9-3.8-29.3c-15.1-13.7-44.5-4.3-44.6,17.5
					c-0.1,13,10.7,22.8,23.3,23.2c2.2,0.1,5-3.2,1.7-3.3c-12.1-0.4-21.5-10.8-20-23c1.5-11.9,11.7-17.7,22.9-17.1
					c11.7,0.6,20.6,11.3,19.1,23c-0.8,6.2-4.4,11.9-9.9,14.9c-4,2.2-8.3,2.2-12.7,2.2C578.1,689.4,577,692.7,580.3,692.7z"/>
			</g>
		</g>
	</g>
	<g>
		<path class="st0" d="M393.1,551.1V412.2c0-21,15.5-38,34.5-38h0.3c19.1,0,34.5,17,34.5,38c0,19.2,0,38.5,0,57.7
			c0,51.4-0.7,102.9-3.5,154.1c-1,17.7-3.5,26-10.5,42.2c-9.5,21.8-22.8,40.3-38.6,59L393.1,551.1z"/>
		<g>
			<path class="st1" d="M395.5,524c0-37.4-0.5-74.8,0-112.2c0.2-17.5,12.1-37.1,31.5-36.7c21.1,0.5,32.9,20.5,33,39.6
				c0.2,54.1,0.3,108.3-1.5,162.5c-0.5,15.1-1.1,30.3-1.9,45.4c-0.7,12.1-2.4,23.5-6.8,34.8c-9.8,25.3-24.9,47.3-42.2,68
				c-1,1.2,3.6,0.6,4.4-0.4c16-19.1,30.4-39.4,40.2-62.5c4-9.4,7.1-19,8.3-29.2c1.6-13.4,1.7-27.1,2.3-40.5
				c2.3-57.7,2.1-115.5,2.1-173.3c0-10.8-0.4-20.8-6.5-30.2c-4.8-7.3-12.1-13-20.7-15.1c-16.2-4.1-33.7,4-41.8,18.5
				c-4.9,8.8-5.2,18.2-5.2,27.9c0,11.7,0,23.5,0,35.2c0,23.2,0,46.4,0,69.6C390.7,526.1,395.5,525.4,395.5,524L395.5,524z"/>
		</g>
		<g>
			<path class="st1" d="M374.9,560.1c9.2-5.8,16.2-16.6,20.5-26.4c1.1-2.5-3.8-2.3-4.6-0.5c-4.1,9.2-10.4,19.3-19.1,24.8
				C369,559.8,373,561.3,374.9,560.1L374.9,560.1z"/>
		</g>
		<g>
			<path class="st1" d="M429.8,443.3c-12.4,0-22.9-8.2-23.7-21.1c-0.4-7-1.1-15.9,1.3-22.5c4.7-12.7,20-17.4,31.5-10.6
				c9.8,5.9,10.8,15.9,10.8,26.2c0,4.6,0.3,9.3-1.1,13.7C445.7,437.2,438.5,443.1,429.8,443.3c-1.8,0.1-5.1,2.8-1.9,2.7
				c14.2-0.4,26.2-10.5,26.5-25.2c0.2-10.9,1.2-22.6-7.4-30.7c-9.4-8.9-25.5-8.9-35.7-1.5c-10.8,7.9-10.2,19.7-10.1,31.6
				c0.1,15.7,11.3,25.8,26.7,25.8C429.7,446.1,433,443.3,429.8,443.3z"/>
		</g>
	</g>
	<g>
		<g>
			<path class="st0" d="M860.9,905.6c4.1,3.5,8.3,6.8,12.3,10.3c11.8,10.2,17.5,25.1,28,36.4c6.7,7.2,12.6,15,17.9,23.2l35.8,45.9
				c0,0,132.1-97.1,132.8-97.6c-11.2-17.7-16.8-22.4-28-40c-4.5-7.1-9.1-12.9-10.4-21.2c-1.8-10.7-1.8-21.8-3.7-32.6
				c-2.7-15.8-6.6-31.5-11.8-46.7c-4.9-14.4-14.3-26.4-22.4-39.2c-3.7-5.8-3.8-6.7-10-6.4c-4.9,0.2-9.9,1.2-14.7,2
				c-10.2,1.7-20.2,4-29.9,7c-3.5,1.1-6.9,2.2-10.3,3.4c-24.7,8.8-48.4,21.5-68.9,37.9c-18.2,14.6-39.6,35.9-43.3,60.1
				c-1.8,11.7,1.9,24.5,7.2,34.9C846,892.1,853.2,899.1,860.9,905.6z"/>
			<g>
				<path class="st1" d="M1089.4,923.1c-7.8-12.2-16.3-24-24.2-36.2c-4.3-6.6-9.5-13.3-12.1-20.8c-2.8-8.4-2.7-18-3.5-26.8
					c-1.8-18.2-6.2-36.2-11.9-53.5c-5.2-16.1-14.9-29.3-24-43.3c-1.1-1.7-5.7,0-4.4,2.1c4.7,7.4,9.9,14.5,14.3,22
					c4.6,7.7,7.8,15.7,10.4,24.2c5.4,17.5,9.5,35.5,11.1,53.7c0.7,8.6,0.8,17.9,4.3,25.8c2.9,6.6,7.4,12.6,11.3,18.6
					c7.9,12.2,16.4,24,24.2,36.2C1086,926.9,1090.7,925.1,1089.4,923.1L1089.4,923.1z"/>
			</g>
			<g>
				<path class="st1" d="M916.1,976.5c12.4,14.9,25.5,29.9,36.1,46.2c0.9,1.4,5.6-0.2,4.5-1.9c-10.6-16.3-23.7-31.2-36.1-46.2
					C919.4,973.2,914.8,975,916.1,976.5L916.1,976.5z"/>
			</g>
		</g>
		<g>
			<path class="st0" d="M981.8,880.9c-2.6-3.3-5.2-6.6-7.8-10c-4.3-5.6-8.6-11.2-12.8-16.9c-12.8-17.2-28.1-28.2-49.7-32.1
				c-23-4.1-46.3,1.6-69,5.1c-10.3,1.6-22.6,2.2-33.2,5.3l-72.7-76.6c-12.8-13.4-34-14-47.4-1.2l-0.2,0.2
				c-13.4,12.7-14,33.9-1.2,47.4l85.9,90.5c3.2,4.2,7.5,7.3,11.2,10.8c3.2,3,6.4,5.8,9.7,8.6c3.4,3,7,5.9,10.6,8.8
				c9.6,7.6,23.2,10.9,34.5,15.4c14.5,5.6,28.7,10.6,43.6,14.2c13.2,3.2,25.2,15.3,34.5,24.5L981.8,880.9z"/>
			<g>
				<path class="st1" d="M811.5,831.4c-17.6-18.6-35.3-37.2-52.9-55.8c-6.6-6.9-13-14-19.7-20.8c-15.2-15.5-41-14.1-54.8,2.6
					c-11.8,14.3-9.6,34,2.7,47c7.7,8.1,15.4,16.2,23.1,24.3c19.8,20.9,39.6,41.8,59.5,62.6c4.1,4.3,8.2,8.4,12.7,12.5
					c10.5,9.5,20.9,19.9,34.1,25.6c13.6,5.9,28,10.7,42,15.5c7.8,2.6,15.8,4.8,23.8,6.9c7.3,2,13.7,6.1,19.5,10.9
					c5.2,4.3,10,9,14.8,13.8c1.3,1.3,5.9-0.6,4.5-2c-8.9-8.8-18.2-18.4-29.8-23.5c-6-2.6-12.7-3.7-18.9-5.6
					c-7.9-2.4-15.8-5.1-23.5-8c-12.9-4.8-27.4-8.4-38.9-16.1c-6-4.1-11.4-9.2-16.9-14c-5.7-5.1-11.5-10.1-16.7-15.8
					c-15.3-16.8-31.4-33.1-47-49.6c-9.9-10.4-19.8-20.9-29.7-31.3c-7.1-7.5-15-14.5-17.3-25.1c-2.7-12.3,2.1-25.5,12.3-33
					c10.8-8,25.8-7.4,36.4,0.6c7.2,5.4,13.1,13.2,19.3,19.7c19.1,20.2,38.3,40.3,57.4,60.5C808.4,834.8,813,832.9,811.5,831.4
					L811.5,831.4z"/>
			</g>
			<g>
				<path class="st1" d="M729.9,808c-9.2,8.5-19.3,5.2-26.9-3c-4.8-5.2-12-11-14.6-17.8c-4.7-12.4,5.7-28.3,19.7-25.4
					c8,1.6,13.5,9.8,18.7,15.4c2.8,3,5.8,5.8,7.4,9.7C737.3,794.2,735.5,802.5,729.9,808c-2,1.9,2.8,1.7,3.8,0.7
					c5.2-5.1,7.9-12,6.5-19.2c-1-5.1-4-8.8-7.4-12.5c-7-7.6-13.6-17.4-24.8-18.1c-12.7-0.8-25.6,9.3-25.7,22.5
					c0,11,10,18.8,16.9,26.2c9.6,10.4,24.1,10.7,34.5,1.1C735.7,806.8,731,807,729.9,808z"/>
			</g>
		</g>
		<g>
			<path class="st0" d="M999.5,774.7c-12.6,8.1-29.4,4.5-37.5-8.1L879.6,637c-8.1-12.5-4.5-29.2,8-37.2l0.3-0.2
				c12.5-8.1,29.2-4.5,37.3,8l82.4,129.6C1015.7,749.8,999.5,774.7,999.5,774.7z"/>
			<g>
				<path class="st1" d="M921.6,698.6c-10.6-16.7-21.2-33.4-31.9-50.1c-4.3-6.8-10.3-14.1-11.7-22.2c-1.6-9.4,2-19.3,9.5-25.2
					c8.8-7,20.9-6.1,29.5,0.8c4.5,3.6,7.3,8.8,10.4,13.6c4.9,7.7,9.8,15.4,14.7,23c13.5,21.3,27.1,42.6,40.6,63.9
					c8.8,13.9,17.6,27.7,26.5,41.6c0.7,1.2,5.2-0.7,4.8-1.3c-22.4-35.2-44.7-70.3-67.1-105.5c-5.1-7.9-10.1-15.9-15.2-23.8
					c-3.6-5.7-6.9-11.4-12.8-15c-13.4-8.2-32.6-3.6-41.3,9.2c-5,7.3-6.1,16.9-2.9,25.1c1.2,3.2,3.2,6,5,8.8
					c12.4,19.4,24.7,38.9,37.1,58.3C917.6,701.1,922,699.2,921.6,698.6L921.6,698.6z"/>
			</g>
		</g>
		<g>
			<path class="st0" d="M945.7,790.1c0,0-37,5.3-47-10.6l-93.5-149c-10-15.8-5.2-36.7,10.6-46.6l0.5-0.3c15.8-10,34.2-9.4,58.4,30
				l81.7,129.6C967.4,762.9,961.6,780.1,945.7,790.1z"/>
			<g>
				<path class="st1" d="M897.4,773c-25.7-41-51.4-82-77.1-123c-4-6.4-8.1-12.8-12.1-19.3c-9.8-15.7-6.6-36.4,9.4-46.8
					c27.8-18.1,49,21.4,61.5,41.2c14.5,22.9,28.9,45.9,43.4,68.8c0.8,1.2,5.2-0.6,4.8-1.3c-13.4-21.3-26.9-42.6-40.3-64
					c-13.1-20.8-30.7-58-60.4-50.6c-16.9,4.2-30.1,19.3-28.9,37.2c0.6,9.6,5.8,16.9,10.7,24.7c15.4,24.6,30.8,49.1,46.2,73.7
					c8,12.8,16,25.5,24,38.3c4.3,6.9,8.2,15,13.4,21.4c0.2,0.3,0.4,0.7,0.6,1C893.3,775.5,897.8,773.6,897.4,773L897.4,773z"/>
			</g>
		</g>
		<g>
			<path class="st0" d="M883.5,796.3c0,0-22.5,30.4-32.6,14.9L729.8,622.5c-10.1-15.3-5.8-35.9,9.5-46l0.5-0.3
				c15.3-10.1,35.8-5.8,45.9,9.4L895.8,757C905.9,772.4,898.9,786.1,883.5,796.3z"/>
			<g>
				<path class="st1" d="M820.3,758.2c-12.3-19-24.5-37.9-36.8-56.9c-16.1-24.9-32.2-49.9-48.3-74.8c-1-1.5-2-3.1-3-4.6
					c-6.7-10.7-7.4-24.1-0.8-35.1c7.6-12.7,22.8-18.3,36.7-12.8c6.7,2.7,11.9,7.5,15.9,13.5c14.5,22.3,28.9,44.7,43.3,67
					c9.1,14.1,18.2,28.2,27.3,42.3c5.2,8.1,9.9,17.2,15.9,24.7c0.3,0.4,0.5,0.8,0.8,1.2c0.8,1.2,5.2-0.7,4.8-1.3
					c-13.1-20.2-26.1-40.5-39.2-60.7c-15.9-24.6-31.8-49.2-47.6-73.7c-9.2-14.2-25.4-20.6-41.8-15.4c-21.9,6.9-32.6,31.7-20.1,51.6
					c13.5,21.5,27.5,42.6,41.3,63.9c9.6,14.9,19.3,29.9,28.9,44.8c5.6,8.7,10.9,17.8,17,26.3c0.3,0.4,0.6,0.9,0.8,1.3
					C816.2,760.7,820.6,758.8,820.3,758.2L820.3,758.2z"/>
			</g>
		</g>
		<g>
			<path class="st0" d="M842.1,855.2c-16.3,10.2-37.7,5.3-47.9-11L616.8,562.7c-10.1-16.2-5.3-37.5,10.9-47.7l0.3-0.2
				c16.2-10.2,37.6-5.3,47.7,10.9l177.4,281.5C863.3,823.5,842.1,855.2,842.1,855.2z"/>
			<g>
				<path class="st1" d="M764.5,790.2c-18.8-29.6-37.7-59.2-56.5-88.7c-26.7-42-53.4-83.9-80.1-125.9c-2.7-4.2-5.4-8.4-8-12.6
					c-6.7-10.8-8-24.1-1.8-35.4c11.1-20,38.7-21.8,52.9-4.2c2.4,2.9,4.3,6.4,6.3,9.6c24.4,38.8,48.9,77.6,73.3,116.4
					c22,34.9,44,69.9,66,104.8c0.4,0.6,0.7,1.2,1.1,1.8c0.9,1.4,5.6-0.2,4.5-1.9c-19.6-31.1-39.1-62.1-58.7-93.2
					c-26.4-41.9-52.8-83.8-79.2-125.7c-2.1-3.3-4.2-6.7-6.3-10c-8.5-13.1-24-19.3-39.2-16c-17.6,3.8-30.7,19.6-29.7,37.8
					c0.4,7.7,3.7,14.1,7.7,20.4c24.3,38.1,48.5,76.2,72.8,114.4c23,36.2,46.1,72.3,69.1,108.5c0.4,0.6,0.8,1.3,1.2,1.9
					C760.9,793.4,765.6,791.9,764.5,790.2L764.5,790.2z"/>
			</g>
			<g>
				<path class="st1" d="M663.1,571.3c-10.2,6.5-21.7,3.2-28.1-6.8c-4-6.3-9.8-13.3-10.6-20.9c-1.3-12.9,10.9-25,23.9-22.2
					c9.4,2,13.6,10.5,18.3,17.9c2.4,3.9,4.9,7.6,5.5,12.3C673.2,559.5,669.6,566.9,663.1,571.3c-2.7,1.8,1.3,3,3.1,1.8
					c11.3-7.6,13.9-21.4,6.8-32.9c-5.8-9.4-11-19.9-23-22c-12.4-2.2-26.2,5.8-29.7,18c-3.3,11.6,4.3,20.9,10.1,30.1
					c8.2,12.7,23.4,14.6,35.8,6.8C669,571.4,664.9,570.2,663.1,571.3z"/>
			</g>
			<g>
				<path class="st1" d="M764.7,799.3c18,25.2,39.9,49.3,65.2,67.3c1.2,0.8,5.4-1.1,4.5-1.7c-25.1-17.8-47.2-42.1-64.9-66.9
					C768.7,796.8,764.3,798.7,764.7,799.3L764.7,799.3z"/>
			</g>
		</g>
	</g>
	<g>
		<g>
			<g>
				<path id="SVGID_1_" class="st5" d="M532.1,412.4c2.5-1.4,4.3-2.3,7.4-3.6c4.6-2,1.9-7.7-2.4-6.2c-3.1,1.2-7.5,3.2-10.6,5.1
					c-7-8-3-16.6,3.6-20.8c7.1-4.2,17.2-7.5,29-9.3c4.8-0.7,6.6,5.5,0.7,6.3c-7.4,1.1-15,3.6-19.3,5.4c-4.1,1.5-2.2,6.9,2.6,5.2
					c5.1-1.8,10.5-3,16.9-4.1l0,0c2-0.3,4,0.8,4.4,2.5c0.4,1.7-1,3.3-3.1,3.6c-2.9,0.4-5.8,0.9-8.5,1.5c-2.2,0.4-3.4,2.2-2.9,3.9
					c0.5,1.8,2.7,2.8,4.8,2.4c1.6-0.3,3.2-0.6,4.8-0.9c0.1,0,0.3,0,0.4-0.1c2.2-0.3,4.2,0.9,4.6,2.6c0.4,1.7-1,3.4-3.2,3.7l0,0
					c-8.7,1.3-16.5,3.2-23,5.8C535.8,414.5,533.8,413.5,532.1,412.4"/>
			</g>
			<g>
				<g>
					<defs>
						<path id="SVGID_2_" d="M532.1,412.4c2.5-1.4,4.3-2.3,7.4-3.6c4.6-2,1.9-7.7-2.4-6.2c-3.1,1.2-7.5,3.2-10.6,5.1
							c-7-8-3-16.6,3.6-20.8c7.1-4.2,17.2-7.5,29-9.3c4.8-0.7,6.6,5.5,0.7,6.3c-7.4,1.1-15,3.6-19.3,5.4c-4.1,1.5-2.2,6.9,2.6,5.2
							c5.1-1.8,10.5-3,16.9-4.1l0,0c2-0.3,4,0.8,4.4,2.5c0.4,1.7-1,3.3-3.1,3.6c-2.9,0.4-5.8,0.9-8.5,1.5c-2.2,0.4-3.4,2.2-2.9,3.9
							c0.5,1.8,2.7,2.8,4.8,2.4c1.6-0.3,3.2-0.6,4.8-0.9c0.1,0,0.3,0,0.4-0.1c2.2-0.3,4.2,0.9,4.6,2.6c0.4,1.7-1,3.4-3.2,3.7l0,0
							c-8.7,1.3-16.5,3.2-23,5.8C535.8,414.5,533.8,413.5,532.1,412.4"/>
					</defs>
					<clipPath id="SVGID_4_">
						<use xlink:href="#SVGID_2_"  style="overflow:visible;"/>
					</clipPath>
					<rect x="519.4" y="376.8" class="st6" width="46.1" height="38.7"/>
				</g>
			</g>
		</g>
		<g>
			<g>
				<path id="SVGID_3_" class="st5" d="M570,376.2c-1.8,0.3-3,1.9-2.7,3.7c0.3,1.7,2,2.9,3.8,2.6c1.8-0.3,3-1.9,2.7-3.7
					C573.5,377,571.8,375.9,570,376.2"/>
			</g>
			<g>
				<g>
					<defs>
						<path id="SVGID_6_" d="M570,376.2c-1.8,0.3-3,1.9-2.7,3.7c0.3,1.7,2,2.9,3.8,2.6c1.8-0.3,3-1.9,2.7-3.7
							C573.5,377,571.8,375.9,570,376.2"/>
					</defs>
					<clipPath id="SVGID_8_">
						<use xlink:href="#SVGID_6_"  style="overflow:visible;"/>
					</clipPath>
					<rect x="567.1" y="375.9" class="st7" width="7" height="6.9"/>
				</g>
			</g>
		</g>
		<g>
			<g>
				<path id="SVGID_5_" class="st8" d="M592.4,402.2c1.8,0.3,3,1.9,2.7,3.7c-0.3,1.7-2,2.9-3.8,2.6c-1.8-0.3-3-1.9-2.7-3.7
					C589,403.1,590.6,402,592.4,402.2"/>
			</g>
			<g>
				<g>
					<defs>
						<path id="SVGID_9_" d="M592.4,402.2c1.8,0.3,3,1.9,2.7,3.7c-0.3,1.7-2,2.9-3.8,2.6c-1.8-0.3-3-1.9-2.7-3.7
							C589,403.1,590.6,402,592.4,402.2"/>
					</defs>
					<clipPath id="SVGID_10_">
						<use xlink:href="#SVGID_9_"  style="overflow:visible;"/>
					</clipPath>
					<rect x="588.3" y="402" class="st9" width="7" height="6.9"/>
				</g>
			</g>
		</g>
		<g>
			<g>
				<path id="SVGID_7_" class="st8" d="M632.7,412.4c-2.5-1.4-4.3-2.3-7.4-3.6c-4.6-2-1.9-7.7,2.4-6.2c3.1,1.2,7.5,3.2,10.6,5.1
					c7-8,3.1-16.7-3.6-20.8c-7.1-4.2-17.2-7.5-29-9.3c-4.8-0.7-6.6,5.5-0.7,6.3c7.4,1.1,15,3.6,19.3,5.4c4.1,1.5,2.2,6.9-2.6,5.2
					c-5.1-1.8-10.5-3-16.9-4.1l0,0c-2-0.3-4,0.8-4.4,2.5c-0.4,1.7,1,3.3,3.1,3.6c2.9,0.4,5.8,0.9,8.5,1.5c2.2,0.4,3.4,2.2,2.9,3.9
					s-2.7,2.8-4.8,2.4c-1.6-0.3-3.2-0.6-4.8-0.9c-0.1,0-0.3,0-0.4-0.1c-2.2-0.3-4.2,0.9-4.6,2.6c-0.4,1.7,1,3.4,3.2,3.7l0,0
					c8.7,1.3,16.5,3.2,23,5.8C628.9,414.5,631,413.5,632.7,412.4"/>
			</g>
			<g>
				<g>
					<defs>
						<path id="SVGID_11_" d="M632.7,412.4c-2.5-1.4-4.3-2.3-7.4-3.6c-4.6-2-1.9-7.7,2.4-6.2c3.1,1.2,7.5,3.2,10.6,5.1
							c7-8,3.1-16.7-3.6-20.8c-7.1-4.2-17.2-7.5-29-9.3c-4.8-0.7-6.6,5.5-0.7,6.3c7.4,1.1,15,3.6,19.3,5.4c4.1,1.5,2.2,6.9-2.6,5.2
							c-5.1-1.8-10.5-3-16.9-4.1l0,0c-2-0.3-4,0.8-4.4,2.5c-0.4,1.7,1,3.3,3.1,3.6c2.9,0.4,5.8,0.9,8.5,1.5c2.2,0.4,3.4,2.2,2.9,3.9
							s-2.7,2.8-4.8,2.4c-1.6-0.3-3.2-0.6-4.8-0.9c-0.1,0-0.3,0-0.4-0.1c-2.2-0.3-4.2,0.9-4.6,2.6c-0.4,1.7,1,3.4,3.2,3.7l0,0
							c8.7,1.3,16.5,3.2,23,5.8C628.9,414.5,631,413.5,632.7,412.4"/>
					</defs>
					<clipPath id="SVGID_12_">
						<use xlink:href="#SVGID_11_"  style="overflow:visible;"/>
					</clipPath>
					<rect x="599.2" y="376.8" class="st10" width="46.1" height="38.7"/>
				</g>
			</g>
		</g>
		<path class="st11" d="M639,413.9l-33.5,20.3c-14.8,9-20.8,19.8-23.1,32.9c-2.3-13.1-8.3-23.9-23.1-32.9l-33.5-20.4
			c-3.8-2.3-8.1-7-8.5-12.4v22.9c2.8,9.4,9.5,20.3,24.6,30.3l40.5,26.9l40.5-26.9c15-10,21.8-20.9,24.6-30.3v-22.9
			C647.1,406.9,642.9,411.6,639,413.9z"/>
	</g>
</g>
</svg>
