<?xml version="1.0" encoding="utf-8"?>
<!-- Generator: Adobe Illustrator 24.3.0, SVG Export Plug-In . SVG Version: 6.00 Build 0)  -->
<svg version="1.1" id="Layer_1" xmlns="http://www.w3.org/2000/svg" xmlns:xlink="http://www.w3.org/1999/xlink" x="0px" y="0px"
	 viewBox="0 0 454.9 453.7" style="enable-background:new 0 0 454.9 453.7;" xml:space="preserve">
<style type="text/css">
	.st0{fill:#FFE8F0;}
	.st1{fill:#EFEFEF;}
	.st2{fill:#FFFFFF;}
	.st3{fill:#444444;}
</style>
<g id="Ñëîé_1_1_">
</g>
<g id="Ñëîé_2">
	<g>
		<g>
			<circle id="XMLID_7_" class="st0" cx="227.4" cy="226.9" r="225"/>
			<g>
				<path class="st1" d="M271,231.5c23.4-14.8,38.9-40.8,39-70.6c0.1-46.3-37.3-83.9-83.5-84.1c-46.3-0.1-83.9,37.3-84.1,83.5
					c-0.1,29.7,15.3,55.9,38.6,70.8C116.1,246.9,64.2,296,44.6,359.4c40.7,55.7,106.4,92.1,180.7,92.3s140.2-35.7,181.3-91.2
					C387.5,297,335.8,247.6,271,231.5z"/>
				<path class="st2" d="M273.7,231.2c22-13.9,36.7-46.7,36.7-58.3c0-43.5-29.7-79-73.2-79.1s-79,32.4-79.1,75.9
					c-0.1,28,14.4,52.5,36.3,66.6C133.3,251,79.1,316,60.7,375.6C99,428,166.2,451.5,236.1,451.7s131.9-33.6,170.5-85.8
					C388.6,306.2,334.7,246.3,273.7,231.2z"/>
				<g>
					<path class="st3" d="M272.9,231.8c25.9-16.7,41.3-46.1,39.4-77c-1.8-28.1-18-53.9-42.4-67.8c-23.8-13.6-53.4-14.7-78.4-3.7
						c-24.8,11-43.7,33.3-49.5,59.9c-7.5,34.3,7.5,69.9,36.8,89.1c0.7-0.6,1.3-1.3,2-1.9c-50.6,12.4-94.9,45-121.2,90.1
						C52.8,332,47.3,344.2,43.1,357c-1.2,3.6-0.4,3.8,1.9,6.9c2.1,2.7,4.2,5.4,6.4,8.1c4.4,5.3,9.1,10.4,13.9,15.2
						c19.3,19.3,42.2,35,67.1,46.1c51.5,23.1,111,25.7,164.5,8.1c25.6-8.4,49.6-21.4,70.6-38.2c10.5-8.4,20.3-17.7,29.1-27.7
						c2.3-2.6,4.5-5.2,6.6-7.9c1.4-1.7,5.3-5.3,5.6-7.3c0.3-2.2-1.9-6.4-2.7-8.6c-1.1-3.2-2.3-6.3-3.6-9.4
						c-20.2-48.7-60.8-87.7-110.3-105.8c-6.4-2.3-12.9-4.3-19.4-5.9c-1.3-0.3-5.6,1.7-3.9,2.1c49.2,12.4,92.2,44.5,117.7,88.5
						c6.4,11,11.6,22.6,15.6,34.6c1.2,3.6,1.7,5.3-0.7,8.5c-2.1,2.7-4.3,5.4-6.5,8c-4.1,4.9-8.5,9.6-13,14.1
						c-18.9,18.8-41.1,34.2-65.4,45.1c-50.8,22.8-109.7,25.2-162.2,7c-24.8-8.6-47.9-21.5-68.2-38.1c-9.9-8.1-19.1-17-27.5-26.7
						c-2.1-2.4-4.1-4.9-6.1-7.4c-2.1-2.6-5.6-5.7-5-9.2c1-5.8,4.3-12.1,6.6-17.5c20.4-46.9,60-84.3,108.1-101.6
						c6.2-2.2,12.5-4.1,18.8-5.6c0.2-0.1,3.1-1.2,2-1.9c-24.6-16.1-39.4-43.9-38.4-73.4c1-26.6,15.2-51.9,37.6-66.3
						c23.4-15.1,53.6-16.4,78.5-4.2c23.6,11.5,40.7,34.3,45.3,60.1c5.9,33.1-9.1,66.6-37.2,84.7C267,232.7,271.8,232.5,272.9,231.8z
						"/>
				</g>
			</g>
			<g id="XMLID_3_">
				<path class="st3" d="M450,227c-0.1,45.9-14.1,91.1-40.6,128.6c-26,36.8-63,65.5-105.3,80.9c-43.9,16-92.7,17.8-137.6,4.8
					c-43.3-12.5-82.2-38.2-110.8-73c-28.8-35-46.4-78.5-50-123.7c-3.7-46.2,7.1-92.9,30.9-132.7c23-38.4,57.7-69.5,98.4-88.2
					C177.5,4.2,226.1-1.1,272,8.3c44.3,9.1,85.4,32,116.5,64.8c31.1,32.7,51.8,74.6,58.8,119.2C449.1,203.7,450,215.4,450,227
					c0,2.6,4.9,2,4.9-0.3c-0.1-47-14.7-93.3-42-131.6C386.2,57.8,348.3,29,305.2,13.5c-44.7-16.1-94.3-17.8-140-4.8
					C121.4,21.2,81.8,47,52.6,81.9C22.8,117.7,4.4,162.4,0.7,208.8c-3.8,47.2,7.4,95,31.9,135.5c23.7,39.1,59.3,70.6,101,89.4
					c43.3,19.5,92.4,24.8,139,15.4c45.1-9.1,86.8-32.2,118.7-65.2c32-33.1,53.4-75.8,60.7-121.3c1.9-11.9,2.8-23.9,2.9-36
					C454.9,224.1,450,224.7,450,227z"/>
			</g>
		</g>
	</g>
</g>
</svg>
