<?xml version="1.0" encoding="utf-8"?>
<!-- Generator: Adobe Illustrator 24.3.0, SVG Export Plug-In . SVG Version: 6.00 Build 0)  -->
<svg version="1.1" id="_x3C_Layer_x3E_" xmlns="http://www.w3.org/2000/svg" xmlns:xlink="http://www.w3.org/1999/xlink" x="0px"
	 y="0px" viewBox="0 0 3892.55 2365.52" style="enable-background:new 0 0 3892.55 2365.52;" xml:space="preserve">
<style type="text/css">
	.st0{opacity:0.35;fill:url(#SVGID_1_);}
	.st1{fill:#FFFFFF;}
	.st2{opacity:0.5;}
	.st3{fill:#F7BFE8;}
	.st4{fill:#FFD7F3;}
	.st5{fill:#FCE8F6;}
	.st6{fill:#FCC8EC;}
	.st7{fill:#FFD9F2;}
	.st8{fill:#FFCCE0;}
	.st9{fill:#FCE8F7;}
	.st10{fill:#FFDCF8;}
	.st11{fill:#F9C5EF;}
	.st12{filter:url(#Adobe_OpacityMaskFilter);}
	.st13{filter:url(#Adobe_OpacityMaskFilter_1_);}
	.st14{mask:url(#SVGID_2_);fill:url(#SVGID_3_);}
	.st15{fill:url(#SVGID_4_);}
	.st16{fill:#F7929E;}
	.st17{fill:#311649;}
	.st18{fill:#422660;}
	.st19{fill:#CE847A;}
	.st20{fill:#AF6B5D;}
	.st21{fill:#E59E91;}
	.st22{fill:#C07D6D;}
	.st23{fill:#2795F8;}
	.st24{fill:#0580CC;}
	.st25{fill:url(#SVGID_5_);}
	.st26{fill:#F68895;}
	.st27{fill:#F17785;}
	.st28{fill:#C5205C;}
	.st29{fill:url(#SVGID_6_);}
	.st30{fill:url(#SVGID_7_);}
	.st31{fill:url(#SVGID_8_);}
	.st32{fill:#603884;}
	.st33{fill:url(#SVGID_9_);}
</style>
<g>
	<g>
		<linearGradient id="SVGID_1_" gradientUnits="userSpaceOnUse" x1="253.5362" y1="2184.1086" x2="3656.4353" y2="552.9678">
			<stop  offset="0" style="stop-color:#FBBAE2"/>
			<stop  offset="0.1317" style="stop-color:#FBC6E5"/>
			<stop  offset="0.4221" style="stop-color:#FCDAEB"/>
			<stop  offset="0.7122" style="stop-color:#FDE6EF"/>
			<stop  offset="1" style="stop-color:#FDEAF0"/>
		</linearGradient>
		<path class="st0" d="M3662.91,1145.73c-1.39,113.48-54.69,219.55-113.81,316.42c-59.1,96.88-126.09,191.07-160.17,299.31
			c-22.15,70.37-27.83,149.37-8.62,219.57c0.31,1.16,0.64,2.32,0.96,3.47c-39.49,0.2-85.95,0.4-138.65,0.59
			c-22.04,0.08-45.16,0.16-69.32,0.24c-13.33,0.04-26.98,0.07-40.95,0.11c-5.65,0.01-11.35,0.04-17.11,0.06
			c-9.47,0.03-19.05,0.06-28.77,0.07c-27.29,0.07-55.59,0.14-84.88,0.2c-17.93,0.04-36.23,0.08-54.9,0.13
			c-25.39,0.04-51.46,0.1-78.15,0.16c-69.24,0.13-142.68,0.24-219.66,0.34c-228.24,0.3-487.91,0.45-763.33,0.45
			c-325.72,0-629.41-0.23-885.19-0.64c-48.49-0.07-95.24-0.16-140.1-0.24c-44.87-0.08-87.82-0.18-128.72-0.28
			c-3.21,0-6.41-0.01-9.6-0.03c-32.41-0.08-63.49-0.16-93.14-0.24c-27.17-0.08-53.22-0.16-77.97-0.24
			c-9.43-0.04-18.63-0.07-27.75-0.11c-8.72-0.03-17.25-0.06-25.62-0.1c-53.74-0.2-100.18-0.42-138.35-0.65
			c-0.01-1.03-0.03-2.07-0.03-3.1c-0.37-116.41,75.13-233.42,154.26-326.47C612,1538.72,727.71,1415.42,728.1,1263.1
			c0.4-145.76-108.26-280.21-88.23-424.58C655.5,725.84,750.11,635.9,857.1,597.24c106.97-38.67,224.57-34.24,337.4-19.86
			c112.84,14.39,225.15,38.27,338.9,36.88c236.1-2.86,455.4-113.03,672.39-206.14c217-93.11,457.86-172.25,685.84-110.75
			c95.87,25.86,193.08,86.56,216.98,182.96c28.6,115.38-52,257.28,26.55,346.5c40.76,46.28,109.26,55.35,170.86,52.34
			c61.61-3.01,124.59-14.82,184.05,1.57C3599.47,910.91,3664.3,1032.24,3662.91,1145.73z"/>
		<path class="st1" d="M863.3,920.86h457.19c9.56-16.67,16.05-30.74,20.62-49.41c4.57-18.67,3.42-39.62-7.47-55.45
			c-8.68-12.61-23.25-20.97-38.52-22.09c-15.27-1.12-30.91,5.02-41.33,16.23c23.98-36.24,29.75-83.11,11.17-122.39
			c-18.58-39.29-62.9-66.1-105.95-60.14c-42.68,5.91-76.74,41.04-93.6,80.7c-16.86,39.66-19.59,83.66-22.1,126.68
			c-2.6-36.88-39.5-66.04-76.41-68.27c-36.91-2.23-72.72,19.41-93.54,49.97C852.52,847.23,862.26,883.9,863.3,920.86z"/>
		<g class="st2">
			<g>
				<rect x="2901.74" y="1607.05" class="st3" width="386.32" height="372.73"/>
				<rect x="2795.24" y="1607.05" class="st4" width="386.32" height="372.73"/>
				<rect x="2829.96" y="1645.11" class="st5" width="102.56" height="61.53"/>
			</g>
			<g>
				<rect x="2938.94" y="1338.62" class="st6" width="278.72" height="268.91"/>
				<rect x="2862.11" y="1338.62" class="st7" width="278.72" height="268.91"/>
				<rect x="2887.15" y="1366.08" class="st5" width="73.99" height="44.39"/>
			</g>
		</g>
		<path class="st8" d="M3535.19,1982.78c0,0.44-29.76,0.88-84.71,1.29c-19.84,0.14-42.98,0.28-69.21,0.44
			c-39.49,0.2-85.95,0.4-138.65,0.59c-22.04,0.08-45.16,0.16-69.32,0.24c-13.33,0.04-26.98,0.07-40.95,0.11
			c-5.65,0.01-11.35,0.04-17.11,0.06c-9.47,0.03-19.05,0.06-28.77,0.07c-27.29,0.07-55.59,0.14-84.88,0.2
			c-17.93,0.04-36.23,0.08-54.9,0.13c-25.39,0.04-51.46,0.1-78.15,0.16c-69.24,0.13-142.68,0.24-219.66,0.34
			c-228.24,0.3-487.91,0.45-763.33,0.45c-325.72,0-629.41-0.23-885.19-0.64c-48.49-0.07-95.24-0.16-140.1-0.24
			c-44.87-0.08-87.82-0.18-128.72-0.28c-3.21,0-6.41-0.01-9.6-0.03c-32.41-0.08-63.49-0.16-93.14-0.24
			c-27.17-0.08-53.22-0.16-77.97-0.24c-9.43-0.04-18.63-0.07-27.75-0.11c-8.72-0.03-17.25-0.06-25.62-0.1
			c-53.74-0.2-100.18-0.42-138.35-0.65h-0.55c-0.48,0-0.96,0-1.44-0.01c-6.6-0.03-12.94-0.07-19.01-0.11h-0.01
			c-66.12-0.42-102.23-0.92-102.23-1.42c0-0.48,35.47-0.98,100.45-1.4c4.68-0.03,9.51-0.07,14.51-0.1c1.34-0.01,2.67-0.01,4.05-0.03
			c1.4-0.01,2.8-0.01,4.22-0.03c37.83-0.21,83.77-0.45,136.9-0.65c3.74-0.01,7.5-0.03,11.31-0.04c9.57-0.03,19.22-0.06,29.18-0.1
			c26.06-0.1,53.6-0.18,82.51-0.27c32.96-0.1,67.72-0.2,104.2-0.28c2.14,0,4.33-0.01,6.5-0.01c84.38-0.2,177.64-0.38,278.21-0.54
			c254.18-0.41,555.11-0.64,877.66-0.64c273.75,0,531.98,0.17,759.22,0.47c76.72,0.1,149.91,0.21,218.97,0.34
			c22.12,0.04,43.82,0.08,65.13,0.11c33.88,0.08,66.63,0.16,98.21,0.21c14.59,0.04,28.92,0.07,42.97,0.11
			c10.16,0.01,20.18,0.04,30.05,0.07c13.46,0.04,26.64,0.08,39.56,0.11c19.11,0.06,37.63,0.11,55.57,0.18
			c15,0.04,29.57,0.08,43.69,0.14c53.8,0.18,101.2,0.38,141.39,0.59c27.41,0.14,51.48,0.3,71.97,0.45
			C3506.09,1981.9,3535.19,1982.33,3535.19,1982.78z"/>
		<g>
			<rect x="370.1" y="835.37" class="st9" width="1208.4" height="915.45"/>
			<rect x="489.99" y="1750.82" class="st10" width="1088.51" height="66.9"/>
			<circle class="st11" cx="739.8" cy="1845.7" r="134.08"/>
			
				<ellipse transform="matrix(0.7071 -0.7071 0.7071 0.7071 -1088.4255 1063.7092)" class="st4" cx="739.8" cy="1845.7" rx="68.48" ry="68.48"/>
			<polygon class="st10" points="2186.35,1476.65 2186.35,1817.72 1573.32,1817.72 1573.32,1092.52 1896.75,1092.52 
				1949.27,1148.28 			"/>
			<polygon class="st9" points="2186.35,1476.65 1632.47,1476.65 1632.47,1148.28 1949.27,1148.28 2016.22,1241.01 			"/>
			<circle class="st11" cx="1846.91" cy="1845.7" r="134.08"/>
			
				<ellipse transform="matrix(0.1602 -0.9871 0.9871 0.1602 -270.8004 3373.113)" class="st4" cx="1846.91" cy="1845.7" rx="68.48" ry="68.48"/>
			<defs>
				<filter id="Adobe_OpacityMaskFilter" filterUnits="userSpaceOnUse" x="1632.47" y="1148.28" width="383.75" height="328.37">
					<feFlood  style="flood-color:white;flood-opacity:1" result="back"/>
					<feBlend  in="SourceGraphic" in2="back" mode="normal"/>
				</filter>
			</defs>
			<mask maskUnits="userSpaceOnUse" x="1632.47" y="1148.28" width="383.75" height="328.37" id="SVGID_2_">
				<g class="st12">
					<defs>
						
							<filter id="Adobe_OpacityMaskFilter_1_" filterUnits="userSpaceOnUse" x="1632.47" y="1148.28" width="383.75" height="328.37">
							<feFlood  style="flood-color:white;flood-opacity:1" result="back"/>
							<feBlend  in="SourceGraphic" in2="back" mode="normal"/>
						</filter>
					</defs>
					<mask maskUnits="userSpaceOnUse" x="1632.47" y="1148.28" width="383.75" height="328.37" id="SVGID_2_">
						<g class="st13">
						</g>
					</mask>
					<linearGradient id="SVGID_3_" gradientUnits="userSpaceOnUse" x1="1662.9197" y1="1516.6492" x2="2110.6575" y2="1015.7147">
						<stop  offset="0" style="stop-color:#808080"/>
						<stop  offset="1" style="stop-color:#1A1A1A"/>
					</linearGradient>
					<polygon class="st14" points="2016.22,1241.01 1780.59,1476.65 1632.47,1476.65 1632.47,1431.07 1915.26,1148.28 
						1949.27,1148.28 					"/>
				</g>
			</mask>
			<linearGradient id="SVGID_4_" gradientUnits="userSpaceOnUse" x1="1662.9197" y1="1516.6492" x2="2110.6575" y2="1015.7147">
				<stop  offset="0" style="stop-color:#FFFFFF"/>
				<stop  offset="1" style="stop-color:#FFFFFF"/>
			</linearGradient>
			<polygon class="st15" points="2016.22,1241.01 1780.59,1476.65 1632.47,1476.65 1632.47,1431.07 1915.26,1148.28 
				1949.27,1148.28 			"/>
		</g>
		<g>
			<g>
				<rect x="992.84" y="1676.4" class="st3" width="314.44" height="303.38"/>
				<rect x="906.16" y="1676.4" class="st4" width="314.44" height="303.38"/>
				<rect x="934.41" y="1707.38" class="st5" width="83.48" height="50.08"/>
			</g>
			<g>
				<rect x="1388.86" y="1758.86" class="st3" width="228.98" height="220.92"/>
				<rect x="1325.74" y="1758.86" class="st4" width="228.98" height="220.92"/>
				<rect x="1346.32" y="1781.42" class="st5" width="60.79" height="36.47"/>
			</g>
			<g>
				<rect x="1023.12" y="1457.92" class="st6" width="226.86" height="218.87"/>
				<rect x="960.58" y="1457.92" class="st7" width="226.86" height="218.87"/>
				<rect x="980.96" y="1480.26" class="st5" width="60.22" height="36.13"/>
			</g>
		</g>
		<path class="st1" d="M2273.08,735.61h638.77c20.56-24.66,37.77-37.71,49.91-67.43c12.14-29.72,14.39-65.27-1.95-92.91
			c-22.2-37.56-72.84-50.08-115.46-40.75c-42.62,9.33-79.17,35.77-114.35,61.57c25.55-45.79,11.45-110.76-23.4-149.93
			c-34.68-38.98-92.8-53.13-143.3-39.99c-50.5,13.14-92.68,51.01-116.84,97.26c-24.16,46.25-31.37,100.12-26.68,152.08
			c-7.54-29.1-40.8-49.7-70.79-51.84c-29.99-2.13-59.96,14.07-76.78,38.99C2255.4,667.58,2265.44,706.54,2273.08,735.61z"/>
	</g>
	<g>
		<g>
			<path class="st16" d="M2408.37,1297.48c-0.58,2.17-5.55,3.1-14.13,3.17c-4.29,0.03-9.49-0.16-15.49-0.57
				c-6-0.41-12.81-1.02-20.34-1.91c-7.52-0.86-15.76-2.02-24.6-3.47c-8.84-1.52-18.29-3.27-28.22-5.64
				c-9.93-2.33-20.35-5.11-31.06-8.66c-10.71-3.55-21.76-7.66-32.82-12.83c-11.12-5.16-21.73-11.02-31.56-17.39
				c-9.8-6.45-18.81-13.47-26.92-20.77c-3.96-3.8-7.87-7.4-11.33-11.32c-1.75-1.94-3.51-3.79-5.12-5.75
				c-1.61-1.97-3.17-3.92-4.69-5.86c-1.54-1.9-2.93-3.91-4.28-5.87c-1.35-1.96-2.66-3.9-3.91-5.81c-2.34-3.99-4.61-7.75-6.45-11.57
				c-3.74-7.6-6.36-14.86-7.98-21.45c-0.76-3.33-1.33-6.45-1.72-9.34c-0.26-2.97-0.35-5.69-0.28-8.17c0.04-1.24,0.11-2.42,0.23-3.53
				c0.17-1.14,0.38-2.21,0.62-3.21c0.48-2.01,1.11-3.76,1.86-5.23c1.51-2.95,3.56-4.83,6.05-5.65c2.49-0.82,5.32-0.55,8.32,0.59
				c1.5,0.57,3.05,1.35,4.62,2.33c0.79,0.49,1.58,1.03,2.38,1.61c0.85,0.56,1.71,1.18,2.58,1.83c1.73,1.31,3.48,2.79,5.24,4.43
				c1.89,1.59,3.82,3.33,5.74,5.22c3.96,3.73,8.22,7.95,12.86,12.53c2.29,2.3,4.86,4.6,7.28,7.12c1.31,1.2,2.63,2.43,3.95,3.7
				c1.32,1.27,2.62,2.58,4.07,3.83c1.41,1.28,2.83,2.59,4.25,3.93c1.43,1.34,2.99,2.62,4.48,3.98c2.95,2.76,6.27,5.38,9.46,8.24
				c6.66,5.49,13.77,11.19,21.42,16.89c7.72,5.64,15.9,11.29,24.61,16.86c8.75,5.63,17.69,10.79,26.47,15.73
				c8.78,4.95,17.52,9.51,25.97,13.81c8.43,4.33,16.66,8.27,24.37,12.03c7.8,3.72,15.07,7.19,21.72,10.36
				c6.68,3.2,12.76,6.13,18.08,8.81c5.32,2.68,9.9,5.1,13.59,7.26C2405.08,1292.05,2408.95,1295.3,2408.37,1297.48z"/>
		</g>
		<g>
			<path class="st17" d="M2521.12,1341.26c-6.53,4.75-13.08,9.46-19.69,14.06l-0.13-0.7l-98.22-46.03
				c-5.5-2.58-7.88-9.12-5.29-14.62c2.58-5.5,9.12-7.87,14.62-5.29l108.37,50.78L2521.12,1341.26z"/>
		</g>
		<g>
			
				<ellipse transform="matrix(0.9871 -0.1602 0.1602 0.9871 -273.6139 438.1714)" class="st17" cx="2580.98" cy="1916.19" rx="62.57" ry="62.57"/>
			
				<ellipse transform="matrix(0.7071 -0.7071 0.7071 0.7071 -599.0025 2386.27)" class="st18" cx="2580.98" cy="1916.19" rx="39.59" ry="39.59"/>
			
				<ellipse transform="matrix(0.3827 -0.9239 0.9239 0.3827 -177.0512 3567.4138)" class="st17" cx="2580.98" cy="1916.19" rx="19.06" ry="19.06"/>
		</g>
		
			<rect x="2469.71" y="1472.04" transform="matrix(0.9751 -0.2218 0.2218 0.9751 -301.0734 633.4172)" class="st19" width="399.6" height="370.17"/>
		
			<rect x="2672.25" y="1442.05" transform="matrix(0.9751 -0.2218 0.2218 0.9751 -291.1406 661.9053)" class="st20" width="258.1" height="370.17"/>
		
			<rect x="2413.34" y="1293.5" transform="matrix(0.9751 -0.2218 0.2218 0.9751 -246.1896 598.8636)" class="st21" width="259.54" height="203.98"/>
		
			<rect x="2540.97" y="1274.47" transform="matrix(0.9751 -0.2218 0.2218 0.9751 -239.8831 616.945)" class="st22" width="171.6" height="203.98"/>
		
			<rect x="2667.23" y="1484.46" transform="matrix(0.9751 -0.2218 0.2218 0.9751 -269.3601 636.7937)" class="st21" width="66.32" height="66.32"/>
		
			<rect x="2550.35" y="1301.4" transform="matrix(0.9751 -0.2218 0.2218 0.9751 -230.6916 605.0919)" class="st21" width="56.38" height="56.38"/>
		<path class="st23" d="M2128.22,884.2c-2.63-8.79-9.82-15.87-18.34-19.29c-8.51-3.42-18.19-3.4-27.02-0.91
			c-9.08,2.56-17.48,7.72-23.51,14.96c-6.04,7.25-9.63,16.59-9.54,26.02c0.13,14.94,8.97,28.23,17.48,40.51
			C2081.74,921.42,2104.25,898.81,2128.22,884.2z"/>
		<path class="st24" d="M2137.49,862.06c4.72-3.65,9.93-7.48,15.9-7.46c8.33,0.03,15.02,8.12,15.78,16.41
			c0.76,8.29-3.1,16.37-8.11,23.03c-9.99,13.29-25,22.71-41.31,25.92c-9.63,1.89-19.65,1.61-29.18-0.68
			c-3.3-0.79-11.94-2.22-13.97-5.07c-3.35-4.7,1.89-6.5,5.91-9.6C2100.85,890.43,2119.17,876.24,2137.49,862.06z"/>
		
			<linearGradient id="SVGID_5_" gradientUnits="userSpaceOnUse" x1="1971.817" y1="1549.1046" x2="1859.9008" y2="1101.438" gradientTransform="matrix(0.9929 -0.1189 0.1189 0.9929 29.6354 107.8703)">
			<stop  offset="0" style="stop-color:#0386E9"/>
			<stop  offset="0.266" style="stop-color:#118CEF"/>
			<stop  offset="0.6797" style="stop-color:#2193F6"/>
			<stop  offset="1" style="stop-color:#2795F8"/>
		</linearGradient>
		<path class="st25" d="M2185.05,1189.08c5.86,50.35,6.38,100.88,6,151.52c-47.34,18.09-98.88,23.39-149.32,17.88
			c-5.26-51.15-10.5-102.36-12.64-153.72c-1.12-27.06-1.32-54.54,5.33-80.67c5.95-23.41,18.05-45.86,36.59-60.33
			c2.15-1.69,4.4-3.28,6.74-4.73c11.68,8.95,35.75,11.48,48.59,4.71c7.2,4.34,13.65,9.76,19.4,15.96
			c10.37,11.18,18.37,24.87,24.04,39.23C2178.59,1141.23,2182.27,1165.24,2185.05,1189.08z"/>
		<path class="st26" d="M2145.74,1079.69c-12.53,3.78-26.01,4.42-38.84,1.77c-6.89-1.41-13.56-3.77-19.83-6.95
			c-4.94-2.5-9.64-5.54-13.96-9.01c-0.17-1-0.33-1.99-0.45-3c-0.06-0.41-0.1-0.82-0.15-1.24c0.2-1.42,0.39-2.86,0.57-4.29
			c1.87-14.4,3.47-28.92,4.97-43.44c1.38-13.39,2.65-26.77,3.95-40.1c15.3,6.6,29.45,14.86,43.78,24.58
			c0.54,9,1.37,17.99,2.52,26.91c0.95,7.54,2.12,15.03,3.48,22.47l0.01,0c0.77,4.17,1.6,8.3,2.49,12.43
			c0.85,3.86,1.74,7.71,2.7,11.54C2140.08,1073.93,2143,1076.72,2145.74,1079.69z"/>
		<path class="st27" d="M2131.78,1047.39c-16.25-13.66-34.38-25.09-53.73-33.85c1.38-13.39,2.66-26.77,3.95-40.1
			c15.31,6.6,29.45,14.86,43.78,24.59c0.54,9,1.38,17.99,2.52,26.9C2129.25,1032.46,2130.41,1039.95,2131.78,1047.39z"/>
		<path class="st28" d="M2143.54,930.66c4.88,11.2,3.24,24.96-4.12,34.71c-5.91-7.88-9.94-17.53-11.76-27.22
			c-0.48-2.58-0.72-5.55,0.99-7.55c1.66-1.94,4.54-2.22,7.08-1.98C2138.28,928.86,2141.08,931.32,2143.54,930.66z"/>
		<path class="st26" d="M2151.78,1002.82c-4.61,13.09-19.45,21.03-33.26,19.69c-5.15-0.51-10.09-2.12-14.61-4.6
			c-7.6-4.13-14.04-10.66-18.4-18.2c-6.95-12.02-9.09-26.34-8.46-40.21c0.64-13.87,3.89-27.47,7.13-40.97
			c16.4-9.26,36.3-4.01,51.08,7.69c-1.98,13.21,4.46,26.03,10.13,38.11c0.2,0.42,0.4,0.86,0.61,1.3
			C2151.41,977.4,2156.08,990.68,2151.78,1002.82z"/>
		<path class="st17" d="M2230.37,1912.62c-5.15,21.94-2.92,45.55,6.24,66.14c40.4-2.99,82.35-12.71,119.43-29.03
			c-16.48-21.48-39.94-37.79-66.29-44.03C2272.28,1901.57,2248.17,1915.02,2230.37,1912.62z"/>
		<path class="st17" d="M1871.44,1848.36c-20.22,10.4-37.02,27.98-47.1,49.27c28.01,31.31,62.2,59.39,98.38,79.07
			c6.1-27.91,3.76-58.14-8.18-84.01C1906.64,1875.52,1880.91,1864.63,1871.44,1848.36z"/>
		
			<linearGradient id="SVGID_6_" gradientUnits="userSpaceOnUse" x1="2021.6736" y1="1565.7573" x2="1695.9365" y2="2064.9568" gradientTransform="matrix(0.9973 -0.0736 0.0736 0.9973 13.1808 29.8956)">
			<stop  offset="0" style="stop-color:#371A4F"/>
			<stop  offset="0.151" style="stop-color:#3D1D57"/>
			<stop  offset="0.4544" style="stop-color:#44215F"/>
			<stop  offset="1" style="stop-color:#462261"/>
		</linearGradient>
		<path class="st29" d="M2042.41,1434.4c0,0,49.21,235.42-184.73,413.46l67.42,67.98c0,0,262.04-194.77,225.43-431.39
			L2042.41,1434.4z"/>
		
			<linearGradient id="SVGID_7_" gradientUnits="userSpaceOnUse" x1="1980.9128" y1="1306.0978" x2="2125.9961" y2="2057.5198" gradientTransform="matrix(0.9973 -0.0736 0.0736 0.9973 13.1808 29.8956)">
			<stop  offset="0" style="stop-color:#371A4F"/>
			<stop  offset="0.151" style="stop-color:#3D1D57"/>
			<stop  offset="0.4544" style="stop-color:#44215F"/>
			<stop  offset="1" style="stop-color:#462261"/>
		</linearGradient>
		<path class="st30" d="M2184.32,1146.37c12.62,72.39,18.71,179.14,13.33,252.42c0,0,142.2,254.05,123.27,515.26l-99.75,29.01
			c0,0-36.02-340.83-179.58-508.61l-12.61-170.95l107.91-21.97l5.94-92.11L2184.32,1146.37z"/>
		<g>
			
				<linearGradient id="SVGID_8_" gradientUnits="userSpaceOnUse" x1="2085.3662" y1="1316.5769" x2="2225.0024" y2="1316.5769" gradientTransform="matrix(0.9997 0.0239 -0.0239 0.9997 -32.6619 -193.4588)">
				<stop  offset="0" style="stop-color:#371A4F"/>
				<stop  offset="0.151" style="stop-color:#3D1D57"/>
				<stop  offset="0.4544" style="stop-color:#44215F"/>
				<stop  offset="1" style="stop-color:#462261"/>
			</linearGradient>
			<path class="st31" d="M2036.57,1282.14c-0.79,0.18-1.84-0.91-3.09-3.17c-0.63-1.13-1.3-2.55-2.03-4.26
				c-0.72-1.71-1.4-3.71-2.16-5.97c-0.36-1.14-0.75-2.34-1.15-3.6c-0.35-1.28-0.71-2.62-1.09-4.01c-0.36-1.41-0.73-2.87-1.12-4.4
				c-0.37-1.53-0.69-3.13-1.04-4.79c-0.34-1.66-0.7-3.38-1.03-5.16c-0.29-1.79-0.6-3.63-0.91-5.52c-0.66-3.79-1.07-7.84-1.59-12.08
				c-0.83-8.5-1.4-17.87-1.38-27.94c0.05-10.07,0.63-20.85,1.94-32.12c1.3-11.27,3.36-23.03,6.24-35.06
				c2.94-12.02,6.88-24.93,14.19-37.17c3.67-6.11,8.19-11.79,13.42-16.62c5.22-4.85,11.31-8.87,17.98-11.57
				c3.34-1.32,6.79-2.42,10.34-2.91c0.88-0.15,1.76-0.31,2.63-0.43c0.88-0.06,1.76-0.12,2.64-0.18c0.88-0.04,1.75-0.13,2.62-0.13
				c0.87,0.03,1.73,0.06,2.6,0.1c6.91,0.32,13.4,2.06,19.18,4.57c5.79,2.52,10.92,5.81,15.42,9.46c1.1,0.95,2.24,1.83,3.26,2.82
				c1.02,0.99,2.03,1.97,3.04,2.94c0.94,1.03,1.87,2.06,2.79,3.07c0.92,1.01,1.72,2.12,2.57,3.16c3.27,4.24,6.04,8.75,8.15,13.1
				c2.12,4.38,3.85,8.69,5.2,12.87c2.69,8.35,4.11,16.05,5.01,22.78c0.87,6.74,1.19,12.53,1.3,17.25c0.19,9.45-0.4,14.65-1.34,14.74
				c-1,0.09-2.28-4.99-4.27-14.06c-1-4.53-2.21-10.05-3.89-16.31c-1.7-6.24-3.88-13.25-7.07-20.5c-3.24-7.21-7.44-14.77-13.41-21.24
				c-0.77-0.79-1.49-1.65-2.31-2.42c-0.82-0.77-1.64-1.55-2.47-2.33c-0.87-0.72-1.76-1.45-2.64-2.19c-0.89-0.73-1.86-1.36-2.78-2.06
				c-3.8-2.65-7.98-4.92-12.41-6.52c-4.42-1.6-9.09-2.51-13.73-2.46l-1.74,0.02c-0.58,0.03-1.15,0.14-1.72,0.19l-1.72,0.19
				l-1.69,0.38c-2.28,0.39-4.49,1.25-6.68,2.23c-8.77,4-16.55,11.94-22,21.59c-5.54,9.79-8.91,20.94-11.59,32.17
				c-2.66,11.3-4.71,22.35-6.19,32.93c-1.49,10.59-2.44,20.72-3.04,30.24c-0.57,9.52-0.72,18.42-0.76,26.56
				c0.08,4.07,0.02,7.96,0.17,11.63c0.04,1.84,0.08,3.63,0.12,5.36c0.07,1.73,0.14,3.42,0.2,5.04c0.06,1.63,0.11,3.2,0.16,4.72
				c0.07,1.52,0.14,2.97,0.21,4.37c0.05,1.4,0.09,2.75,0.13,4.03c0.06,1.28,0.11,2.5,0.16,3.66c0.09,2.32,0.08,4.4,0.09,6.21
				c0.01,1.81-0.04,3.35-0.16,4.62C2037.88,1280.52,2037.37,1281.96,2036.57,1282.14z"/>
		</g>
		<g>
			<path class="st17" d="M2493.72,1904.91l-106.12-550.28l-98.22-46.04c-5.5-2.58-7.87-9.13-5.29-14.63
				c2.58-5.5,9.13-7.87,14.63-5.29l108.36,50.79l1.06,5.5l102.77,532.92l463.8-117.03c5.89-1.48,11.87,2.08,13.36,7.97
				c1.48,5.89-2.08,11.87-7.97,13.35L2493.72,1904.91z"/>
		</g>
		
			<rect x="2333.29" y="1786.38" transform="matrix(0.3447 -0.9387 0.9387 0.3447 -93.37 3462.4824)" class="st17" width="199.95" height="23.46"/>
		<g>
			
				<ellipse transform="matrix(0.1222 -0.9925 0.9925 0.1222 239.9165 4103.6523)" class="st17" cx="2439.86" cy="1916.19" rx="62.57" ry="62.57"/>
			
				<ellipse transform="matrix(0.2898 -0.9571 0.9571 0.2898 -101.1445 3696.0869)" class="st32" cx="2439.86" cy="1916.19" rx="39.59" ry="39.59"/>
			
				<ellipse transform="matrix(0.9239 -0.3827 0.3827 0.9239 -547.5721 1079.5566)" class="st17" cx="2439.86" cy="1916.19" rx="19.06" ry="19.06"/>
		</g>
		<g>
			<path class="st26" d="M2348.22,1304.86c-1.01,1.03-2.32,2.2-3.93,3.5c-0.79,0.66-1.67,1.35-2.62,2.07
				c-0.95,0.7-2.02,1.35-3.14,2.07c-2.24,1.42-4.78,2.95-7.6,4.6c-2.86,1.57-6.06,3.04-9.5,4.71c-3.43,1.76-7.27,3.09-11.35,4.69
				c-4.06,1.69-8.49,2.93-13.18,4.35c-1.17,0.35-2.36,0.7-3.56,1.07c-1.22,0.34-2.45,0.59-3.7,0.88c-2.51,0.57-5.09,1.16-7.7,1.75
				c-2.64,0.66-5.35,0.97-8.14,1.44c-2.77,0.41-5.62,0.91-8.53,1.25c-2.92,0.25-5.9,0.51-8.92,0.78c-1.52,0.1-3.06,0.26-4.62,0.34
				c-1.54,0.03-3.11,0.06-4.68,0.09c-3.15,0.03-6.38,0.15-9.63,0.07c-3.27-0.16-6.58-0.34-9.94-0.51
				c-3.39-0.12-6.76-0.63-10.21-1.03c-3.45-0.45-6.98-0.79-10.47-1.55c-3.52-0.69-7.07-1.41-10.66-2.11
				c-3.56-0.97-7.16-1.95-10.78-2.93c-14.43-4.31-29.15-10.44-43.38-18.77c-14.12-8.49-26.81-18.61-37.76-29.62
				c-2.68-2.8-5.32-5.6-7.92-8.4c-2.42-2.93-4.79-5.87-7.13-8.78c-2.39-2.87-4.4-5.97-6.47-8.96c-2.04-3.02-4.14-5.97-5.84-9.08
				c-1.79-3.08-3.52-6.14-5.18-9.16c-1.6-3.08-2.99-6.19-4.4-9.24c-0.69-1.54-1.38-3.05-2.05-4.56c-0.65-1.52-1.19-3.08-1.76-4.6
				c-0.98-2.65-1.91-5.28-2.8-7.87c26.18-5.88,50.11-21.48,66.13-42.99c0.38,0.79,0.76,1.6,1.13,2.42c0.73,1.82,1.79,3.59,2.68,5.43
				c0.88,1.85,1.79,3.71,2.7,5.62c1.03,1.85,2.02,3.74,2.99,5.67c0.5,0.97,0.95,1.96,1.47,2.93c0.54,0.95,1.1,1.91,1.66,2.87
				c1.1,1.94,2.1,3.96,3.23,5.94c1.2,1.95,2.39,3.93,3.55,5.97c1.1,2.07,2.49,3.97,3.75,6.01c1.32,1.99,2.48,4.14,3.96,6.07
				c1.42,1.98,2.82,4.02,4.19,6.1c1.54,1.95,3.06,3.94,4.59,6c6.28,7.98,13.27,15.87,21.22,23.33c8.05,7.3,16.79,13.87,25.94,19.64
				c2.32,1.41,4.63,2.8,6.92,4.18c2.39,1.25,4.75,2.48,7.1,3.7c2.33,1.33,4.77,2.29,7.16,3.4c2.41,1.06,4.75,2.27,7.2,3.11
				c2.42,0.92,4.82,1.86,7.2,2.77c2.41,0.85,4.81,1.54,7.2,2.33l3.56,1.14c1.19,0.35,2.38,0.62,3.55,0.92
				c2.39,0.62,4.74,1.22,7.04,1.8c2.33,0.53,4.63,0.91,6.91,1.36c2.27,0.41,4.55,0.98,6.76,1.2c2.23,0.29,4.41,0.59,6.55,0.87
				c1.09,0.13,2.16,0.32,3.21,0.41c1.07,0.07,2.11,0.15,3.14,0.23c4.15,0.28,8.2,0.7,11.98,0.65c3.78,0,7.46,0.25,10.84,0
				c3.39-0.16,6.61-0.21,9.56-0.38c2.93-0.28,5.66-0.5,8.14-0.66c1.23-0.09,2.43-0.12,3.53-0.22c1.1-0.12,2.13-0.22,3.11-0.29
				c1.94-0.16,3.62-0.23,5.04-0.19c2.82,0.06,4.55,0.54,5.02,1.57C2351.06,1301.26,2350.24,1302.78,2348.22,1304.86z"/>
		</g>
		<path class="st26" d="M2322.47,1305.03c7.13-12.83,24.15-19.14,37.92-14.06c13.77,5.08,22.61,20.93,19.69,35.32
			C2359.02,1328.61,2337.86,1319.59,2322.47,1305.03z"/>
		<path class="st16" d="M2370.87,1278.89c16.87-8.77,38.08-8.6,54.8,0.45c4.66,2.52,9.05,5.75,12.14,10.06s4.78,9.79,3.79,14.99
			C2415.85,1307.17,2389.36,1297.01,2370.87,1278.89z"/>
		<linearGradient id="SVGID_9_" gradientUnits="userSpaceOnUse" x1="2065.3823" y1="953.0454" x2="2184.9778" y2="847.6034">
			<stop  offset="0" style="stop-color:#C5205C"/>
			<stop  offset="0.0635" style="stop-color:#D0275F"/>
			<stop  offset="0.2122" style="stop-color:#E33465"/>
			<stop  offset="0.3849" style="stop-color:#F13D69"/>
			<stop  offset="0.6013" style="stop-color:#F9426B"/>
			<stop  offset="1" style="stop-color:#FB446C"/>
		</linearGradient>
		<path class="st33" d="M2073.13,967.54c10.33-11.92,15.98-27.79,15.49-43.55c13.24,11.22,33.02,14.22,49.56,8.97
			c16.54-5.25,29.73-20.59,31.28-37.87c0.42-4.67,0.01-9.52-2.01-13.76c-2.01-4.24-5.79-7.78-10.38-8.75
			c-4.88-1.03-9.97,0.92-14.01,3.85c-4.04,2.93-7.28,6.79-10.86,10.27c-14.89,14.48-36.1,22.22-56.82,20.72
			c-5.85-0.42-12.48-1.31-16.89,2.56c-2.83,2.48-3.97,6.46-3.85,10.22c0.13,3.76,1.36,7.39,2.62,10.93
			C2061.68,943.52,2067.86,955.49,2073.13,967.54z"/>
		<path class="st26" d="M2081.85,967.48c-1.49-1.96-3.1-3.87-5.14-5.25c-2.04-1.38-4.56-2.18-6.98-1.73
			c-3.15,0.6-5.6,3.23-6.89,6.17c-2.46,5.59-1.19,12.6,3.07,16.98c4.26,4.37,11.24,5.83,16.89,3.53
			C2081.57,980.53,2081.61,974.24,2081.85,967.48z"/>
		<path class="st5" d="M2146,965.63c-4.15-2.45-8.86-3.82-13.7-3.57c-4.74,0.25-9.31,2.01-13.36,4.47
			c-6.12,3.74-11.14,9.21-14.48,15.56c-2.75-1.32-5.72-2.91-8.75-4.81c-11.58-7.14-18.82-15.67-19.19-15.31
			c-0.14,0.12,1.47,2.4,4.61,5.64c3.13,3.24,7.89,7.35,13.75,11c3.07,1.91,6.11,3.48,8.94,4.76c-1.41,2.92-2.48,6.01-3.13,9.19
			c-1.63,7.95-0.64,16.34,2.55,23.79c-3.32-1.58-6.87-3.98-9.99-7.3c-4.77-5.08-7.8-10.77-9.89-14.86c-2.08-4.13-3.28-6.75-3.5-6.66
			c-0.18,0.08,0.65,2.84,2.49,7.13c1.86,4.26,4.78,10.18,9.75,15.47c4,4.25,8.75,6.98,12.89,8.34c4.22,2.15,8.78,3.57,13.52,4.04
			c13.81,1.34,28.65-6.6,33.26-19.69C2156.08,990.68,2151.41,977.4,2146,965.63z"/>
	</g>
</g>
</svg>
