<?xml version="1.0" encoding="utf-8"?>
<!-- Generator: Adobe Illustrator 24.2.3, SVG Export Plug-In . SVG Version: 6.00 Build 0)  -->
<svg version="1.1" id="Layer_1" xmlns="http://www.w3.org/2000/svg" xmlns:xlink="http://www.w3.org/1999/xlink" x="0px" y="0px"
	 viewBox="0 0 555.4 631.7" style="enable-background:new 0 0 555.4 631.7;" xml:space="preserve">
<style type="text/css">
	.st0{fill:#FFFFFF;}
	.st1{fill:#444444;}
	.st2{fill:#D5F2F8;}
</style>
<g id="_x31__1_">
</g>
<g id="_x32__1_">
	<g>
		<g>
			<g>
				<path class="st0" d="M430.6,446.2v-50.8c0-12.5,10.1-22.6,22.6-22.6H531c12.5,0,22.6,10.1,22.6,22.6v50.8
					c0,12.5-10.1,22.6-22.6,22.6h-77.8C440.7,468.8,430.6,458.7,430.6,446.2z"/>
				<g>
					<path class="st1" d="M513.8,374.2c10.6,0,21.2-0.9,29.4,7c6.8,6.6,7.4,14.7,7.4,23.4c0,9.2,0,18.4,0,27.6
						c0,6.9,0.9,14.6-1.8,21.2c-3.4,8.4-11.4,14.1-20.8,14.3c-4.1,0.1-8.1,0-12.2,0c-1.7,0-5.4,2.5-2,2.5c10.5,0,21,0.8,30.1-5.4
						c9.2-6.3,11.7-15.5,11.7-25.8s0-20.6,0-31c0-9,0.7-17.9-5.2-25.6c-8.6-11.2-21.7-10.6-34.6-10.6
						C514.1,371.7,510.5,374.2,513.8,374.2L513.8,374.2z"/>
				</g>
			</g>
			<g>
				<path class="st0" d="M430.6,327.2v-50.8c0-12.5,10.1-22.6,22.6-22.6H531c12.5,0,22.6,10.1,22.6,22.6v50.8
					c0,12.5-10.1,22.6-22.6,22.6h-77.8C440.7,349.8,430.6,339.7,430.6,327.2z"/>
				<g>
					<path class="st1" d="M513.8,255c10.6,0,21.2-0.9,29.4,7c6.8,6.6,7.4,14.7,7.4,23.4c0,9.2,0,18.4,0,27.6
						c0,6.9,0.9,14.6-1.8,21.2c-3.4,8.4-11.4,14.1-20.8,14.3c-4.1,0.1-8.1,0-12.2,0c-1.7,0-5.4,2.5-2,2.5c10.5,0,21,0.8,30.1-5.4
						c9.2-6.3,11.7-15.5,11.7-25.8s0-20.6,0-31c0-9,0.7-17.9-5.2-25.6c-8.6-11.2-21.7-10.6-34.6-10.6
						C514.1,252.5,510.5,255,513.8,255L513.8,255z"/>
				</g>
			</g>
			<g>
				<path class="st0" d="M430.6,199.2v-50.8c0-12.5,10.1-22.6,22.6-22.6H531c12.5,0,22.6,10.1,22.6,22.6v50.8
					c0,12.5-10.1,22.6-22.6,22.6h-77.8C440.7,221.8,430.6,211.7,430.6,199.2z"/>
				<g>
					<path class="st1" d="M513.8,127.3c10.6,0,21.2-0.9,29.4,7c6.8,6.6,7.4,14.7,7.4,23.4c0,9.2,0,18.4,0,27.6
						c0,6.9,0.9,14.6-1.8,21.2c-3.4,8.4-11.4,14.1-20.8,14.3c-4.1,0.1-8.1,0-12.2,0c-1.7,0-5.4,2.5-2,2.5c10.5,0,21,0.8,30.1-5.4
						c9.2-6.3,11.7-15.5,11.7-25.8s0-20.6,0-31c0-9,0.7-17.9-5.2-25.6c-8.6-11.2-21.7-10.6-34.6-10.6
						C514.1,124.8,510.5,127.3,513.8,127.3L513.8,127.3z"/>
				</g>
			</g>
			<path class="st0" d="M491.9,630.4h-462c-6.7,0-12.2-5.5-12.2-12.2V13.5c0-6.7,5.5-12.2,12.2-12.2h462c6.7,0,12.2,5.5,12.2,12.2
				v604.6C504.1,624.9,498.7,630.4,491.9,630.4z"/>
			<g>
				<path class="st1" d="M20.1,459.3c0-32.4,0-64.7,0-97.1c0-51.1,0-102.3,0-153.4c0-11.7,0-23.4,0-35.1c0-1.4-4.8-0.5-4.8,1.3
					c0,32.4,0,64.7,0,97.1c0,51.1,0,102.3,0,153.4c0,11.7,0,23.4,0,35.1C15.3,461.9,20.1,461.1,20.1,459.3L20.1,459.3z"/>
			</g>
			<g>
				<path class="st1" d="M20.1,149c0-32.7,0-65.4,0-98.2c0-12.1-0.6-24.4,0-36.5S30.2,2.6,38.7,2.6c25.4,0,50.7,0,76.1,0
					c40.7,0,81.5,0,122.2,0c43,0,86,0,129.1,0c32.2,0,64.4,0,96.7,0c7.8,0,15.6,0,23.5,0c1.1,0,2.3-0.1,3.4,0
					c7.6,0.4,12,6.6,12.1,13.8c0.2,15,0,30.1,0,45.1c0,32.3,0,64.6,0,96.9c0,42,0,84.1,0,126.1c0,43.8,0,87.5,0,131.3
					c0,38,0,76.1,0,114.1c0,24.3,0,48.6,0,72.9c0,4.7,0.1,9.3,0,14c-0.2,6.2-3.6,11.8-10.4,12.3c-1.5,0.1-3,0-4.5,0
					c-22.9,0-45.7,0-68.6,0c-39.9,0-79.7,0-119.6,0c-43.4,0-86.8,0-130.2,0c-33.9,0-67.8,0-101.7,0c-9.3,0-18.6,0-28,0
					c-2,0-3.9,0.1-5.9,0c-7.5-0.2-12.5-5.8-12.8-13.2c-0.5-12.8,0-25.7,0-38.5c0-21.2,0-42.5,0-63.7c0-10.7,0-21.4,0-32.2
					c0-1.4-4.8-0.5-4.8,1.3c0,33.5,0,66.9,0,100.4c0,11.6-0.7,23.5,0,35c0.6,8.4,7.6,13.3,15.6,13.5c1.9,0,3.8,0,5.8,0
					c24.7,0,49.5,0,74.2,0c41.2,0,82.5,0,123.7,0c43.8,0,87.7,0,131.5,0c32.5,0,65.1,0,97.6,0c7.7,0,15.4,0,23,0
					c9.8,0,19.6-4.5,19.8-15.8c0.3-14.3,0-28.6,0-42.9c0-32.4,0-64.7,0-97.1c0-42.7,0-85.5,0-128.2c0-44.5,0-89.1,0-133.6
					c0-38.4,0-76.7,0-115.1c0-24,0-48.1,0-72.1c0-4.1,0.2-8.2,0-12.3c-0.3-8.5-6.8-14.1-15-14.4c-1.3,0-2.7,0-4,0
					c-22.8,0-45.7,0-68.5,0c-40.4,0-80.9,0-121.3,0c-44.3,0-88.6,0-132.9,0C131.1,0,97.3,0,63.5,0c-8.8,0-17.6,0-26.4,0
					c-1.6,0-3.1,0-4.7,0c-9,0.2-16.7,6.1-17.1,15.5c-0.4,12.1,0,24.4,0,36.5c0,21.7,0,43.4,0,65.1c0,11,0,22,0,33
					C15.3,151.6,20.1,150.7,20.1,149L20.1,149z"/>
			</g>
			<circle class="st2" cx="267.6" cy="295.8" r="145.3"/>
			<g>
				<g>
					<path class="st1" d="M162,249.1c23.6,0,47.2,0,70.8,0c37.6,0,75.2,0,112.8,0c8.6,0,17.2,0,25.7,0c2.1,0,5-3.2,1.8-3.2
						c-23.6,0-47.2,0-70.8,0c-37.6,0-75.2,0-112.8,0c-8.6,0-17.2,0-25.7,0C161.7,246,158.8,249.1,162,249.1L162,249.1z"/>
				</g>
				<g>
					<path class="st1" d="M162.7,297.5c23.6,0,47.2,0,70.8,0c37.6,0,75.2,0,112.8,0c8.6,0,17.2,0,25.7,0c2.7,0,3.8-3.3,0.5-3.3
						c-23.6,0-47.2,0-70.8,0c-37.6,0-75.2,0-112.8,0c-8.6,0-17.2,0-25.7,0C160.5,294.2,159.4,297.5,162.7,297.5L162.7,297.5z"/>
				</g>
				<g>
					<path class="st1" d="M162,345.7c23.6,0,47.2,0,70.8,0c37.6,0,75.2,0,112.8,0c8.6,0,17.2,0,25.7,0c2,0,5-3.1,1.8-3.1
						c-23.6,0-47.2,0-70.8,0c-37.6,0-75.2,0-112.8,0c-8.6,0-17.2,0-25.7,0C161.8,342.6,158.8,345.7,162,345.7L162,345.7z"/>
				</g>
			</g>
			<g>
				<g>
					<path class="st1" d="M54.6,155.5c5.2-8.3,16.1-3,16.1,5.6c0,9.8-11.2,11.6-16,4c-1-1.5-5.7,0.1-4.5,2
						c6.8,10.6,25.4,6.3,25.4-6.9c0-14.2-19.1-15.4-25.5-5C48.8,157.3,53.7,157,54.6,155.5L54.6,155.5z"/>
				</g>
				<g>
					<path class="st1" d="M54.7,465.7c5.2-8.2,16-2.9,16,5.7c0,9.9-11.4,11.6-16.1,3.8c-0.9-1.6-5.6,0.1-4.5,2
						c6.6,10.9,25.6,6.6,25.5-6.7c0-14.2-19-15.3-25.4-5.1C48.8,467.5,53.7,467.2,54.7,465.7L54.7,465.7z"/>
				</g>
			</g>
			<g>
				<path class="st1" d="M2.1,472.7c18.3,0,36.6,0,54.9,0c2.7,0,3.7-3.4,0.5-3.4c-18.3,0-36.6,0-54.9,0
					C-0.2,469.3-1.2,472.7,2.1,472.7L2.1,472.7z"/>
			</g>
			<g>
				<path class="st1" d="M2.1,162.4c18.3,0,36.6,0,54.9,0c2.7,0,3.7-3.4,0.5-3.4c-18.3,0-36.6,0-54.9,0
					C-0.2,159-1.2,162.4,2.1,162.4L2.1,162.4z"/>
			</g>
		</g>
	</g>
</g>
</svg>
