<?xml version="1.0" encoding="utf-8"?>
<!-- Generator: Adobe Illustrator 24.3.0, SVG Export Plug-In . SVG Version: 6.00 Build 0)  -->
<svg version="1.1" id="Layer_1" xmlns="http://www.w3.org/2000/svg" xmlns:xlink="http://www.w3.org/1999/xlink" x="0px" y="0px"
	 viewBox="0 0 1200 1200" style="enable-background:new 0 0 1200 1200;" xml:space="preserve">
<style type="text/css">
	.st0{fill:#E5E5E5;}
	.st1{fill:#FFFFFF;}
	.st2{fill:#444444;}
	.st3{fill:#F9F9F9;}
	.st4{fill:#FFEFD4;}
	.st5{opacity:0.5;}
	.st6{fill:#F8AF07;}
	.st7{opacity:0.3;}
</style>
<g id="Ñëîé_2">
	<g>
		<path class="st0" d="M423.8,901.7c-5.8-1.3-8.1-2.9-5.8-4.7c16.4-12.7,100-12.2,140.5-12.1c51,0.1,104-0.2,150.4,3
			c19.4,1.3,63.2,2.6,71.4,6.9c21.5,11.4-116.8,14.3-139.3,14.4C603.6,909.4,456.9,909.3,423.8,901.7z"/>
		<g>
			<path class="st1" d="M296.3,1047.2c37.4-44.9,71.8-86.3,72.2-86.6c22.2-19.3,45.9-36.8,69.3-54.5c15.6-11.9,28-27.5,36.1-45.4
				c8.8-19.6,17.6-40.5,23.7-61.2c1.9-6.5,6.5-16.8,5.7-23.6c-0.7-6.5-8.7-14.1-13.4-18.4c-6.6-6.2-14.2-11.2-21.9-15.8
				c-8.2-4.9-10.1-5.7-10.9-15.3c-2-23.3,0.2-47.7,0.3-71.1c0.1-23.4,2.7-63.8,3.2-104.7l29.2-59.5c9.7-19.8,9.7-40.7-5.5-56.7
				c-10.9-11.4-27.8-6.5-35.7-2.4c-29,15.1-47.1,41.5-65.5,68c-13.8,19.8-27.5,39.7-41.3,59.5c-11.1,16-24.4,31.1-31.6,49.5
				c-8,20.4-10.6,42.6-13.4,64.1c-4,31.5-6.5,63.1-9.4,94.8c-1.4,16.4-3.3,32.7-5,49c-1.2,11.7-1.9,23.7-6.6,34.7
				c-6.1,14.3-16.7,26.1-26.6,38c-1.7,2-39.2,40.5-75.7,77.8L296.3,1047.2z"/>
			<g>
				<path class="st2" d="M311.4,1032.1c13.7-16.4,27.3-32.8,41-49.2c6-7.2,11.6-14.9,18.1-21.6c7.8-8,17.5-14.7,26.3-21.6
					c9.3-7.3,18.7-14.5,28.1-21.6c16.2-12.3,31.6-24.1,42.8-41.4c6.7-10.3,11.4-21.8,16.1-33.1c5-11.9,9.7-23.9,13.7-36.1
					c0.7-2.1-4.2-1.5-4.9,0.4c-3.7,11.4-8.1,22.5-12.7,33.5c-4.2,9.9-8.2,20-13.5,29.3c-5,8.8-11.2,16.9-18.3,24.1
					c-7.8,7.8-16.8,14.1-25.6,20.8c-18.4,13.9-36.7,27.8-54.1,42.9c-6.3,5.5-11.3,12.9-16.7,19.3c-14.8,17.7-29.5,35.5-44.3,53.2
					C305.5,1033.2,310.1,1033.7,311.4,1032.1L311.4,1032.1z"/>
			</g>
			<g>
				<path class="st2" d="M420.5,450.8c-14.6,13.7-26.1,30.1-37.5,46.5c-12.1,17.3-24.1,34.7-36.1,52.1
					c-10.7,15.4-22.8,30.1-32.2,46.2c-10,17.3-14.4,36.9-17.3,56.4c-6.3,41.9-9.2,84.1-13.2,126.3c-1,10.8-2.2,21.6-3.4,32.4
					c-1,9.9-1.6,20-3.7,29.7c-4.1,19.1-17,34.4-29.5,48.9c-6.9,7.9-14.5,15.2-21.8,22.7c-15.5,15.9-31,31.8-46.5,47.6
					c-1.2,1.2,3.5,0.7,4.4-0.2c22.2-22.7,44.6-45.1,66.4-68.2c9.8-10.4,19.5-22.3,26-35.1c9.1-17.8,8.8-39.5,10.9-59
					c4.5-42.6,7.3-85.3,12.8-127.8c2.5-19.9,5.1-40,12.2-58.8c6.9-18.2,19.5-33.1,30.6-48.8c13.7-19.3,27-38.9,40.6-58.4
					c12.8-18.4,25.4-37.2,41.8-52.7C426.1,449.5,421.4,449.9,420.5,450.8L420.5,450.8z"/>
			</g>
		</g>
		<g>
			<path class="st1" d="M470.9,202.3h253.4c23.1,0,41.8,19,41.8,42.5v515c0,23.5-18.7,42.5-41.8,42.5H470.9
				c-23.1,0-41.8-19-41.8-42.5v-515C429.1,221.4,447.8,202.3,470.9,202.3z"/>
			<g>
				<path class="st2" d="M763.7,587.7c0,10.5,0,21,0,31.6c0,0.7,4.8,0.1,4.8-1.3c0-10.5,0-21,0-31.6
					C768.5,585.7,763.7,586.4,763.7,587.7L763.7,587.7z"/>
			</g>
			<g>
				<path class="st2" d="M431.5,527.7c0-15,0-30,0-45c0-33.1,0-66.1,0-99.2c0-32.5,0-65,0-97.5c0-10.4,0-20.9,0-31.3
					c0-5.7-0.3-11.6,0.6-17.2c3.1-19.4,19.1-34,38.8-34.1c7.3,0,14.6,0,21.9,0c30.6,0,61.2,0,91.8,0c33,0,66.1,0,99.1,0
					c10.3,0,20.7,0,31,0c9.4,0,18.4,0.2,27.1,4.9c15.4,8.4,21.9,24.1,21.9,40.9c0,12.1,0,24.3,0,36.4c0,30.7,0,61.3,0,92
					c0,2.1,0,4.1,0,6.2c0,0.7,4.8,0.1,4.8-1.3c0-25,0-50,0-75c0-15.9,0-31.9,0-47.8c0-10.4,0.9-21.3-3-31.2
					c-6.7-16.8-22.9-26.8-40.6-26.9c-7,0-13.9,0-20.9,0c-31.1,0-62.2,0-93.3,0c-33.6,0-67.3,0-100.9,0c-10.2,0-20.3,0-30.5,0
					c-9.1,0-18,0.4-26.5,4.3c-16.2,7.3-25.9,23.2-26,40.8c0,6.3,0,12.7,0,19c0,29.4,0,58.8,0,88.2c0,35.4,0,70.9,0,106.3
					c0,21.9,0,43.9,0,65.8c0,1.1,0,2.2,0,3.3C426.7,529.7,431.5,529,431.5,527.7L431.5,527.7z"/>
			</g>
			<g>
				<path class="st2" d="M723.9,801.4c-36.9,0-73.8,0-110.8,0c-45.3,0-90.6,0-135.8,0c-10.4,0-20.2-1.6-28.8-8.1
					c-8.8-6.6-14.7-16.4-16.4-27.2c-1-6.4-0.5-13.2-0.5-19.6c0-0.7-4.8-0.1-4.8,1.3c0,5.2-0.2,10.4,0.1,15.5
					c0.6,9.4,4.3,18.4,10.5,25.5c8.5,9.7,20.5,14.5,33.2,14.5c14.9,0.1,29.8,0,44.7,0c54.3,0,108.6,0,162.9,0c14.2,0,28.5,0,42.7,0
					C721.8,803.3,726.2,801.4,723.9,801.4L723.9,801.4z"/>
			</g>
			<rect x="447.8" y="273.5" class="st3" width="299.6" height="451.5"/>
			<rect x="448.8" y="273.5" class="st4" width="299.6" height="451.6"/>
			<g>
				<path class="st2" d="M445.4,699.6c0,8.7,0,17.4,0,26.1c0,0.5,1.1,0.6,1.4,0.6c33.9,0,67.8,0,101.7,0c53.6,0,107.2,0,160.9,0
					c12.4,0,24.8,0,37.1,0c1,0,3.4-0.5,3.4-1.8c0-8.6,0-17.2,0-25.7c0-1.2-4.8-0.4-4.8,1.3c0,8.6,0,17.2,0,25.7
					c1.1-0.6,2.3-1.2,3.4-1.8c-33.9,0-67.8,0-101.7,0c-53.6,0-107.2,0-160.9,0c-12.4,0-24.8,0-37.1,0c0.5,0.2,1,0.4,1.4,0.6
					c0-8.7,0-17.4,0-26.1C450.2,697.2,445.4,698,445.4,699.6L445.4,699.6z"/>
			</g>
			<g>
				<path class="st2" d="M749.8,372.4c0-29.1,0-58.1,0-87.2c0-4.1,0-8.2,0-12.3c0-0.5-1.1-0.6-1.4-0.6c-33.9,0-67.8,0-101.7,0
					c-53.6,0-107.2,0-160.9,0c-12.4,0-24.8,0-37.1,0c-1,0-3.4,0.5-3.4,1.8c0,29.1,0,58.2,0,87.4c0,46.4,0,92.7,0,139.1
					c0,10.6,0,21.2,0,31.7c0,1.2,4.8,0.4,4.8-1.3c0-29.1,0-58.2,0-87.4c0-46.4,0-92.7,0-139.1c0-10.6,0-21.2,0-31.7
					c-1.1,0.6-2.3,1.2-3.4,1.8c33.9,0,67.8,0,101.7,0c53.6,0,107.2,0,160.9,0c12.4,0,24.8,0,37.1,0c-0.5-0.2-1-0.4-1.4-0.6
					c0,29.1,0,58.1,0,87.2c0,4.1,0,8.2,0,12.3C745,374.8,749.8,374,749.8,372.4L749.8,372.4z"/>
			</g>
			<g>
				<g>
					<path class="st2" d="M568.8,245c10.2,0,20.4,0,30.7,0c6.5,0,13,0,19.5,0c3.3,0,7.4,0.6,10.5-0.7c7-2.8,7.3-13.1-0.5-15
						c-3-0.7-6.6-0.3-9.6-0.3c-13.6,0-27.2,0-40.8,0c-3.7,0-8.2-0.7-11.8,0.4c-8.9,2.7-7.8,14.6,1.4,15.5c2.4,0.2,4.9-3.2,1.7-3.5
						c-4.9-0.5-6.6-7.6-0.8-8.8c0.9-0.2,2,0,2.8,0c4.3,0,8.7,0,13,0c11,0,22,0,33,0c2.5,0,5.5-0.4,8,0c4.5,0.7,6.1,7.6,0.6,8.8
						c-0.6,0.1-1.5,0-2.1,0c-9.7,0-19.3,0-29,0c-8.7,0-17.4,0-26.2,0C566.5,241.5,565.6,245,568.8,245z"/>
				</g>
				<g>
					<path class="st2" d="M534.9,244.4c4.2,0,9.1-2.5,9.6-7c0.6-4.4-3-7.6-7.2-7.7c-4-0.1-8.9,2.1-9.8,6.3c-1,4.5,2.5,8.1,6.9,8.3
						c1.1,0.1,2.6-0.1,3.4-0.9c0.6-0.6,0.7-1.3-0.4-1.3c-2.5-0.1-4.6-1.9-5.1-4.4c-0.4-1.9,0.3-5.7,2.7-5.8s4.3,2.6,4.6,4.7
						c0.3,1.7-0.4,5.5-2.8,5.5C535.4,242.1,531.7,244.4,534.9,244.4z"/>
				</g>
				<g>
					<path class="st2" d="M583.5,779.6c8.4,0,16.8,0,25.1,0c10.2,0,20.3-6.6,18.4-18.1c-1-6.2-6-11-12.1-12.2
						c-3.4-0.6-7.1-0.3-10.5-0.3c-5.3,0-10.6,0-15.9,0c-3.8,0-7.6-0.2-11.2,1.4c-15,6.6-10.7,28.4,5.5,29.2c2.4,0.1,4.9-3.5,1.6-3.6
						c-8.8-0.4-14.7-9.8-10.2-17.8c3-5.3,8-5.5,13.2-5.5c8,0,16.2-0.7,24.1,0c8.5,0.8,13.4,10.4,9.3,17.8c-3,5.3-8,5.5-13.2,5.5
						c-7.9,0-15.9,0-23.8,0C581.1,775.9,580.3,779.6,583.5,779.6z"/>
				</g>
			</g>
		</g>
		<g>
			<circle class="st4" cx="668.8" cy="485.4" r="131.9"/>
			<g class="st5">
				<circle class="st1" cx="668.8" cy="485.4" r="131.9"/>
			</g>
			<path class="st1" d="M668,513.8H493c-14.9,0-27-12.1-27-27l0,0c0-14.9,12.1-27,27-27h175c14.9,0,27,12.1,27,27l0,0
				C695,501.7,682.9,513.8,668,513.8z"/>
			<g>
				<path class="st2" d="M532.6,512.2c-7.6,0-15.2,0-22.8,0c-8.1,0-18,1.3-25.6-2c-14.8-6.3-20.3-25.2-11.3-38.4
					c7.1-10.5,17.9-10.5,29.1-10.5c9,0,18.1,0,27.1,0c2,0,5-3.1,1.8-3.1c-9.2,0-18.4,0-27.6,0c-10.6,0-20.8-0.1-29.5,7.2
					c-11.7,9.8-13.7,27.7-3.9,39.5c7.8,9.5,18.6,10.4,30,10.4c10.3,0,20.6,0,30.9,0C532.8,515.3,535.8,512.2,532.6,512.2
					L532.6,512.2z"/>
			</g>
			<path class="st1" d="M703.3,536.8H548.6c0,0-9.9-13.8-9.9-30.7c0,0-2.4-22.9-1.4-30.4c6.4-49,13.2-38.9,16.9-38.9h149.1
				c13.6,0,24.7,12,24.7,26.9v46.2C728,524.7,716.9,536.8,703.3,536.8z"/>
			<g>
				<path class="st2" d="M554,438.1c23.8,0,47.7,0,71.5,0c24.5,0,49-0.7,73.5,0c12.6,0.3,23.3,9.6,25.3,22.2
					c0.9,5.6,0.3,11.7,0.3,17.4c0,8.4,0,16.9,0,25.3c0,7.5,0.1,14.6-4.1,21.3c-7.7,12.1-20,11.2-32.3,11.2c-15,0-30,0-45,0
					c-28,0-56-0.2-84,0c-0.5,0-1.1,0-1.6,0c-1.8,0-5.1,2.6-1.9,2.6c25.7,0,51.4,0,77.2,0c16.4,0,32.9,0,49.3,0
					c9.2,0,19.9,1.2,28.7-2.3c10.9-4.3,18.3-14.6,18.6-26.4c0.1-5.3,0-10.6,0-15.9c0-8.5,0-17,0-25.5c0-7.9-0.8-15.3-5.9-21.9
					c-8.4-10.7-20.4-10.7-32.5-10.7c-14.9,0-29.8,0-44.7,0c-29.5,0-59.1-0.2-88.6,0c-0.6,0-1.1,0-1.7,0
					C554.2,435.5,550.8,438.1,554,438.1L554,438.1z"/>
			</g>
			<g>
				<path class="st6" d="M700,536.8h-83v-100h83c14.9,0,27,12.1,27,27v46C727,524.7,714.9,536.8,700,536.8z"/>
				<g>
					<path class="st2" d="M700.9,535.2c-27.7,0-55.3,0-83,0c0.5,0.4,1,0.9,1.5,1.3c0-29.2,0-58.4,0-87.6c0-4.1,0-8.3,0-12.4
						c-1.1,0.6-2.2,1.2-3.3,1.8c24.1,0,48.2,0,72.4,0c3.5,0,6.9-0.1,10.4,0c10.3,0.2,19.5,6,23.6,15.6c2.3,5.5,2.1,11.3,2.1,17.1
						c0,7.5,0,14.9,0,22.4c0,5.5,0.1,11,0,16.5c-0.3,13.8-10.3,24.9-24.3,25.2c-2.6,0.1-3.9,3.2-0.5,3.1
						c10.3-0.3,20.2-5.4,25.6-14.4c3.7-6.1,4.1-12.7,4.1-19.7c0-13.5,0.2-27.1,0-40.6c-0.3-17.7-14.5-28.4-31.2-28.4
						c-14.1,0-28.2,0-42.3,0c-12.7,0-25.3,0-38,0c-0.9,0-3.3,0.4-3.3,1.8c0,29.2,0,58.4,0,87.6c0,4.1,0,8.3,0,12.4
						c0,0.8,0.7,1.3,1.5,1.3c27.7,0,55.3,0,83,0C701.2,538.3,704.1,535.2,700.9,535.2z"/>
				</g>
			</g>
			<g>
				<path class="st2" d="M701.6,515l-18.5-21.9l0.9-1c3-3.7,5-8.2,5.4-13.3c1.1-13.2-8.8-24.9-22-26s-24.9,8.8-26,22s8.8,24.9,22,26
					c5.9,0.5,11.6-1.2,16.1-4.5l18.4,21.8c0.4,0.5,1,0.8,1.6,0.8c0.6,0.1,1.2-0.1,1.8-0.6C702.3,517.6,702.5,516.1,701.6,515z
					 M646.7,475.3c0.9-10.4,10-18.1,20.4-17.3c10.4,0.9,18.1,10,17.3,20.4c-0.9,10.4-10,18.1-20.4,17.3
					C653.5,494.8,645.8,485.7,646.7,475.3z"/>
				<g>
					<path class="st2" d="M703.8,514c-6.2-7.3-12.3-14.6-18.5-21.9c-0.1,0.5-0.2,1.1-0.2,1.6c16.3-17.2,1.2-44.5-21.4-42.5
						c-21.8,1.9-33.4,29.3-16.4,44.6c9.5,8.6,23.5,8.5,33.8,1.5c-1.3,0-2.5,0-3.8,0c4.9,5.8,9.8,11.5,14.6,17.3
						c1.4,1.7,3,4.4,5.1,5.4c3.7,1.8,8.9-1.6,7-5.8c-0.9-2-5.7-0.5-4.8,1.3c1.1,2.4,1,1.3,0.1,0.5c-0.8-0.8-1.4-1.7-2.2-2.6
						c-2.1-2.4-4.1-4.9-6.2-7.3c-3.1-3.6-6.1-7.3-9.2-10.9c-0.9-1.1-2.8-0.6-3.8,0c-10.7,7.2-24.9,3.4-31.2-7.7
						c-5.4-9.6-3.1-22.4,5.7-29.1c9.3-7.1,22.4-4.8,29.5,4.2c6.9,8.6,6.8,21.6-0.9,29.7c-0.4,0.4-0.7,1.1-0.2,1.6
						c6.2,7.3,12.3,14.6,18.5,21.9C700.7,517.6,705.3,515.8,703.8,514z"/>
					<path class="st2" d="M649.1,475.1c1.1-9.5,9.2-17.2,19.2-15.1c8.5,1.8,14.3,10.2,13.6,18.7c-0.7,9.2-8.8,16.6-18.1,15.2
						C654.6,492.6,648.7,484,649.1,475.1c0.1-2.3-4.8-1.5-4.9,0.4c-0.6,11.8,8.3,21.6,20.2,21.9c11,0.3,21.4-7.9,22.3-19.2
						c1-11.7-8.6-21.6-20.2-21.9c-11.3-0.3-21,8-22.3,19.2C643.9,477.8,648.9,477.1,649.1,475.1z"/>
				</g>
			</g>
			<g>
				<path class="st2" d="M539.5,508.6c13.8,0,27.6,0,41.3,0c2.1,0,5.4-0.6,6.3-2.9c0.8-2-0.7-3.7-2.8-3.7c-13.8,0-27.6,0-41.3,0
					c-2.1,0-5.4,0.6-6.3,2.9C535.8,507,537.4,508.6,539.5,508.6L539.5,508.6z"/>
			</g>
			<g>
				<path class="st2" d="M489.7,497c15.2,0,30.5,0,45.7,0c2.2,0,5-3.3,1.7-3.3c-15.2,0-30.5,0-45.7,0
					C489.3,493.7,486.5,497,489.7,497L489.7,497z"/>
			</g>
			<g>
				<path class="st2" d="M763.7,406.2c0,45.1,0,90.1,0,135.2c0,6.4,0,12.7,0,19.1c0,2.6,4.9,1.9,4.9-0.3c0-45.1,0-90.1,0-135.2
					c0-6.4,0-12.7,0-19.1C768.6,403.2,763.7,403.9,763.7,406.2L763.7,406.2z"/>
			</g>
			<g class="st7">
				
					<ellipse transform="matrix(0.7071 -0.7071 0.7071 0.7071 -147.3199 615.069)" class="st1" cx="668.8" cy="485.4" rx="131.9" ry="131.9"/>
			</g>
			<g>
				<path class="st2" d="M797.7,497.7c-5.2,53.6-43.4,100-95.8,113.8c-52.8,13.9-109.7-8.3-140.2-53.3
					c-30.4-44.9-29.5-105.8,2.4-149.7c32.2-44.3,90.1-63.7,142.4-47.5c50.7,15.8,87.5,62.7,91.3,115.6
					C798.4,483.6,798.3,490.7,797.7,497.7c-0.2,2.3,4.7,1.6,4.9-0.4c4.8-55.8-26.3-110.1-77.5-133.3c-50.7-23-111.9-11.7-151.3,27.5
					c-40.2,40-50.7,102.9-25.3,153.6c25,49.8,79.7,79.3,135.1,73c54.6-6.2,101.5-46.3,115.4-99.6c1.8-7,3-14.1,3.7-21.3
					C802.8,495,797.9,495.7,797.7,497.7z"/>
			</g>
		</g>
		<g>
			<path class="st1" d="M393.5,714.8v-142c0-21.5,15.8-38.9,35.3-38.9h0.3c19.5,0,35.3,17.4,35.3,38.9c0,19.7,0,39.3,0,59
				c0,52.5-0.7,105.2-3.6,157.6c-1,18.1-3.6,26.6-10.8,43.1c-9.8,22.3-23.3,41.2-39.4,60.4L393.5,714.8z"/>
			<g>
				<path class="st2" d="M396,687.2c0-38.2-0.5-76.5,0-114.8c0.2-18,12.5-37.4,32.3-37.3c10,0.1,19.2,5.2,25.3,13
					c6.8,8.5,8.5,18.6,8.5,29.2c0,55.7,0.3,111.4-1.6,167.1c-0.5,15.1-1.1,30.2-2,45.3c-0.7,11.6-2.5,22.5-6.7,33.4
					c-10,26-25.5,48.6-43.3,69.8c-1.3,1.5,3.5,1.1,4.5,0c16.4-19.6,31-40.3,41-63.9c4.1-9.7,7.3-19.5,8.6-30.1
					c1.7-14.3,1.8-28.9,2.4-43.3c2.2-57.9,2-115.8,2-173.7c0-11.5-0.1-22.1-6.4-32.1c-4.8-7.6-12.2-13.4-20.9-15.9
					c-16.9-4.7-35,3.7-43.3,18.8c-5,9.1-5.2,18.7-5.2,28.7c0,11.9,0,23.7,0,35.6c0,23.8,0,47.6,0,71.4
					C391.1,689.8,396,688.9,396,687.2L396,687.2z"/>
			</g>
			<g>
				<path class="st2" d="M375.2,723.2c9.3-5.9,16.4-16.8,20.8-26.7c0.4-1-4.2-0.6-4.8,0.8c-4.2,9.5-10.8,19.9-19.7,25.6
					C369.3,724.2,374.2,723.8,375.2,723.2L375.2,723.2z"/>
			</g>
			<g>
				<path class="st2" d="M432.2,605c-5.8,0-11.1-0.7-15.9-4.1c-5.4-3.9-8.9-10-9.5-16.6c-0.3-3.5-0.1-7.1-0.1-10.6
					c0-4.3-0.3-8.7,0.9-12.9c4-13.7,19.9-19,32.1-12.3c10.3,5.7,11.7,16,11.7,26.5c0,4.7,0.4,9.7-0.8,14.2
					c-2.3,8.8-9.7,15.5-19,15.8c-1.4,0-5.2,2.2-2.1,2.1c14.2-0.4,26.3-10.4,26.6-25.1c0.3-11.3,1.5-24-7.8-32.3
					c-9.1-8.2-25.2-8.1-35.3-1.6c-12,7.7-11.3,20.3-11.3,32.8c0,7,1.5,13.4,6.5,18.7c5.6,5.9,12.9,7.4,20.7,7.4
					C430.1,607.1,434.5,605,432.2,605z"/>
			</g>
		</g>
		<g>
			<g>
				<path class="st1" d="M876.4,942.6c3.7,3.7,7.6,7.4,11.2,11c10.7,10.9,15,25.9,24.4,37.8c5.9,7.5,11.1,15.6,15.6,24.1l39.3,45.1
					c0,0,126.3-94.5,127-94.9c-10.1-13.4-12.2-10.2-21.7-28.3c-3.8-7.3-7.8-13.3-8.5-21.5c-0.9-10.6,0-21.4-0.9-32.1
					c-1.3-15.7-3.9-31.2-7.7-46.5c-3.6-14.4-11.8-26.9-18.7-40.1c-3.2-6-3.2-6.8-9.2-7c-4.8-0.2-9.8,0.3-14.5,0.7
					c-10.1,0.8-20,2.3-29.8,4.4c-3.5,0.8-6.9,1.6-10.4,2.5c-24.8,6.6-48.9,17.1-70.3,31.4c-19,12.7-41.5,31.8-47.1,55.1
					c-2.7,11.3-0.1,24.1,4.2,34.6C862.9,928.2,869.4,935.6,876.4,942.6z"/>
				<g>
					<path class="st2" d="M1098,966.3c-9.7-10.6-19.9-21.3-26.4-34.4c-6.9-13.9-5.2-28.7-5.8-43.7c-0.6-16.3-3.4-32.7-7.2-48.5
						c-3.8-16-12.1-29.5-19.7-43.8c-0.6-1.2-5.2,0.6-4.8,1.3c7.6,14.3,16,27.9,19.7,43.8c3.9,16.4,6.8,33.5,7.2,50.4
						c0.2,8.2-0.2,16.4,0.5,24.6c0.7,7.1,3.2,13.8,6.6,20.1c6.6,11.9,16.1,22,25.2,31.9C1094.2,968.8,1098.7,967.1,1098,966.3
						L1098,966.3z"/>
				</g>
				<g>
					<path class="st2" d="M924.5,1016.4c14.9,16.2,29.7,32.5,44.3,48.9c1.1,1.2,5.7-0.5,4.5-1.9c-14.6-16.4-29.4-32.7-44.3-48.9
						C927.8,1013.3,923.2,1015.1,924.5,1016.4L924.5,1016.4z"/>
				</g>
			</g>
			<g>
				<path class="st1" d="M996.4,928.3c-2.3-3.4-4.5-6.9-6.8-10.4c-3.8-5.8-7.5-11.6-11.1-17.5c-11.1-17.8-25.1-29.8-45.9-35.3
					c-22.1-5.8-45.4-2.1-67.8-0.6c-10.2,0.7-22.2,0.3-32.8,2.5l-64.7-80.6c-11.4-14.1-32-16.4-46.2-5l-0.2,0.2
					c-14.1,11.3-16.4,32-5,46.1l76.5,95.2c2.8,4.4,6.7,7.8,10,11.5c2.9,3.2,5.8,6.1,8.7,9.2c3.1,3.2,6.3,6.4,9.6,9.4
					c8.7,8.2,21.7,12.6,32.5,17.8c13.7,6.7,27.2,12.7,41.4,17.4c12.6,4.2,23.3,17,31.7,26.7L996.4,928.3z"/>
				<g>
					<path class="st2" d="M834.2,865.9c-15.8-19.7-31.6-39.4-47.4-59c-5.8-7.2-11.4-14.5-17.3-21.6c-13.7-16.5-39-17.1-53.8-1.7
						c-12.6,13.1-12.1,32.5-1.1,46.3c6.7,8.4,13.5,16.9,20.3,25.3c17.8,22.1,35.5,44.3,53.3,66.4c3.8,4.7,7.7,9.3,11.9,13.8
						c9.7,10.4,19.2,21.3,32.1,27.9c12.7,6.5,26.1,12.5,39.2,18.2c7.4,3.2,14.9,5.8,22.4,8.6c6.6,2.5,12.3,7,17.4,11.9
						c4.8,4.6,9.1,9.6,13.4,14.7c1.4,1.6,6-0.3,4.4-2.1c-8-9.3-16.3-19.4-27.2-25.4c-5.7-3.1-12.1-4.6-18.1-7
						c-7.5-2.9-15-6.2-22.3-9.7c-11.8-5.5-24.9-10.1-35.4-18c-6.1-4.6-11.3-10.4-16.5-15.9c-5.2-5.4-10.4-10.8-15-16.8
						c-13.6-17.7-28-34.9-42-52.3c-8.8-11-17.6-22-26.5-33c-6.3-7.9-13.4-15.2-14.8-25.8c-1.6-12.5,4.5-25.1,15.5-31.3
						c10.7-6,24.2-4.5,33.7,3.2c6.9,5.6,12.2,14.1,17.6,20.9c17.2,21.5,34.5,42.9,51.7,64.4C831.1,869.7,835.7,867.8,834.2,865.9
						L834.2,865.9z"/>
				</g>
				<g>
					<path class="st2" d="M758.6,834.7c-3.9,3-7.5,6.5-12.7,6.7c-5.7,0.2-9.9-2.9-13.3-7.2c-4.4-5.6-9.1-11.2-13.3-17
						c-7.7-10.7-0.2-23.6,11.1-27.7c11.1-4,17.5,7,23.2,14.3c2.4,3,4.9,6,7.1,9.1C765.8,819.8,765.2,829,758.6,834.7
						c-2.5,2.1,1.4,3.6,3.2,2.1c5.7-4.8,8.8-12,6.8-19.4c-1.3-4.7-4.8-8.5-7.8-12.3c-6.7-8.6-12.9-20.1-25.3-19.8
						c-11.9,0.3-25.6,12.5-24.2,24.9c0.6,5.3,3.7,9.1,6.9,13.1c3.4,4.3,6.7,8.7,10.1,13c4.1,5.2,9.4,8.6,16.3,8.5
						c7-0.1,11.9-3.9,17.2-8C764.3,834.8,760.4,833.3,758.6,834.7z"/>
				</g>
			</g>
			<g>
				<path class="st1" d="M1022.3,826c-12.9,6.9-29,2-35.9-10.9l-70-133.2c-6.9-12.8-2-28.8,10.8-35.7l0.3-0.1
					c12.9-6.9,28.9-2,35.7,10.9l69.9,133.1C1040.1,803,1022.3,826,1022.3,826z"/>
				<g>
					<path class="st2" d="M952.4,745.3c-9-17.1-18-34.3-27-51.4c-3.5-6.7-8.5-14-9.5-21.6c-2.8-22.1,23.7-36.7,40.2-20.8
						c4,3.9,6.3,9.1,8.8,14c4.1,7.8,8.2,15.6,12.3,23.4c11.5,21.9,23,43.8,34.5,65.8c7.5,14.2,14.9,28.4,22.4,42.6
						c0.9,1.8,5.7,0.3,4.8-1.3c-19-36.1-37.9-72.3-56.9-108.4c-4.3-8.1-8.6-16.3-12.8-24.4c-3-5.7-5.6-11.4-10.8-15.5
						c-12.8-10.1-32.5-7-42.1,6c-7.8,10.5-5.9,22.2-0.2,33c10.5,20,21,40,31.5,60C948.6,748.4,953.3,746.9,952.4,745.3L952.4,745.3z
						"/>
				</g>
			</g>
			<g>
				<path class="st1" d="M968.5,836.8c0,0-36.5,2.2-45-14.2l-79.1-153c-8.4-16.2-2.1-36.2,14.1-44.6l0.5-0.2
					c16.2-8.4,34.1-6.4,54.6,34l69.2,133.1C991.9,811.9,984.8,828.3,968.5,836.8z"/>
				<g>
					<path class="st2" d="M922.7,815.9c-21.7-42-43.5-84.1-65.2-126.1c-3.4-6.6-6.9-13.2-10.3-19.9c-8-15.6-3.9-35.2,11.8-44.3
						c29-16.9,47.4,24.8,58.1,45.4c12.2,23.4,24.3,46.8,36.5,70.2c0.6,1.1,5.2-0.7,4.8-1.3c-11.5-22-22.9-44.1-34.4-66.1
						c-11.1-21.4-25.5-59.2-55.2-53.4c-17.1,3.4-31.2,17.5-30.7,35.6c0.3,8.8,4.6,16,8.5,23.5c13,25.1,26,50.2,38.9,75.3
						c10.8,20.8,21.5,41.6,32.3,62.5C918.5,818.3,923.1,816.5,922.7,815.9L922.7,815.9z"/>
				</g>
			</g>
			<g>
				<path class="st1" d="M907.3,837.7c0,0-24.4,27.8-33,11.9l-102.9-194c-8.6-15.8-2.8-35.5,13-44.1l0.5-0.3
					c15.7-8.6,35.4-2.8,44,12.9l93.6,176.1C931.1,816.3,923.2,829.1,907.3,837.7z"/>
				<g>
					<path class="st2" d="M848.7,795.3c-10.4-19.4-20.8-38.8-31.1-58.3c-13.7-25.7-27.5-51.4-41.2-77.1c-0.9-1.6-1.7-3.2-2.6-4.8
						c-5.9-11.3-5.1-25.1,2.9-35.2c14.2-17.9,40.2-12.5,50.4,6.3c12.4,22.9,24.5,45.9,36.8,68.9c7.8,14.5,15.5,29.1,23.3,43.6
						c4.5,8.4,8.6,17.2,13.5,25.3c0.2,0.4,0.4,0.8,0.6,1.2c0.8,1.5,5.4-0.2,4.8-1.3c-11.2-20.9-22.3-41.8-33.5-62.7
						c-13.4-25.2-26.9-50.3-40.3-75.5c-7.9-14.8-23.5-22.7-40.1-18.5c-21.6,5.5-33.7,28.9-23.2,49.2c11.4,22,23.4,43.7,35.1,65.6
						c13,24.3,25.4,49.2,39.1,73.1c0.3,0.5,0.5,0.9,0.7,1.4C844.6,798,849.3,796.4,848.7,795.3L848.7,795.3z"/>
				</g>
			</g>
			<g>
				<path class="st1" d="M862.1,891.8c-16.7,8.6-37.2,2.1-45.9-14.6L665.9,588.1c-8.6-16.6-2.1-37,14.5-45.6l0.3-0.1
					c16.6-8.6,37.1-2.1,45.7,14.5L876.7,846C885.3,862.7,862.1,891.8,862.1,891.8z"/>
				<g>
					<path class="st2" d="M791.8,822.2c-16-30.3-31.9-60.7-47.9-91c-22.7-43.1-45.3-86.2-68-129.3c-2.3-4.3-4.6-8.7-6.8-13
						c-5.4-10.4-6.2-22.4-0.4-33c5.4-9.9,15.9-16.8,27.4-16.3c10.5,0.4,20.4,6.2,26.2,14.9c2,3,3.5,6.4,5.2,9.6
						c20.7,39.8,41.4,79.6,62,119.4c18.6,35.8,37.2,71.6,55.8,107.3c0.3,0.6,0.7,1.3,1,1.9c0.6,1.2,5.2-0.5,4.8-1.3
						c-16.6-31.9-33.1-63.7-49.7-95.6c-22.4-43-44.7-86.1-67.1-129.1c-1.8-3.5-3.5-7-5.4-10.4c-7.1-13.2-21.2-20.5-36.1-18.6
						c-17,2.1-31.6,15.2-32.9,32.7c-0.6,8.1,2.1,15.1,5.7,22c20.5,39,41.1,78.1,61.6,117.1c19.6,37.3,39.3,74.6,58.9,111.9
						c0.3,0.6,0.7,1.3,1,1.9C787.6,824.7,792.2,823,791.8,822.2L791.8,822.2z"/>
				</g>
				<g>
					<path class="st2" d="M712.8,599.6c-4.2,2.2-8.5,5-13.5,4.6c-6.3-0.6-11.3-4.7-14.2-10.1c-3.4-6.3-7.7-12.8-10-19.6
						c-4.2-12.1,5.5-22.7,16.8-25.7c12.9-3.4,18.7,9.3,23.4,18.4c1.8,3.4,3.9,6.7,5.2,10.3C723.8,585.8,720.5,595.3,712.8,599.6
						c-2.8,1.6,1.6,1.7,2.9,1c6.4-3.6,10.8-9.7,11-17.2c0.1-5.7-2.8-10.4-5.4-15.3c-2.2-4.2-4.2-8.7-6.7-12.7
						c-3.9-6.2-10.8-9.6-18.1-9.3c-11.2,0.4-25.6,9.2-27.1,20.9c-0.8,5.7,1.4,10.3,3.9,15.1c2.4,4.6,4.6,9.2,7.1,13.7
						c3.7,6.6,10,10.6,17.6,10.7c6.6,0.1,12-3,17.6-5.9C718.5,599.1,714.1,599,712.8,599.6z"/>
				</g>
				<g>
					<path class="st2" d="M791.3,831.7c15.6,26.1,35.1,51.4,58.4,71c1.6,1.3,5.8-1,3.7-2.8c-23-19.4-42.3-44.6-57.7-70.4
						C794.7,827.8,790.1,829.6,791.3,831.7L791.3,831.7z"/>
				</g>
			</g>
		</g>
	</g>
</g>
</svg>
