<?xml version="1.0" encoding="utf-8"?>
<!-- Generator: Adobe Illustrator 24.2.3, SVG Export Plug-In . SVG Version: 6.00 Build 0)  -->
<svg version="1.1" id="Layer_1" xmlns="http://www.w3.org/2000/svg" xmlns:xlink="http://www.w3.org/1999/xlink" x="0px" y="0px"
	 viewBox="0 0 1200 1200" style="enable-background:new 0 0 1200 1200;" xml:space="preserve">
<style type="text/css">
	.st0{fill:#FFFFFF;}
	.st1{fill:#E3E3E3;}
	.st2{fill:#EFEFEF;}
	.st3{fill:#444444;}
	.st4{fill:#CFCFCF;}
	.st5{fill:#E5E5E5;}
	.st6{clip-path:url(#SVGID_2_);}
	.st7{opacity:0.2;fill:#E61261;enable-background:new    ;}
	.st8{fill:#E61261;}
	.st9{fill:#D01261;}
	.st10{fill:#F9F9F9;}
</style>
<g id="Ñëîé_1_1_">
	<rect id="XMLID_1_" class="st0" width="1200" height="1200"/>
</g>
<g id="Ñëîé_2">
	<g>
		<path class="st1" d="M976.8,909.1c0,0-285.2,4-380.2,4c-94.7,0-378.7-4-378.7-4c-11.2,0-20.2-9.1-20.2-20.2l0,0
			c0-11.2,9.1-20.2,20.2-20.2h759c11.2,0,20.2,9.1,20.2,20.2l0,0C997.1,900,988,909.1,976.8,909.1z"/>
		<g>
			<path class="st2" d="M189.1,857.2L262,693.7c5.5-12,30.6-21.4,56-21.4h558.6c25.5,0,50.5,9.4,56,21.4l74.8,161.5
				c5.6,24.5-10.2,36.4-43.6,36.4H230.7C197.3,891.6,184,871,189.1,857.2z"/>
			<g>
				<path class="st3" d="M1006.5,861.5c1,21.4-19.7,28.3-37.7,28.3c-2.8,0-5.7,0-8.5,0c-16.1,0-32.1,0-48.2,0c-26.8,0-53.7,0-80.5,0
					c-34.3,0-68.7,0-103,0c-38,0-76.1,0-114.1,0c-38.6,0-77.1,0-115.7,0c-35.4,0-70.8,0-106.2,0c-28.7,0-57.4,0-86.1,0
					c-18.4,0-36.8,0-55.3,0c-15.8,0-33.2,1.3-47.4-6.6c-9-5-13.7-13.5-12.7-23.8c0.2-2.4-4.7-1.7-4.9,0.4
					c-3.1,29.8,32.8,33.4,54.7,33.4c14.8,0,29.7,0,44.5,0c26.5,0,53,0,79.5,0c34.6,0,69.2,0,103.9,0c38.7,0,77.5,0,116.2,0
					c39.3,0,78.5,0,117.8,0c36.2,0,72.4,0,108.7,0c29.1,0,58.3,0,87.4,0c18.6,0,37.1,0,55.7,0c16.3,0,34.6,1.3,47.6-10.2
					c6.4-5.6,9.5-13.6,9.1-22C1011.3,858.7,1006.4,859.5,1006.5,861.5L1006.5,861.5z"/>
			</g>
			<g>
				<path class="st0" d="M192.6,840.1l74.3-150.7c5.4-11,30.2-19.7,55.4-19.7h553.8c25.2,0,50,8.7,55.4,19.7l74.3,150.7
					c8.5,17.2-11.2,31.6-44.3,31.6H236.7C203.8,871.8,184.2,857.3,192.6,840.1z"/>
				<g>
					<path class="st3" d="M194.9,840.4c12.5-25.3,24.9-50.5,37.4-75.8c8.5-17.2,16.9-34.4,25.4-51.5c3.9-8,7.4-16.6,12-24.2
						c3.5-5.8,10.5-9,16.5-11.3c8.9-3.4,18.4-5.2,27.9-5.9c3.3-0.2,6.5-0.3,9.8-0.3c5.5,0,11,0,16.6,0c25.1,0,50.2,0,75.3,0
						c37.5,0,75,0,112.6,0c42,0,83.9,0,125.9,0c38.4,0,76.8,0,115.1,0c27.2,0,54.4,0,81.6,0c20.3,0,41-1.2,60.4,6.1
						c7.4,2.8,15,6.8,18.6,14.1c2,3.9,3.9,7.9,5.9,11.9c7.8,15.8,15.5,31.5,23.3,47.3c14.5,29.4,29,58.8,43.5,88.2
						c11.4,23.2-20.2,30.6-37.2,31.1c-3.4,0.1-6.8,0.1-10.2,0.1c-16.9,0-33.8,0-50.8,0c-29.9,0-59.8,0-89.6,0
						c-38.2,0-76.4,0-114.6,0c-41.7,0-83.5,0-125.2,0c-41,0-82,0-123,0c-35.4,0-70.8,0-106.1,0c-25.4,0-50.9,0-76.3,0
						c-10.7,0-21.5,0.1-32.2,0C222.7,870,183.9,864,194.9,840.4c1.1-2.4-3.7-2.2-4.6-0.4c-12.3,26.4,29.4,33.4,46.3,33.5
						c2.6,0,5.1,0,7.7,0c18,0,36.1,0,54.1,0c31.1,0,62.1,0,93.2,0c39.3,0,78.6,0,117.8,0c42.8,0,85.7,0,128.5,0
						c41.2,0,82.4,0,123.6,0c34.9,0,69.8,0,104.8,0c23.8,0,47.6,0,71.4,0c13.4,0,27.5,0.9,40.7-1.4c16.2-2.9,39-13.7,29.3-33.6
						c-5.3-10.9-10.7-21.7-16.1-32.6c-17-34.5-34-69-51.1-103.6c-2-4-3.9-8.1-6-12.1c-3.1-6.3-8.5-10.2-14.8-13.3
						c-14.4-6.9-30.6-8.8-46.4-8.8c-18,0-35.9,0-53.9,0c-34,0-68,0-102.1,0c-41.8,0-83.7,0-125.5,0c-41.3,0-82.7,0-124,0
						c-32.6,0-65.2,0-97.7,0c-15.5,0-31,0-46.6,0c-7,0-13.9,0.5-20.8,1.7c-12.4,2.2-29,6.3-36.8,17.1c-5.3,7.3-8.5,16.7-12.5,24.7
						c-17.3,35.1-34.6,70.2-51.9,105.3c-3.8,7.7-7.6,15.4-11.4,23.1C189.2,842.3,194,842.1,194.9,840.4z"/>
				</g>
			</g>
			<polygon class="st4" points="907.4,857.3 841.9,678.3 349.9,678.3 282.6,857.3 			"/>
			<polygon class="st1" points="907.4,857.3 845,687.2 346.7,687.2 282.6,857.3 			"/>
			<g>
				<path class="st5" d="M277.4,773.9c3-6.9,6-13.9,9-20.8c1.5-3.5,3.4-7.1,4.6-10.7c1.1-3.1-0.9-4.1-4.1-4.4
					c-3.7-0.4-8.8-0.5-11.6,2.3c-1.5,1.5-2.2,4.1-3,5.9c-3.8,8.5-7.6,17-11.5,25.5c-1.6,3.5-1.2,5.4,3.3,6
					c4.4,0.6,10.3,0.4,13.1-3.4c1.2-1.6-3.6-1.1-4.5,0.1c-1.2,1.6-8,1.7-8.3-0.9c-0.1-0.5,0.7-1.5,0.9-1.9c1.6-3.6,3.2-7.2,4.9-10.8
					c2-4.3,3.9-8.7,5.9-13c1-2.3,1.9-6.1,4.1-7.1c1.4-0.7,6.2-0.5,6.5,1.5c0.1,0.5-0.7,1.7-0.9,2.1c-1.6,3.7-3.2,7.3-4.7,11
					c-2.8,6.5-5.6,13-8.4,19.5C272,775.8,276.8,775.3,277.4,773.9z"/>
			</g>
			<g>
				<path class="st3" d="M278.1,775.1c3.2-7.5,6.4-14.9,9.5-22.4c1.7-4,3.6-7.9,5.1-12c1.4-3.7-1.4-4.6-5.1-4.8
					c-4.1-0.1-10.1-0.3-13.1,3c-1.7,1.9-2.5,5-3.5,7.2c-4.1,9.1-8.2,18.3-12.2,27.4c-0.3,0.7-1.1,1.8-1.1,2.6c0,2.7,3.1,3.1,5.3,3.2
					c4.8,0.3,11.8,0.4,14.9-4c1.1-1.6-3.6-1.1-4.5,0.1c-1.6,2.3-10.7,2.5-10.7-0.9c0-2,2.4-5.3,3.2-7.1c3.3-7.4,6.6-14.7,9.8-22.1
					c0.7-1.6,1.4-4.6,2.6-5.9c1.7-1.8,9.8-1.8,9.9,0.8c0.1,1.7-2,4.7-2.6,6.2c-1.6,3.7-3.1,7.3-4.7,11c-2.6,6.1-5.2,12.2-7.8,18.3
					C272.7,777.1,277.4,776.5,278.1,775.1z"/>
			</g>
			<g>
				<path class="st5" d="M267.2,796.4c0.5-1.2,1.4-2.5,0.4-3.7c-1.2-1.4-3.7-1.3-5.3-1.4c-3.8,0-9.3,0-11.6,3.7
					c-0.6,1-1.3,2.4-0.8,3.4c0.9,1.7,3.6,1.7,5.2,1.8c3.9,0.1,9.6,0.2,11.9-3.6c1.1-1.8-3.7-1.2-4.5,0c-0.9,1.4-4,1.1-5.5,1
					c-1.1-0.1-2.5,0-2.4-1.4c0-0.5,0.6-1.6,1-1.9c1-0.9,3.9-0.7,5.3-0.6c2.8,0.2,2.4,1.3,1.5,3.2
					C261.9,798.4,266.6,797.9,267.2,796.4z"/>
			</g>
			<g>
				<path class="st3" d="M269.1,796.1c0.6-1.4,1.7-2.9,0.6-4.3c-1.4-1.7-4.5-1.4-6.4-1.4c-4.5,0-11.1,0-13.8,4.3
					c-0.8,1.2-1.7,3-0.7,4.3c1.4,1.7,4.5,1.4,6.5,1.4C259.7,800.4,266.4,800.4,269.1,796.1c0.3-0.4-4-0.3-4.8,0.9
					c-1.3,2-5.5,1.6-7.5,1.5c-1.8-0.1-3.9-0.5-3.6-2.6c0.1-0.5,0.6-1.7,0.9-2.1c1.8-1.8,5-1.6,7.4-1.5c1.7,0.1,3.9,0.4,3.7,2.5
					c-0.1,0.7-0.7,1.6-0.9,2.2C264,797.6,268.5,797.3,269.1,796.1z"/>
			</g>
			<g>
				<path class="st5" d="M938.9,765.4c-2.4-5.5-4.5-11.5-7.4-16.8c-4.1-7.5-16.8-7.7-24.3-6.5c-3.3,0.5-8.5,2.3-8.4,6.4
					c0,2.6,1.9,5.6,2.9,7.9c1.3,3.2,2.4,6.6,3.9,9.8c1.9,4,5.9,5.8,10.1,6.8C921.1,774.4,941.9,775.7,938.9,765.4
					c-0.7-2.2-5.5-0.9-4.8,1.3c1.3,4.4-9.2,3.6-12.1,3.5c-4.8-0.2-10.1-1.5-12-6.2c-1.3-3-2.4-6.1-3.6-9.2c-0.7-1.7-2.4-4.4-2.4-6.2
					c-0.1-4,8.1-3.2,11.1-3.1c4.7,0.2,10.2,1.2,12.3,5.8c2.4,5.1,4.5,10.3,6.7,15.4C935.1,768.9,939.8,767.5,938.9,765.4z"/>
			</g>
			<g>
				<path class="st3" d="M941.8,766.2c-2.8-6.2-5.2-13-8.5-18.9c-4.6-8-19-7.6-27-6.5c-3.2,0.5-10.1,1.8-10.6,6
					c-0.3,2.7,2.2,6.5,3.2,8.9c1.5,3.7,2.8,7.7,4.6,11.3c2.2,4.5,7.4,6.2,12,7.1C920.6,775,945.1,776.2,941.8,766.2
					c-0.3-1.1-5.1,0.3-4.8,1.3c2,6.1-10.5,5.4-14.5,5.1c-5.5-0.4-11.8-2-14.3-7.3c-1.7-3.5-3-7.3-4.5-10.9c-0.9-2.3-2.8-5.1-3.1-7.6
					c-0.6-5.3,10.2-4.5,14.2-4.3c5.4,0.3,11.5,1.9,14,7c3,5.9,5.4,12,8.1,18C937.5,768.6,942.2,767,941.8,766.2z"/>
			</g>
			<g>
				<g>
					<g>
						<defs>
							<polygon id="SVGID_1_" points="907.4,857.3 845,687.2 346.7,687.2 282.6,857.3 							"/>
						</defs>
						<clipPath id="SVGID_2_">
							<use xlink:href="#SVGID_1_"  style="overflow:visible;"/>
						</clipPath>
						<g class="st6">
							<g>
								<path class="st0" d="M405.3,679.7c-21.8,58.9-42,118.4-62.3,177.8c-1.4,4.1,5.9,4.3,7,1c20.3-59.4,40.5-118.9,62.3-177.8
									C413.7,676.7,406.5,676.4,405.3,679.7L405.3,679.7z"/>
							</g>
							<g>
								<path class="st0" d="M514.7,736.2c-6.1,41.5-12.4,82.9-18.7,124.4c-0.5,3.2,6.9,2,7.3-0.8c6.2-41.5,12.6-82.9,18.7-124.4
									C522.5,732.3,515.1,733.4,514.7,736.2L514.7,736.2z"/>
							</g>
							<g>
								<path class="st0" d="M571.3,678.4c-3.5,59.9-7.6,119.7-10,179.6c-0.3,6.4,14.3,3.7,14.5-1.6c2.4-59.9,6.4-119.8,10-179.6
									C586.2,670.4,571.6,673,571.3,678.4L571.3,678.4z"/>
							</g>
							<g>
								<path class="st0" d="M700.4,756.1c6.2,34.4,9.7,69.3,15.1,103.9c0.5,3.2,7.8,1.4,7.2-1.9c-5.4-34.6-8.8-69.4-15.1-103.9
									C707,750.9,699.8,752.7,700.4,756.1L700.4,756.1z"/>
							</g>
							<g>
								<path class="st0" d="M793,739.9c13.1,39.3,23.4,79.4,35.3,119.1c1,3.3,8.2,1.3,7.2-1.9c-11.9-39.7-22.3-79.8-35.3-119.1
									C799.1,734.7,791.9,736.6,793,739.9L793,739.9z"/>
							</g>
							<g>
								<path class="st0" d="M689.3,680c1.4,12.4,3.4,24.8,5.4,37.2c0.3,1.6,7.6,0,7.2-1.9c-2-12.4-4-24.7-5.4-37.2
									C696.4,676.6,689.1,678,689.3,680L689.3,680z"/>
							</g>
							<g>
								<path class="st0" d="M675.9,734.7c-45.2-0.4-90.5-0.8-135.7-1.3c-6.3-0.1-12.7-0.1-19-0.2c-1.4,0-4.1,0.2-5.1,1.4
									c-0.7,0.8-1.4,1.7,0.5,1.7c45.2,0.4,90.5,0.8,135.7,1.3c6.3,0.1,12.7,0.1,19,0.2c1.4,0,4.1-0.2,5.1-1.4
									C677,735.6,677.7,734.8,675.9,734.7L675.9,734.7z"/>
							</g>
							<g>
								<path class="st0" d="M867,735.9c-45.5-0.3-91-0.3-136.5-0.5c-1.4,0-4.1,0.3-5.1,1.4c-0.7,0.8-1.4,1.4,0.4,1.4
									c45.5,0.2,91,0.2,136.5,0.5c1.4,0,4.1-0.3,5.1-1.4C868.1,736.5,868.8,736,867,735.9L867,735.9z"/>
							</g>
							<g>
								<path class="st0" d="M706.8,778.6c-101.4-1-202.9-1.8-304.3-2.9c-29.2-0.3-58.3-0.6-87.5-1c-2.9,0-8,1.1-9.6,3.8
									c-1.7,2.8,1.5,3.5,3.7,3.5c101.5,1.2,202.9,2.1,304.4,3.1c29.1,0.3,58.3,0.5,87.4,0.8c2.9,0,8-1.1,9.6-3.8
									C712.2,779.3,709,778.6,706.8,778.6L706.8,778.6z"/>
							</g>
							<g>
								<path class="st0" d="M327.6,737.8c55.2,0,110.4,1.9,165.6,0.9c2.9-0.1,7.5-2.2,8.1-5.4c2.9-16.7,5.1-33.5,8.6-50.1
									c1.3-6.4-13.4-4.3-14.6,1.4c-3.4,16.6-5.6,33.4-8.6,50.1c2.7-1.8,5.4-3.6,8.1-5.4c-54,0.9-107.9-1-161.9-1
									c-3.3,0-7.9,0.9-9.5,4.2C321.9,735.5,324.7,737.8,327.6,737.8L327.6,737.8z"/>
							</g>
							<g>
								<path class="st0" d="M695.7,719.1c10.3-0.1,23.4,4.7,27,15.4c3.8,11.4-7.8,18.1-17.6,18.4c-9.8,0.3-21.4-4.2-26-13.5
									C673.1,727.4,685,719.8,695.7,719.1c4.1-0.3,5.6-5.7,0.6-5.4c-10.5,0.7-23.1,5.4-25.8,16.8c-2.5,10.6,6.2,19.7,15.1,23.9
									c10.2,4.8,23,5.4,33.2,0.3c9-4.5,14.7-14.1,10.4-23.9c-5.4-12.4-20.4-17.3-32.9-17.1C692.2,713.8,690.8,719.2,695.7,719.1
									L695.7,719.1z"/>
							</g>
						</g>
					</g>
				</g>
			</g>
			<g>
				<path class="st3" d="M909.9,856.7c-7.4-20.1-14.7-40.3-22.1-60.4c-11.8-32.1-23.5-64.2-35.3-96.4c-2.7-7.4-5.4-14.8-8.1-22.2
					c-0.1-0.3-0.6-0.4-0.9-0.4c-16.4,0-32.7,0-49.1,0c-39.1,0-78.2,0-117.3,0c-47.5,0-94.9,0-142.4,0c-40.9,0-81.8,0-122.7,0
					c-19.9,0-39.9-0.7-59.7,0c-0.3,0-0.6,0-0.9,0c-1,0-3.5,0.3-3.9,1.4c-7.6,20.2-15.2,40.3-22.8,60.5
					c-12.1,32.1-24.2,64.3-36.3,96.4c-2.8,7.4-5.5,14.7-8.3,22.1c-0.2,0.5,0.5,0.6,0.8,0.6c20.7,0,41.4,0,62.1,0
					c49.9,0,99.7,0,149.6,0c60.2,0,120.3,0,180.5,0c52,0,104,0,156,0c25.2,0,50.5,0.4,75.8,0c0.4,0,0.7,0,1.1,0
					c1.1,0,5.5-2.1,3.1-2.1c-20.7,0-41.4,0-62.1,0c-49.9,0-99.7,0-149.6,0c-60.2,0-120.3,0-180.5,0c-52,0-104,0-156,0
					c-17.1,0-34.3,0-51.4,0c-5.4,0-10.7,0-16.1,0c-2.5,0-5.9-0.6-8.3,0c-0.3,0.1-0.7,0-1.1,0c0.3,0.2,0.6,0.4,0.8,0.6
					c7.6-20.2,15.2-40.3,22.8-60.5c12.1-32.1,24.2-64.3,36.3-96.4c2.8-7.4,5.5-14.7,8.3-22.1c-1.3,0.5-2.6,1-3.9,1.4
					c29.5,0,59.1,0,88.6,0c62.6,0,125.2,0,187.8,0c56.7,0,113.3,0,170,0c13.9,0,27.8,0,41.7,0c1.1,0,2.3-0.1,3.4,0
					c0.7,0-0.1-0.9,0,0.5c0.2,2.3,1.9,5.2,2.7,7.3c1.6,4.5,3.3,8.9,4.9,13.4c18.8,51.3,37.5,102.6,56.3,153.9
					c0.4,1.2,0.9,2.4,1.3,3.6C905.5,859.2,910.3,857.8,909.9,856.7z"/>
			</g>
		</g>
		<g>
			<ellipse class="st7" cx="601.3" cy="752.5" rx="22.8" ry="15.5"/>
			<ellipse class="st8" cx="601.3" cy="752.5" rx="14.7" ry="10"/>
		</g>
		<g>
			<path class="st9" d="M740.8,474.4c0-77-62.4-139.5-139.5-139.5s-139.5,62.4-139.5,139.5s139.5,217.9,139.5,217.9
				S740.8,551.4,740.8,474.4z"/>
			<path class="st8" d="M740.3,475.2c0-76.5-58.3-138.5-130.2-138.5s-130.2,62-130.2,138.5s121.8,216.4,121.8,216.4
				S740.3,551.7,740.3,475.2z"/>
			<g>
				<path class="st3" d="M743.2,473.7c-0.3-56.1-34.6-107.8-86.5-129.2c-50-20.6-109.5-10.2-150,25.6c-36.3,32.1-57.3,86-42.2,133.4
					c6.7,21.1,17.6,40.8,29.4,59.4c12.9,20.4,27.3,39.9,42.3,58.8c12.6,15.8,25.7,31.1,39.2,46.1c7.3,8.1,14.5,16.9,22.6,24.2
					c0.4,0.3,0.7,0.7,1.1,1.1c0.8,0.8,3.8-0.3,4.5-1c16.5-16.7,32-34.3,47.1-52.2c28.3-33.6,55.8-69.2,75.5-108.6
					C735,513.6,743.1,493.9,743.2,473.7c0-0.7-4.8-0.1-4.8,1.3c-0.1,17.9-6.7,35.4-14.2,51.5c-9.2,19.6-20.7,38-33,55.7
					c-22.6,32.6-48.2,63.1-75,92.3c-5.6,6.1-11.2,12.1-17,18c1.5-0.3,3-0.7,4.5-1c-17.4-17.6-33.8-36.2-49.6-55.2
					C525.3,601.8,496.9,565,478,524c-7.7-16.6-13.9-34.5-13.5-53.1c0.5-27.3,9.3-54.2,24.9-76.6c32.7-47,92.1-68.8,147.5-53.5
					c52.3,14.5,92.2,59.8,100.2,113.4c1,6.9,1.5,13.8,1.5,20.7C738.4,475.7,743.2,475,743.2,473.7z"/>
			</g>
			<circle class="st9" cx="613.4" cy="475.3" r="74.5"/>
			
				<ellipse transform="matrix(0.7071 -0.7071 0.7071 0.7071 -159.3638 564.1303)" class="st10" cx="601.3" cy="474.4" rx="69.7" ry="69.7"/>
			<g>
				<path class="st3" d="M673.5,474.2c-0.3-30.1-19.3-57.4-48-67.3c-28.1-9.7-60.3-0.8-79.5,21.9c-19.5,23.1-22.3,56.8-6.7,82.7
					c15.5,25.7,46.2,38.7,75.5,33.1C648.4,538.1,673.2,508.2,673.5,474.2c0-2.5-4.9-1.7-4.9,0.4c-0.3,28.1-17.4,54-44,63.8
					c-26.7,9.8-57.4,0.9-75.2-21.1c-17.7-21.8-20.3-53.1-6.2-77.5c14.2-24.6,43.1-37.7,71-32.1c31.5,6.4,54.1,35,54.4,66.9
					C668.6,477,673.5,476.2,673.5,474.2z"/>
			</g>
		</g>
	</g>
</g>
</svg>
