<svg xmlns="http://www.w3.org/2000/svg" xmlns:xlink="http://www.w3.org/1999/xlink" width="274" height="41.69" viewBox="0 0 274 41.69">
  <defs>
    <style>
      @font-face {
        font-family: CircularStd;
        src: url("../css/circular/CircularStd-Bold.woff") format("woff");
        font-weight: 700;
        font-style: normal;
      }
    </style>
    <clipPath id="a">
      <path d="M18.9,17.535A22.714,22.714,0,0,1,21.838,16.1a1.328,1.328,0,1,0-.965-2.468,27.743,27.743,0,0,0-4.2,2.028c-2.766-3.149-1.206-6.581,1.418-8.213A33.184,33.184,0,0,1,29.554,3.762c1.886-.284,2.6,2.17.269,2.511a34.48,34.48,0,0,0-7.631,2.142c-1.6.61-.865,2.738,1.021,2.071a39.772,39.772,0,0,1,6.681-1.617l.014.014a1.5,1.5,0,0,1,1.73.993,1.265,1.265,0,0,1-1.22,1.4c-1.163.156-2.284.355-3.362.582a1.286,1.286,0,0,0-1.149,1.56,1.593,1.593,0,0,0,1.9.95c.624-.128,1.248-.241,1.9-.355.043-.014.1-.014.142-.028a1.557,1.557,0,0,1,1.8,1.035,1.312,1.312,0,0,1-1.262,1.461h0a41.625,41.625,0,0,0-9.106,2.284A16.189,16.189,0,0,1,18.9,17.535" transform="translate(-15.216 -3.739)" />
    </clipPath>
    <clipPath id="b">
      <path d="M140.623-.005a1.243,1.243,0,0,0-1.05,1.447,1.3,1.3,0,0,0,1.489,1.021,1.243,1.243,0,0,0,1.05-1.447,1.3,1.3,0,0,0-1.489-1.021" transform="translate(-139.552 0.023)" />
    </clipPath>
    <clipPath id="c">
      <path d="M200.262,72.695a1.243,1.243,0,0,1,1.05,1.447,1.3,1.3,0,0,1-1.489,1.021,1.243,1.243,0,0,1-1.05-1.447,1.3,1.3,0,0,1,1.489-1.021" transform="translate(-198.752 -72.677)" />
    </clipPath>
    <clipPath id="d">
      <path d="M244.517,17.449a22.713,22.713,0,0,0-2.936-1.433,1.328,1.328,0,1,1,.965-2.468,27.742,27.742,0,0,1,4.2,2.028c2.766-3.163,1.22-6.6-1.4-8.227a33.184,33.184,0,0,0-11.461-3.688c-1.886-.284-2.6,2.17-.269,2.511a34.481,34.481,0,0,1,7.631,2.142c1.6.61.865,2.738-1.021,2.071a39.773,39.773,0,0,0-6.681-1.617l-.014.014a1.5,1.5,0,0,0-1.73.993,1.265,1.265,0,0,0,1.22,1.4c1.163.156,2.284.355,3.362.582a1.286,1.286,0,0,1,1.149,1.56,1.625,1.625,0,0,1-1.915.936c-.624-.128-1.248-.241-1.9-.355-.043-.014-.1-.014-.142-.028a1.557,1.557,0,0,0-1.8,1.035,1.312,1.312,0,0,0,1.262,1.461h0a41.624,41.624,0,0,1,9.106,2.284,13.83,13.83,0,0,0,2.383-1.206" transform="translate(-231.744 -3.639)" />
    </clipPath>
  </defs>
  <g transform="translate(-44 -40)">
    <g transform="translate(44 40)">
      <text transform="translate(60 27)" fill="#212121" font-size="25" font-family="CircularStd, sans-serif" font-weight="700" letter-spacing="-0.026em"><tspan x="0" y="0">vehicle</tspan><tspan y="0" fill="#0fc8f0">hire</tspan><tspan y="0" fill="#e61562">network</tspan></text>
      <g transform="translate(2.158 0.534)">
        <path d="M18.9,17.535A22.714,22.714,0,0,1,21.838,16.1a1.328,1.328,0,1,0-.965-2.468,27.743,27.743,0,0,0-4.2,2.028c-2.766-3.149-1.206-6.581,1.418-8.213A33.184,33.184,0,0,1,29.554,3.762c1.886-.284,2.6,2.17.269,2.511a34.48,34.48,0,0,0-7.631,2.142c-1.6.61-.865,2.738,1.021,2.071a39.772,39.772,0,0,1,6.681-1.617l.014.014a1.5,1.5,0,0,1,1.73.993,1.265,1.265,0,0,1-1.22,1.4c-1.163.156-2.284.355-3.362.582a1.286,1.286,0,0,0-1.149,1.56,1.593,1.593,0,0,0,1.9.95c.624-.128,1.248-.241,1.9-.355.043-.014.1-.014.142-.028a1.557,1.557,0,0,1,1.8,1.035,1.312,1.312,0,0,1-1.262,1.461h0a41.625,41.625,0,0,0-9.106,2.284A16.189,16.189,0,0,1,18.9,17.535" transform="translate(-15.216 -3.739)" fill="#e61562" />
        <g clip-path="url(#a)">
          <rect width="18.226" height="15.319" transform="translate(-1.307 -0.261)" fill="#e61562" />
        </g>
      </g>
      <g transform="translate(19.794)">
        <path d="M140.623-.005a1.243,1.243,0,0,0-1.05,1.447,1.3,1.3,0,0,0,1.489,1.021,1.243,1.243,0,0,0,1.05-1.447,1.3,1.3,0,0,0-1.489-1.021" transform="translate(-139.552 0.023)" fill="#e61562" />
        <g clip-path="url(#b)">
          <rect width="2.78" height="2.709" transform="translate(-0.107 -0.096)" fill="#e61562" />
        </g>
      </g>
      <g transform="translate(28.191 10.312)">
        <path d="M200.262,72.695a1.243,1.243,0,0,1,1.05,1.447,1.3,1.3,0,0,1-1.489,1.021,1.243,1.243,0,0,1-1.05-1.447,1.3,1.3,0,0,1,1.489-1.021" transform="translate(-198.752 -72.677)" fill="#f8af07" />
        <g clip-path="url(#c)">
          <rect width="2.78" height="2.709" transform="translate(-0.092 -0.096)" fill="#f8af07" />
        </g>
      </g>
      <g transform="translate(32.87 0.519)">
        <path d="M244.517,17.449a22.713,22.713,0,0,0-2.936-1.433,1.328,1.328,0,1,1,.965-2.468,27.742,27.742,0,0,1,4.2,2.028c2.766-3.163,1.22-6.6-1.4-8.227a33.184,33.184,0,0,0-11.461-3.688c-1.886-.284-2.6,2.17-.269,2.511a34.481,34.481,0,0,1,7.631,2.142c1.6.61.865,2.738-1.021,2.071a39.773,39.773,0,0,0-6.681-1.617l-.014.014a1.5,1.5,0,0,0-1.73.993,1.265,1.265,0,0,0,1.22,1.4c1.163.156,2.284.355,3.362.582a1.286,1.286,0,0,1,1.149,1.56,1.625,1.625,0,0,1-1.915.936c-.624-.128-1.248-.241-1.9-.355-.043-.014-.1-.014-.142-.028a1.557,1.557,0,0,0-1.8,1.035,1.312,1.312,0,0,0,1.262,1.461h0a41.624,41.624,0,0,1,9.106,2.284,13.83,13.83,0,0,0,2.383-1.206" transform="translate(-231.744 -3.639)" fill="#f8af07" />
        <g clip-path="url(#d)">
          <rect width="18.226" height="15.319" transform="translate(-0.46 -0.247)" fill="#f8af07" />
        </g>
      </g>
      <path d="M48.14,75.522,34.878,83.564c-5.858,3.56-8.213,7.815-9.134,12.993-.922-5.177-3.276-9.447-9.134-12.993L3.347,75.508A6.732,6.732,0,0,1,0,70.6v9.035c1.092,3.7,3.759,8.028,9.716,11.985l16.028,10.652L41.772,91.621c5.943-3.957,8.624-8.283,9.716-11.985V70.6A6.786,6.786,0,0,1,48.14,75.522Z" transform="translate(0 -60.583)" fill="#14b5eb" />
    </g>
  </g>
</svg>
