<?xml version="1.0" encoding="utf-8"?>
<!-- Generator: Adobe Illustrator 24.2.3, SVG Export Plug-In . SVG Version: 6.00 Build 0)  -->
<svg version="1.1" id="Layer_1" xmlns="http://www.w3.org/2000/svg" xmlns:xlink="http://www.w3.org/1999/xlink" x="0px" y="0px"
	 viewBox="0 0 1400 1200" style="enable-background:new 0 0 1400 1200;" xml:space="preserve">
<style type="text/css">
	.st0{fill:#FFFFFF;}
	.st1{fill:#EFEFEF;}
	.st2{fill:#E3E3E3;}
	.st3{fill:#F9F9F9;}
	.st4{fill:#444444;}
	.st5{fill:#DBDBDB;}
	.st6{fill:#EEF7FA;}
	.st7{fill:#BBDFF5;}
	.st8{fill:#DEF3F9;}
	.st9{fill:#E5E5E5;}
	.st10{fill:#F0F9FC;}
	.st11{fill:#00B7ED;}
</style>
<g id="Ñëîé_1_1_">
	<rect id="XMLID_1_" class="st0" width="1400" height="1200"/>
</g>
<g id="Ñëîé_2">
	<path class="st1" d="M1204.8,786.1c-36.1-11.5-201.6-11.5-243.9-11.1c-16.5,0.1-33.1,0.7-49.7,1.5c-49.1-1.8-101.6-1.7-122.1-1.5
		c-26.7,0.2-53.5,1.7-80,4c-7.1,0.6-83.7,8.5-59.9,20.1c3.3,1.6,7.4,2.2,11.3,2.7c86.8,11.2,180.8,16.1,269.8,9.8
		c74.1,4.2,149.8,3.9,221.5-2.5C1162,808,1233.9,795.4,1204.8,786.1z"/>
	<g>
		<path class="st2" d="M1007,730.7H657.4c-5.6,0-10.1-4.5-10.1-10.1v-31.2c0-5.6,4.5-10.1,10.1-10.1H1007c5.6,0,10.1,4.5,10.1,10.1
			v31.2C1017.1,726.2,1012.6,730.7,1007,730.7z"/>
		<path class="st3" d="M1001.6,723.3h-55.5v-43.1h55.5c5.6,0,10.1,4.5,10.1,10.1v23C1011.7,718.8,1007.2,723.3,1001.6,723.3z"/>
		<path class="st3" d="M812.5,724.6H656.3c-5.6,0-10.1-4.5-10.1-10.1v-25.8c0-5.6,4.5-10.1,10.1-10.1h156.2V724.6z"/>
		<g>
			<path class="st4" d="M648.8,688.4c0-4.4,2-7.5,6.5-7.5c3.7,0,7.3,0,11,0c6.1,0,12.1,0,18.2,0c2,0,5-3.1,1.8-3.1
				c-8.2,0-16.4,0-24.6,0c-8.2,0-17.7,0.2-17.7,11C643.9,691.1,648.8,690.2,648.8,688.4L648.8,688.4z"/>
		</g>
		<g>
			<path class="st4" d="M654.8,729.2c-3.3-0.1-5.9-2.9-6-6.2c-0.1-2.3-4.9-1.3-4.9,0.5c0.1,5,4,8.6,9,8.8c1.1,0,2.6-0.3,3.2-1.4
				C656.7,729.9,655.7,729.2,654.8,729.2L654.8,729.2z"/>
		</g>
		<g>
			<path class="st4" d="M817.9,729.2c-2.3,0-4.6,0-7,0c-1.1,0-2.6,0.3-3.2,1.4c-0.5,1,0.4,1.7,1.4,1.7c2.3,0,4.6,0,7,0
				c1.1,0,2.6-0.3,3.2-1.4C819.8,729.9,818.8,729.2,817.9,729.2L817.9,729.2z"/>
		</g>
		<g>
			<path class="st4" d="M941,680.9c11.6,0,23.2,0,34.8,0c7.8,0,15.6,0,23.4,0c3.8,0,11-1.2,13.9,2.1c1.9,2.2,1.6,5.2,1.6,7.9
				c0,3.6,0,7.3,0,10.9c0,6.9,0.2,13.9,0,20.8c-0.2,7.1-5.2,6.6-10.2,6.6c-7.2,0-14.3,0-21.5,0c-13.8,0-27.6,0-41.4,0
				c-2,0-5,3.1-1.8,3.1c13.1,0,26.3,0,39.4,0c7.8,0,15.6,0,23.4,0c4.9,0,10.4,0.6,14.2-3.2c4.3-4.4,2.7-13.3,2.7-18.9
				c0-7.6,0.2-15.1,0-22.7c-0.1-6.5-4.6-9.6-10.7-9.6c-6.5-0.1-13,0-19.5,0c-15.5,0-31,0-46.5,0C940.8,677.8,937.8,680.9,941,680.9
				L941,680.9z"/>
		</g>
		<g>
			<path class="st4" d="M780.8,680.9c11.6,0,23.2,0,34.8,0c2,0,5-3.1,1.8-3.1c-11.6,0-23.2,0-34.8,0
				C780.6,677.8,777.6,680.9,780.8,680.9L780.8,680.9z"/>
		</g>
		<path class="st1" d="M922.4,732.8H836c-9.5,0-17.2-7.7-17.2-17.2v-21.4c0-9.5,7.7-17.2,17.2-17.2h86.3c9.5,0,17.2,7.7,17.2,17.2
			v21.4C939.6,725.1,931.9,732.8,922.4,732.8z"/>
		<path class="st0" d="M916.2,727h-72.8c-9.5,0-17.2-7.7-17.2-17.2v-15.7c0-9.5,7.7-17.2,17.2-17.2h72.8c9.5,0,17.2,7.7,17.2,17.2
			v15.7C933.5,719.3,925.8,727,916.2,727z"/>
		<g>
			<path class="st4" d="M923.2,731.2c-18,0-36,0-54,0c-9.5,0-19,0-28.5,0c-2.4,0-4.9,0.2-7.2-0.4c-8-1.8-12.2-9.2-12.3-16.9
				c0-5.4,0-10.8,0-16.2c0-6.5,0.7-12.9,6.6-17c5.6-3.9,15.1-2.4,21.6-2.4c22,0,44,0,66.1,0c2,0,4-0.1,6,0c9.6,0.4,15.6,8,15.7,17.3
				c0.1,12.4,3.6,34.9-14.5,35.6c-2.6,0.1-3.9,3.2-0.6,3.1c8-0.3,15.6-4.8,18.6-12.4c2-5,1.3-11,1.3-16.4c0-5.1,0.7-11-0.5-16
				c-1.9-7.9-9-13.5-16.9-14.1c-7.2-0.6-14.5-0.1-21.7-0.1c-13.4,0-26.9,0-40.3,0c-8.4,0-16.9-0.1-25.3,0c-6.2,0.1-12.1,2.2-16.3,7
				s-4.6,10.3-4.6,16.3c0,12.2-2.7,28.3,11.3,34.1c6.7,2.8,15.7,1.5,22.8,1.5c23.6,0,47.3,0,70.9,0
				C923.5,734.3,926.5,731.2,923.2,731.2z"/>
		</g>
		<path class="st1" d="M1157.2,525.8c0.4,0,0.7-0.4,0.5-0.8c-15.3-35.4-38.1-58.4-69-66.6c-21.1-5.6-42.9-4.8-64.4-3.4
			c-0.3,0-0.5,0.3-0.5,0.6c0,23.2,0,46.5,0,69.7c0,0.3,0.3,0.6,0.6,0.6L1157.2,525.8L1157.2,525.8z"/>
		<path class="st0" d="M1144.6,519.5c4.9,0,8-5.3,5.7-9.6c-14.2-26.2-33.9-44.8-58.3-51.6c-20.1-5.6-40.8-4.8-61.3-3.4
			c-0.3,0-0.5,0.3-0.5,0.6c0,17.3,0.3,44.5,0.5,57.3c0,3.9,3.2,7,7.1,7L1144.6,519.5z"/>
		<g>
			<path class="st4" d="M1159,525.9c3.3-1.8-6.4-16.9-8.1-19.7c-4.2-7.1-9-13.9-14.4-20c-10.3-11.6-23.2-20.8-37.9-26.2
				c-19-6.9-39.7-7.5-59.7-6.7c-4.5,0.2-9.7-0.1-14.2,0.8c-2.3,0.5-3,0.9-3.4,3.1c-1,5.2,0,11.6,0,16.9c0,6,0,11.9,0,17.9
				c0,5.6,0,11.3,0,16.9c0,3,0,6,0,9c0,1.8-1,7.1,0.2,8.4c0.7,0.7,2.1,0.5,3,0.5c6.1,0.1,12.2,0,18.3,0c22,0,44,0,66.1,0
				c15.6,0,31.2,0,46.8,0c1,0,5.4-1.9,3.1-1.9c-32.1,0-64.2,0-96.3,0c-8.4,0-16.8,0-25.2,0c-2.5,0-5.1,0-7.6,0c-0.6,0-3.1,0.4-3.6,0
				s0.1-8,0.1-9.2c0-5.6,0-11.3,0-16.9c0-11,0-21.9,0-32.9c0-2.3,0.2-4.7,0-7c0.1,1.4-0.2-4.1-1-3.1c0.2-0.2,3.2-0.2,3.8-0.2
				c6.2-0.4,12.3-0.6,18.5-0.6c10.6,0,21.3,0.6,31.8,2.6c17.4,3.4,33.1,11.2,46.1,23.3c6.4,6,12,12.9,16.9,20.3
				c1.3,2,14.3,24,13.1,24.6C1153.3,526.9,1158.1,526.4,1159,525.9z"/>
		</g>
		<g>
			<g>
				<ellipse class="st5" cx="1098" cy="737.5" rx="55.9" ry="55.9"/>
				<g>
					<path class="st4" d="M1156.3,737c-0.3-24.6-16.5-46.8-40.2-53.9c-22.3-6.7-47.8,0.7-62.9,18.5c-16.1,18.9-17.9,46.9-4.1,67.7
						c13.3,20,37.9,29,61.1,23.9C1136.7,787.2,1156,764.2,1156.3,737c0-1-4.8-0.3-4.8,1.3c-0.3,22.5-14.1,43.8-35.7,51.4
						c-21.8,7.6-46.5-1.1-60.2-19.2c-13.2-17.5-14.6-41.8-3.8-60.8c11.8-20.7,36-31.2,59.1-24.9c24,6.6,40.3,28.9,40.6,53.5
						C1151.5,739.3,1156.4,738.5,1156.3,737z"/>
				</g>
			</g>
			<g>
				
					<ellipse transform="matrix(0.9674 -0.2532 0.2532 0.9674 -150.9956 302.0473)" class="st3" cx="1098" cy="737.6" rx="41.3" ry="41.3"/>
				<g>
					<path class="st4" d="M1141.8,737c-0.3-18.7-12.8-35.3-31-40.2c-16.4-4.4-35.3,1.2-46.4,14.2c-12.2,14.3-13.5,35.6-2.6,51.1
						c10.2,14.5,28.5,20.6,45.6,16.6C1127.1,774.1,1141.5,757.4,1141.8,737c0-0.8-4.8-0.1-4.8,1.3c-0.3,16.3-10.1,32.1-25.8,37.7
						c-16.2,5.8-34.8-1.5-44.5-15.2c-9-12.7-9.9-29.9-2.4-43.5c8.6-15.7,26.6-23.6,43.9-18.3c17.2,5.3,28.6,21.4,28.8,39.3
						C1137,739.1,1141.8,738.3,1141.8,737z"/>
				</g>
			</g>
			<g>
				<circle class="st5" cx="1098" cy="737.6" r="11.2"/>
				<g>
					<path class="st5" d="M1111.6,737c-0.9-16.4-27.2-14.1-27.2,1.3C1084.5,754.8,1110.8,752.2,1111.6,737c0-0.7-4.8-0.1-4.8,1.3
						c-0.1,2.3-0.7,4.3-2.1,6.2c-2.2,3-6.9,3.8-10.1,2c-3.3-1.9-5.4-5.6-5.4-9.5c0-1.9,0.5-3.8,1.5-5.4c1.9-3.2,6.4-4.7,9.7-3.2
						c4,1.8,6.1,5.6,6.3,9.9C1106.9,739.1,1111.7,738.3,1111.6,737z"/>
				</g>
			</g>
		</g>
		<g>
			<g>
				<ellipse class="st5" cx="733" cy="737.6" rx="55.9" ry="55.9"/>
				<g>
					<path class="st4" d="M791.3,737c-0.3-24.6-16.5-46.8-40.2-53.9c-22.3-6.7-47.8,0.7-62.9,18.5c-16.1,18.9-17.9,46.9-4.1,67.7
						c13.3,20,37.9,29,61.1,23.9C771.6,787.2,790.9,764.2,791.3,737c0-1-4.8-0.3-4.8,1.3c-0.3,22.5-14.1,43.8-35.7,51.4
						c-21.8,7.6-46.5-1.1-60.2-19.2c-13.2-17.5-14.6-41.8-3.8-60.8c11.8-20.7,36-31.2,59.1-24.9c24,6.6,40.3,28.9,40.6,53.5
						C786.5,739.3,791.3,738.5,791.3,737z"/>
				</g>
			</g>
			<g>
				<ellipse class="st3" cx="733" cy="737.6" rx="41.3" ry="41.3"/>
				<g>
					<path class="st4" d="M776.7,737c-0.3-18.7-12.8-35.3-31-40.2c-16.4-4.4-35.3,1.2-46.4,14.2c-12.2,14.3-13.5,35.6-2.6,51.1
						c10.2,14.5,28.5,20.6,45.6,16.6C762,774.1,776.4,757.4,776.7,737c0-0.8-4.8-0.1-4.8,1.3c-0.3,16.3-10.1,32.1-25.8,37.7
						c-16.2,5.8-34.8-1.5-44.5-15.2c-9-12.7-9.9-29.9-2.4-43.5c8.6-15.7,26.6-23.6,43.9-18.3c17.2,5.3,28.6,21.4,28.8,39.3
						C771.9,739.1,776.7,738.3,776.7,737z"/>
				</g>
			</g>
			<g>
				<circle class="st5" cx="733" cy="737.6" r="11.2"/>
				<g>
					<path class="st5" d="M746.6,737c-0.9-16.4-27.2-14.1-27.2,1.3C719.4,754.8,745.7,752.2,746.6,737c0-0.7-4.8-0.1-4.8,1.3
						c-0.1,2.3-0.7,4.3-2.1,6.2c-2.2,3-6.9,3.8-10.1,2c-3.3-1.9-5.4-5.6-5.4-9.5c0-1.9,0.5-3.8,1.5-5.4c1.9-3.2,6.3-4.7,9.7-3.2
						c4,1.8,6.1,5.6,6.3,9.9C741.8,739.1,746.6,738.3,746.6,737z"/>
				</g>
			</g>
		</g>
		<path class="st2" d="M1035.3,735.9c0-35.1,28.5-63.6,63.6-63.6s63.6,28.5,63.6,63.6l0,0c0,0.7,0.6,1.3,1.3,1.3c19,0,34.5,0,43.1,0
			c3.9,0,7.1-3.2,7-7.1l-0.9-71.9c-0.3-22.4-6.5-44.3-17.9-63.6c-12.8-21.6-28.8-49.6-34-62.9c-0.4-0.3-0.8-0.5-1.2-0.8H1026
			c-0.7,0-1.3,0.6-1.3,1.3c0,68,0,135.9,0,203.9c0,0.7,0.6,1.3,1.3,1.3h8C1034.7,737.2,1035.3,736.6,1035.3,735.9L1035.3,735.9z"/>
		<path class="st3" d="M1031.6,718.3c0.5,0,0.8-1.3,0.8-1.6c0.2-0.9,0.4-1.7,0.6-2.6c0.4-1.7,0.9-3.4,1.5-5.1
			c1.2-3.3,2.6-6.5,4.4-9.6c3.5-6.2,8.2-11.7,13.6-16.3c23.1-20.1,58.7-22.7,84.4-5.7c16.9,11.2,30.8,32.1,30.8,52.8
			c0,0.7,32.1-0.3,40.6-0.3c3.9,0,5.6,0.7,5.6-3.1l-0.9-74.6c-0.3-21.4-6.5-42.3-17.9-60.7c-12.8-20.6-28.8-47.4-34-60.1
			c-0.4-0.3-0.8-0.5-1.2-0.8h-128.6c0,0.7,0,1.4,0,2.1c0,2,0,4,0,6c0,40,0,80.4,0,120.6c0,3.5,0,7,0,10.5c0,7.6,0,15.2,0,22.8
			c0,4.3,0,8.7,0,13c0,3.5,0,7,0,10.5c0,0.3,0,0.7,0,1c0,0.2-0.1,0.6,0,0.7C1031.4,718.2,1031.5,718.3,1031.6,718.3z"/>
		<g>
			<path class="st4" d="M1215.7,689.1c-0.3-21,0.8-42.4-4.7-62.9c-4.9-18.4-14.8-34.1-24.2-50.5c-7.9-13.7-16.1-27.6-22.3-42.2
				c-2-4.8-4.7-3.8-9.3-3.8c-7.2,0-14.5,0-21.7,0c-21.2,0-42.4,0-63.5,0c-13.8,0-27.8-0.5-41.6,0c-1.7,0.1-3.9,0.1-5.2,1.3
				c-2.1,2-0.9,7-0.9,9.6c0,5.7,0,11.3,0,17c0,22,0,44,0,66s0,44,0,66c0,11,0,22,0,33c0,2.7,0,5.3,0,8c0,1.6-0.8,5.6,0.4,6.9
				c0.9,1,2.8,0.7,4,0.7c2.6,0,8.5,0.9,10.4-1.5c1.4-1.7,0.7-4.9,0.8-7c0.4-4.2,1.2-8.4,2.4-12.4c4.3-14.5,13.8-27.2,26.6-35.2
				c28.2-17.7,66-6.9,83.4,20.7c3.9,6.2,6.7,13,8.2,20.1c0.8,3.6,1.3,7.2,1.4,10.8c0.1,3.1-0.1,4.1,3.2,4.4c9.1,1,19,0,28.1,0
				c5.6,0,12.1,0.9,17.6-0.5c4.9-1.3,7.4-4.6,7.4-9.6c0-0.8-4.8-0.1-4.8,1.3c0.1,8.8-9.3,6.9-15.6,6.9c-8.6,0-17.1,0-25.7,0
				c-2,0-4.6,0.3-5.3-1.6c-0.5-1.3-0.1-3.4-0.2-4.9c-0.3-3.8-1-7.6-2-11.3c-1.8-6.6-4.7-12.8-8.5-18.5
				c-15.1-22.5-42.9-32.7-69.1-26.8s-47.3,26.9-51.4,53.7c-0.3,1.7-1.9,8.7-0.8,9.9c0,0,4.4-0.2,1.3-0.3c-1.3-0.1-2.6,0-3.9,0
				c-0.5,0-2.1,0.3-2.5,0c-1.3-0.9-0.5-4.7-0.5-5.9c0-5.7,0-11.3,0-17c0-20.7,0-41.3,0-62c0-21.3,0-42.6,0-64c0-10.3,0-20.7,0-31
				c0-5,0-10,0-15c0-1.6,0.8-6.6,0-8c-0.2-0.3-2.9-1.3-2.6-1.6c0.5-0.4,2.9,0,3.6,0c2.5,0,5.1,0,7.6,0c7.8,0,15.6,0,23.4,0
				c20.3,0,40.6,0,60.8,0c8.4,0,16.8,0,25.1,0c2.7,0,5.4,0,8.1,0c1.2,0,3.4-0.4,4.5,0c2.1,0.8,3.7,7,4.7,9.2
				c3.3,6.9,7,13.7,10.6,20.4c8.4,15.2,18.3,29.8,25.6,45.6c7.5,16.3,11.4,34,11.7,51.9c0.1,7.9,0.2,15.9,0.3,23.8
				c0,2.6,0.1,5.2,0.1,7.8C1210.9,691.2,1215.7,690.5,1215.7,689.1L1215.7,689.1z"/>
		</g>
		<path class="st2" d="M1199.1,635.5c-11.9,11.2-114.8-10.2-149.7-18c-6.8-1.5-11.6-7.5-11.6-14.3v-39.7c0-8.1,6.6-14.7,14.8-14.7
			h95.1c5.3,0,10.2,2.8,12.8,7.3C1172.3,576.3,1203.6,631.3,1199.1,635.5z"/>
		<path class="st0" d="M1195.5,629.4c-11.6,11-111.6-10-145.6-17.6c-6.6-1.5-11.3-7.3-11.3-14v-38.9c0-7.9,6.4-14.4,14.4-14.4h92.5
			c5.1,0,9.9,2.7,12.4,7.2C1169.3,571.4,1199.8,625.3,1195.5,629.4z"/>
		<path class="st6" d="M1184.3,621.4c-10.2,9-98.4-8.2-128.4-14.4c-5.8-1.2-9.9-6-9.9-11.5v-31.8c0-6.5,5.7-11.8,12.7-11.8h81.6
			c4.5,0,8.7,2.2,11,5.9C1161.3,574,1188.2,618,1184.3,621.4z"/>
		<g>
			<path class="st4" d="M1193.6,629.2c-2.7,2.4-7.9,2.1-11.3,2.2c-7.1,0.2-14.3-0.4-21.4-1.1c-17.6-1.8-35.1-4.7-52.5-7.9
				c-16-2.9-32-6.2-48-9.6c-8.5-1.8-18.3-3.6-19.4-14.2c-0.4-4.4-0.1-9.1-0.1-13.5c0-6.8,0-13.6,0-20.4c0-6.8-0.3-15.2,7.6-18.2
				c2.8-1.1,6.7-0.6,9.6-0.6c5.2,0,10.5,0,15.7,0c14.7,0,29.5,0,44.2,0c8.7,0,17.5-0.5,26.2,0c9.7,0.5,13.3,10.2,17.5,17.6
				c5,8.9,10,17.8,14.8,26.8c4.4,8.2,8.7,16.5,12.5,25c1,2.2,6.4,11.9,4.3,14.4c-1.2,1.4,3.5,0.9,4.4-0.1c2.3-2.6-1.1-9-2.1-11.5
				c-3.3-8.1-7.3-15.9-11.3-23.7c-4.6-8.9-9.5-17.7-14.4-26.5c-2-3.6-4.1-7.2-6.1-10.8c-2-3.5-3.8-7.6-7.1-10.2
				c-7.1-5.5-20.3-3.4-28.7-3.4c-15.9,0-31.7,0-47.6,0c-9.2,0-18.6-0.7-27.8,0.1c-8.8,0.7-16,7.1-16.4,16.1c-0.2,5,0,10,0,15
				c0,7.1,0,14.3,0,21.4c0,7.4,2.9,14,10.4,16.5c6.6,2.2,14,3.1,20.9,4.6c9.1,1.9,18.1,3.7,27.2,5.5c21.6,4.1,43.4,8,65.3,10.1
				c7.9,0.7,16,1.4,23.9,0.8c4.4-0.3,10-0.8,13.5-3.9C1199.3,627.9,1194.6,628.3,1193.6,629.2z"/>
		</g>
		<g>
			<path class="st0" d="M651.2,718.9h-3.9c-4.7,0-8.5-3.8-8.5-8.5V702c0-4.7,3.8-8.5,8.5-8.5h3.9c4.7,0,8.5,3.8,8.5,8.5v8.3
				C659.7,715.1,655.9,718.9,651.2,718.9z"/>
			<g>
				<path class="st4" d="M652.1,717.4c-2.2,0-4.8,0.3-6.8-0.7c-3.1-1.5-4-4.6-4.1-7.7c-0.1-4.5-1.1-11,3.7-13.2
					c14.8-6.8,16.3,20.8,6.5,21.6c-2.5,0.2-3.9,3.3-0.6,3c4.6-0.4,9-2.7,10.6-7.2c1.1-2.9,0.6-6.5,0.6-9.5c0-8.9-6-12.1-14.2-11.6
					c-4.2,0.2-8.4,2.1-10.4,6c-1.6,3.1-1.1,7-1.1,10.3c0,9.2,5.4,12.1,13.9,12.1C652.4,720.4,655.4,717.4,652.1,717.4z"/>
			</g>
		</g>
		<g>
			<path class="st0" d="M1210.3,725.1h-3.9c-4.7,0-8.5-3.8-8.5-8.5V702c0-4.7,3.8-8.5,8.5-8.5h3.9c4.7,0,8.5,3.8,8.5,8.5v14.7
				C1218.8,721.3,1215,725.1,1210.3,725.1z"/>
			<g>
				<path class="st4" d="M1211.2,723.6c-3.5,0-7.1,0.2-9.4-3c-1.7-2.3-1.4-5.1-1.4-7.8c0-5.1-1.7-14.6,3.7-17.1
					c3.8-1.8,9.3-0.7,11.3,3.2c1.2,2.3,0.9,4.8,0.9,7.3c0,5.3,2,16.8-5.8,17.4c-2.5,0.2-3.9,3.3-0.6,3c5.1-0.4,10.2-3.5,11.1-8.9
					c0.6-3.7,0.1-7.9,0.1-11.6c0-4,0.4-8-2.7-11.2c-3-3.1-7.4-3.2-11.5-3c-4.8,0.2-9.6,2.8-11.1,7.6c-1.1,3.6-0.4,8.3-0.4,12
					s-0.5,7.9,1.8,11.1c3,4,7.5,4,12.1,4C1211.4,726.7,1214.5,723.6,1211.2,723.6z"/>
			</g>
		</g>
		<g>
			<path class="st4" d="M1048,639.8c6.5,0,12.9,0,19.4,0c2.7,0,3.7-3.4,0.5-3.4c-6.5,0-12.9,0-19.4,0
				C1045.7,636.3,1044.7,639.8,1048,639.8L1048,639.8z"/>
		</g>
		<g>
			<path class="st7" d="M661.3,430.8l340.7,0.1c8.8,0,15.9,7.1,15.9,15.9v210.6c0,8.8-7.1,15.9-15.9,15.9l-340.7-0.1
				c-8.8,0-15.9-7.1-15.9-15.9V446.7C645.4,437.9,652.5,430.8,661.3,430.8z"/>
			<path class="st8" d="M685.7,442.5l292.3,0.1c13.4,0,24.2,10.8,24.2,24.2v169.5c0,13.4-10.8,24.2-24.2,24.2l-292.3-0.1
				c-13.4,0-24.2-10.8-24.2-24.2V466.7C661.5,453.4,672.4,442.5,685.7,442.5z"/>
			<g>
				<path class="st4" d="M867.9,432.3c42,0,84.1,0,126.1,0c6.6,0,15.7-1.6,19.8,5c2.5,4,1.6,10,1.6,14.5c0,20.6,0,41.2,0,61.8
					c0,47,0,94,0,141.1c0,6.8,0.9,16-8.5,17c-2.2,0.2-4.5,0-6.7,0c-15.2,0-30.4,0-45.6,0c-52.5,0-104.9,0-157.4,0
					c-42.6,0-85.1,0-127.7,0c-3.6,0-7.2,0.1-10.8,0c-7.5-0.2-11.1-5.9-11-12.7c0-16.5,0-33.1,0-49.6c0-50.1,0-100.2,0-150.4
					c0-5.2-0.1-10.4,0-15.6c0.1-5.4,2.6-10.5,8.5-11.1c1.4-0.1,2.9,0,4.3,0c22.6,0,45.2,0,67.8,0c38.8,0,77.7,0,116.5,0
					C852.6,432.3,860.3,432.3,867.9,432.3c2,0,5.1-3,1.8-3c-35.1,0-70.3,0-105.4,0c-27.2,0-54.4,0-81.7,0c-7.7,0-15.5,0-23.2,0
					c-8.7,0-16.3,4.8-16.6,14.2c-0.5,15,0,30.2,0,45.2c0,27.6,0,55.2,0,82.9c0,24.1,0,48.2,0,72.3c0,5.5-0.1,11,0,16.6
					c0.1,8.2,5.4,14,13.8,14.2c33,0.9,66.2,0,99.3,0c55.7,0,111.4,0,167.1,0c20.4,0,40.9,0,61.3,0c5.5,0,10.9,0,16.4,0
					c5,0,9.8,0,14.1-3.3c5.5-4.3,5.3-10,5.3-16.2c0-7.9,0-15.9,0-23.8c0-26.1,0-52.2,0-78.2c0-26.4,0-52.7,0-79.1
					c0-8.3,0-16.6,0-24.9c0-5.1,0.7-10.7-2.8-15c-4.9-6.1-13.1-5-20-5c-11.1,0-22.2,0-33.3,0c-26.6,0-53.1,0-79.7,0
					c-4.9,0-9.9,0-14.8,0C867.8,429.3,864.7,432.3,867.9,432.3z"/>
			</g>
		</g>
		<g>
			<path class="st1" d="M799.1,742.8c-2.1,0-3.8-1.7-3.8-3.8c0-34.3-28-62.3-62.4-62.3s-62.4,27.9-62.4,62.3c0,2.1-1.7,3.8-3.8,3.8
				s-3.8-1.7-3.8-3.8c0-38.5,31.4-69.8,69.9-69.8s69.9,31.3,69.9,69.8C802.9,741.1,801.2,742.8,799.1,742.8z"/>
			<g>
				<path class="st4" d="M800.7,741.7c-4-0.6-2.9-6.7-3.2-9.6c-0.4-3.6-1-7.2-2-10.7c-1.9-6.6-4.9-12.9-8.8-18.5
					c-7.4-10.7-18-18.8-30.2-23.3c-24.4-9-53.3-1.9-71.1,17c-9.1,9.7-15,22.1-16.6,35.2c-0.2,1.4-0.3,9.9-1.8,9.4
					c-2.9-0.9-1-10.4-0.7-12.3c1-6.9,3-13.6,5.9-19.9c13.1-27.8,43.8-43.9,74-37.2c15.4,3.4,29.4,12.2,39.3,24.5
					c4.9,6.1,8.7,13.1,11.3,20.5c0.9,2.5,6.7,24.3,2.9,24.9c-2,0.3-4.2,2.5-0.8,2c7.1-1.2,6.9-6.1,6.3-12.3
					c-0.8-7.8-2.9-15.5-6.2-22.6c-6.3-13.4-16.8-24.6-29.7-31.8c-25.4-14-58.1-10.9-80.9,6.9c-11.5,9-20.1,21.3-24.4,35.2
					c-1.1,3.5-1.8,7-2.3,10.6c-0.4,3.1-1.6,8.1-0.5,11.1c1.6,4.4,8.8,3.4,11.2,0.2c1.6-2.2,1-5.8,1.2-8.3c0.4-4.4,1.3-8.8,2.7-13.1
					c2.4-7.5,6.2-14.5,11.2-20.5c11-13.3,27.3-21.4,44.6-21.4c18.1,0,35.5,8.5,47.1,22.4c5.6,6.7,9.7,14.7,12,23.1
					c1.2,4.4,1.9,8.9,2.1,13.5c0.2,3.9,0.5,6.3,4.7,7C798.7,744,803.1,742.1,800.7,741.7z"/>
			</g>
		</g>
	</g>
	<g>
		<path class="st9" d="M274,420.7h158.8c14.5,0,26.2,11.9,26.2,26.6v322.8c0,14.7-11.7,26.6-26.2,26.6H274
			c-14.5,0-26.2-11.9-26.2-26.6V447.3C247.7,432.6,259.5,420.7,274,420.7z"/>
		<g>
			<path class="st0" d="M281.7,420.7h158.8c14.5,0,26.2,11.9,26.2,26.6v322.8c0,14.7-11.7,26.6-26.2,26.6H281.7
				c-14.5,0-26.2-11.9-26.2-26.6V447.3C255.5,432.6,267.2,420.7,281.7,420.7z"/>
			<g>
				<path class="st4" d="M281.5,422.5c36.7,0,73.4,0,110.1,0c15.9,0,31.7-0.2,47.6,0c14,0.2,24.8,11,25.1,25c0,1.9,0,3.9,0,5.8
					c0,34.5,0,69,0,103.5c0,48.3,0,96.7,0,145c0,16.9,0,33.8,0,50.7c0,8.7,1.4,19.8-2.1,28c-4.4,10.3-13.9,14.5-24.5,14.5
					c-6.6,0-13.2,0-19.8,0c-23.3,0-46.7,0-70,0c-19.6,0-39.3,0-58.9,0c-6.4,0-12.5,0.3-18.3-3c-8.7-4.9-12.7-14-12.8-23.6
					c-0.2-30.2,0-60.3,0-90.5c0-48.6,0-97.2,0-145.8c0-28.1-0.4-56.2,0-84.3C258.1,434.2,267.5,422.8,281.5,422.5
					c2.8-0.1,3.7-3.7,0.4-3.6c-15.8,0.4-28.5,12.8-28.9,28.6c0,2.2,0,4.3,0,6.5c0,14.1,0,28.2,0,42.2c0,48.3,0,96.6,0,144.9
					c0,39.3,0,78.7,0,118c0,3.4,0,6.8,0,10.1c0.1,10.2,4.5,19.7,13.4,25.1c6.3,3.8,13,4.1,20.1,4.1c7.8,0,15.6,0,23.4,0
					c42.5,0,85,0,127.5,0c18,0,31.7-12.1,31.7-30.6c0-11.2,0-22.4,0-33.6c0-46.4,0-92.9,0-139.3c0-42.6,0-85.3,0-127.9
					c0-8.2,1-17.2-0.5-25.3c-2.5-13.7-14.7-22.8-28.3-22.9c-4.8-0.1-9.7,0-14.5,0c-44.4,0-88.8,0-133.3,0c-3.6,0-7.2,0-10.8,0
					C279.1,418.9,278.2,422.5,281.5,422.5z"/>
			</g>
		</g>
		<rect x="267.2" y="465.3" class="st7" width="187.8" height="283"/>
		<rect x="267.2" y="465.3" class="st8" width="180.1" height="283"/>
		<g>
			<path class="st4" d="M265.6,749.3c21.1,0,42.3,0,63.4,0c33.7,0,67.4,0,101.1,0c7.7,0,15.5,0,23.2,0c0.9,0,4-0.3,4-1.7
				c0-31.9,0-63.9,0-95.8c0-50.8,0-101.7,0-152.5c0-11.6,0-23.2,0-34.7c0-0.3-0.7-0.4-0.9-0.4c-21.1,0-42.3,0-63.4,0
				c-33.7,0-67.4,0-101.1,0c-7.7,0-15.5,0-23.2,0c-0.9,0-4,0.3-4,1.7c0,31.9,0,63.9,0,95.8c0,50.8,0,101.7,0,152.5
				c0,11.6,0,23.2,0,34.7c0,0.8,4.8,0.1,4.8-1.3c0-31.9,0-63.9,0-95.8c0-50.8,0-101.7,0-152.5c0-11.6,0-23.2,0-34.7
				c-1.3,0.6-2.6,1.1-4,1.7c30.3,0,60.6,0,90.9,0c21.4,0,42.7,0,64.1,0c7.3,0,14.7,0,22,0c2.7,0,7.9-1,10.5,0
				c-0.2-0.1-0.4-0.7-0.6,0.3s0,2.1,0,3.1c0,4.4,0,8.9,0,13.3c0,16.1,0,32.2,0,48.3c0,44.1,0,88.1,0,132.2c0,18.5,0,36.9,0,55.4
				c0,6.2,0,12.4,0,18.6c0,3.2-0.6,7,0,10.1c0.1,0.4,0,0.9,0,1.3c1.3-0.6,2.6-1.1,4-1.7c-21.1,0-42.3,0-63.4,0
				c-33.7,0-67.4,0-101.1,0c-7.7,0-15.5,0-23.2,0C267.7,747.3,263.3,749.3,265.6,749.3z"/>
		</g>
		<g>
			<path class="st9" d="M338.9,447.6c6.8,0,13.7,0,20.5,0c4.2,0,8.5,0,12.7,0c2.4,0,4.8,0.1,7-1.1c3.6-2,4.2-7.3-0.2-8.8
				c-2-0.7-4.7-0.3-6.7-0.3c-9,0-18,0-27,0c-2.6,0-5.3-0.3-7.8,0.7c-5.2,2.1-4.8,8.6,0.9,9.5c1.3,0.2,5.6-2,3-2.4
				c-2.8-0.5-3.9-4.4-1.8-5.4c0.8-0.4,2.8,0,3.7,0c4.1,0,8.1,0,12.2,0c4.3,0,8.6,0,12.9,0c2.5,0,5.7-0.7,7.6,1
				c1.6,1.4,1.8,3.6,0.1,4.3c-0.9,0.4-2.6,0-3.6,0c-4.1,0-8.1,0-12.2,0c-6.5,0-13,0-19.5,0C339.2,445.1,335.6,447.6,338.9,447.6z"/>
		</g>
		<g>
			<path class="st4" d="M342.1,447.4c6.8,0,13.7,0,20.5,0c4.2,0,8.5,0,12.7,0c2.4,0,4.8,0.1,7-1.1c3.6-2,4.3-7.2-0.2-8.6
				c-2-0.6-4.7-0.2-6.7-0.2c-9,0-18,0-27,0c-2.6,0-5.3-0.3-7.8,0.7c-5.2,2.1-4.8,8.3,0.8,9.3c1.2,0.2,5.6-1.8,3.1-2.2
				c-2.3-0.4-4.2-4.5-2-5.6c0.7-0.3,2.4,0,3.2,0c3.9,0,7.9,0,11.8,0c4.6,0,9.3,0,13.9,0c2,0,5.2-0.6,7.1,0.2c1.8,0.8,2.8,4.5,1,5.3
				c-0.7,0.3-2.4,0-3.2,0c-4.1,0-8.2,0-12.3,0c-6.7,0-13.4,0-20,0C342.6,445.2,338.9,447.4,342.1,447.4z"/>
		</g>
		<g>
			<path class="st9" d="M318.1,447.6c3,0,6.9-1.5,7.4-4.9c0.4-3.2-2.1-5.3-5.2-5.4c-3,0-7,1.6-7.4,4.9
				C312.6,445.5,315.1,447.4,318.1,447.6c1,0.1,2.6-0.4,3.2-1.3c0.6-1-0.5-1.2-1.3-1.3c-1.5-0.1-2.3-1.9-2.3-3.1
				c0-0.6,0.1-1.2,0.4-1.7c0-0.1,0.5-0.6,0.5-0.6c-0.6,0.1-0.7,0.1-0.5,0.1c0.1,0,0.1,0,0.2,0c0.4,0.4,1.1,0.4,1.5,0.9
				c0.5,0.6,0.8,1.4,0.8,2.2c0,0.5-0.1,1.1-0.3,1.5c0,0-0.6,0.8-0.6,0.7c0-0.1,1-0.1,0.3-0.1c-1,0-2.6,0.4-3.2,1.3
				C316.3,447.3,317.4,447.6,318.1,447.6z"/>
		</g>
		<g>
			<path class="st4" d="M322.1,448.1c3.2,0,6.6-2.3,6.7-5.7c0.1-3.3-2.5-5.6-5.7-5.7s-6.6,1.9-7,5.3c-0.4,3.3,2.2,5.9,5.4,6.1
				c1.2,0.1,2.6-0.3,3.1-1.5c0.5-1.1-0.4-2-1.5-2.1c-1.3-0.1-2.1-1-2.1-2.3c0-0.6,0.1-1.3,0.5-1.7c0.2-0.2,0.3-0.2,0.6-0.2
				c1,0.2,1.7,1.2,1.7,2.3c0,0.6-0.1,1.2-0.5,1.7c-0.3,0.3-0.3,0.2-0.8,0.2c-1.1,0-2.5,0.8-2.7,2
				C319.7,447.8,321.1,448.1,322.1,448.1z"/>
		</g>
		<g>
			<g>
				<path class="st9" d="M348.8,783.1c3.5,0,6.9,0,10.4,0c3.4,0,7.4,0.5,10.7-0.5c11.2-3.6,9.1-19.2-2.5-19.9c-3.4-0.2-6.8,0-10.2,0
					c-3.4,0-7.2-0.5-10.5,0.4c-11.5,2.9-10.3,19.1,1.6,20.1c2.4,0.2,4.9-3.3,1.7-3.6c-5.3-0.4-9-7.2-4.9-11.4
					c2.1-2.1,4.5-1.9,7.2-1.9c4.8,0,10.4-0.9,15.1,0.1c5,1.1,6.9,7.5,3.6,11.3c-2,2.3-4.9,1.9-7.6,1.9c-4.7,0-9.4,0-14.1,0
					C346.4,779.6,345.5,783.1,348.8,783.1z"/>
			</g>
			<g>
				<path class="st4" d="M351.2,782.5c6.5,0,14,1,20.4-0.3c11.2-2.3,12.1-18.2-0.3-19c-6.4-0.4-14-0.9-20.3,0.2
					c-11.2,2-12.8,18-0.3,19c1.3,0.1,5.6-2.1,3-2.3c-5-0.4-8.2-5-7-9.9c1-4.1,4.1-4.7,7.5-4.7c5,0,10.8-0.9,15.6,0.1
					c4.6,0.9,7,6,5.6,10.3c-1.3,3.9-4.5,4-7.7,4c-4.8,0-9.6,0-14.5,0C351.6,780.2,348,782.5,351.2,782.5z"/>
			</g>
		</g>
		<ellipse class="st10" cx="357.2" cy="608.7" rx="46.2" ry="46.2"/>
		<g>
			<g>
				<path class="st4" d="M295.2,538.9c7.9,6,14.8,13,20.8,20.9c0.9,1.2,5.6-0.4,4.5-1.8c-6-7.9-12.9-14.9-20.8-20.9
					C298.5,536.1,294.1,538,295.2,538.9L295.2,538.9z"/>
			</g>
			<g>
				<path class="st4" d="M332.7,521.2c3.9,9.1,6.5,18.6,7.9,28.5c0.3,2,5.1,0.8,4.8-1.3c-1.4-9.8-4-19.3-7.9-28.5
					C336.7,518,332,519.4,332.7,521.2L332.7,521.2z"/>
			</g>
			<g>
				<path class="st4" d="M375.2,520.2c-3.9,9.3-6.6,18.9-8,28.9c-0.3,2.5,4.6,1.9,4.9-0.3c1.3-9.7,3.9-19,7.7-28
					C381,518.3,376.1,518.2,375.2,520.2L375.2,520.2z"/>
			</g>
			<g>
				<path class="st4" d="M420.1,541.2c-8.9,4.8-17,10.7-24.3,17.7c-2,1.9,2.8,1.6,3.8,0.6c7-6.7,14.8-12.5,23.4-17.1
					C425.8,540.8,421.5,540.4,420.1,541.2L420.1,541.2z"/>
			</g>
			<g>
				<path class="st4" d="M309.8,578.3c-9.7-2.9-19.6-4.4-29.7-4.6c-1.8,0-5.1,2.7-1.9,2.7c9.8,0.2,19.3,1.7,28.6,4.5
					C308.4,581.4,312.5,579.1,309.8,578.3L309.8,578.3z"/>
			</g>
			<g>
				<path class="st4" d="M435.9,577.3c-10.6,0.5-20.9,2.5-30.9,5.7c-3.3,1-0.2,1.9,1.7,1.3c8.8-2.8,17.9-4.4,27.2-4.9
					C435.3,579.4,439.1,577.2,435.9,577.3L435.9,577.3z"/>
			</g>
		</g>
		<g>
			<g>
				<path class="st0" d="M350.9,925.1c1.2,3.8,2.5,7.5,3.6,11.1c3.4,10.9,1.1,22.3,3.3,33.4c1.4,7,2,14.2,2.1,21.3l2.2,43.1
					c0,0,121.8,10,122.4,10c-0.1-15.3-1.8-40.4-1.9-55.7c-0.1-6.2-0.6-11.5,1.7-17.2c3-7.4,7.3-14.2,10.3-21.7
					c4.5-10.9,8.1-22.1,10.7-33.5c2.5-10.8,1.3-21.9,1.2-33c-0.1-5.1,0.2-5.6-3.7-7.8c-3.2-1.8-6.6-3.1-9.9-4.5
					c-7-2.9-14.1-5.3-21.3-7.2c-2.6-0.7-5.1-1.3-7.7-1.9c-18.7-4-38.3-5.4-57.4-3.1c-17,2-38.4,7-50.1,20.6
					c-5.6,6.6-8.3,15.9-9,24.4C346.9,910.9,348.7,918.1,350.9,925.1z"/>
				<g>
					<path class="st4" d="M486.6,1043.7c-0.1-12.2-0.5-24.5-0.7-36.7c-0.3-12.7-2.7-27.5,2.7-39.3c3.1-6.7,6.8-13.1,9.6-20
						c2.6-6.4,4.9-13,6.9-19.6c2.1-7.1,4.1-14.2,4.7-21.6c0.6-8,0-16-0.2-24c0-2.3-4.9-1.4-4.9,0.5c0.1,7.7,0.7,15.4,0.2,23.1
						c-0.5,7.4-2.4,14.6-4.5,21.7c-2.3,7.8-4.9,15.7-8.2,23.1c-3,6.8-6.9,13.1-9.6,20c-2.4,6.1-1.9,12.4-1.9,18.8
						c0.1,5.7,0.2,11.5,0.3,17.2c0.3,12.5,0.6,25,0.7,37.5C481.7,1046.5,486.6,1045.6,486.6,1043.7L486.6,1043.7z"/>
				</g>
				<g>
					<path class="st4" d="M357.1,991.3c1.2,14,2.7,28.1,3,42.2c0,2.4,4.9,1.5,4.9-0.5c-0.3-14.3-1.8-28.7-3-43
						C361.7,988,356.9,989.1,357.1,991.3L357.1,991.3z"/>
				</g>
			</g>
			<g>
				<path class="st0" d="M435.5,956.4c-0.3-3.1-0.7-6.1-1-9.2c-0.5-5.1-1-10.3-1.4-15.4c-1.3-15.6-6.5-28.4-18.5-39.1
					c-12.7-11.4-29.4-16.9-44.8-23.5c-7-3-14.8-7.4-22.7-9.5l-15.5-75.6c-2.7-13.3-15.7-21.8-29-19.1h-0.2
					c-13.2,2.7-21.8,15.7-19.1,28.9l18.3,89.3c0.4,3.9,1.8,7.4,2.8,11c0.8,3.1,1.8,6.1,2.7,9.1c1,3.2,2,6.4,3.2,9.5
					c3,8.4,10.2,15.7,15.5,22.9c6.8,9.1,13.7,17.7,21.6,25.7c7,7.1,9.7,19.2,12,28.5L435.5,956.4z"/>
				<g>
					<path class="st4" d="M349.6,859.1c-3.9-18.9-7.7-37.7-11.6-56.6c-1.4-6.8-2.4-13.7-4.2-20.4c-4.2-15.6-21.7-22.5-36.1-16.8
						c-12.4,4.9-19,17.3-16.4,30.2c1.5,7.8,3.2,15.6,4.8,23.4c4.3,21,8.8,42,12.9,63.1c1.2,6.3,2.9,12.3,4.7,18.4
						c1.7,5.9,3.3,12.1,6.2,17.5c2.6,5,6.2,9.4,9.7,13.7c8,10,15.5,20.2,24.3,29.5c7.9,8.4,10.5,19.2,13.1,30.1
						c0.4,1.6,5.2,0.3,4.8-1.3c-2-8.3-3.9-17-8.5-24.4c-2.3-3.8-5.6-6.8-8.6-10.1c-3.9-4.3-7.7-8.9-11.3-13.5
						c-6.3-8.1-14-16.2-18.8-25.3c-4.8-9-7.4-20.1-9.8-30c-4.1-16.8-6.9-34.2-10.4-51.1c-2.2-10.5-4.3-21-6.5-31.6
						c-1.4-6.8-3.7-14.1-2-21c2.3-9.5,10.5-17,20.5-17.1c9.4-0.1,18.2,6.2,21.6,15c2.3,6,3,13,4.3,19.2c4.1,20.1,8.3,40.2,12.4,60.3
						C345.1,861.9,349.9,860.7,349.6,859.1L349.6,859.1z"/>
				</g>
				<g>
					<path class="st4" d="M308.7,813.6c-6.2,1.2-12.1-1.7-14.8-7.5c-1.2-2.7-1.5-5.8-2.1-8.6c-1.6-8.2-4.2-19.9,6.7-23.1
						c6.2-1.8,12.6,1.5,15.2,7.3c1.2,2.7,1.5,5.8,2.1,8.6c1.7,8.8,4.1,20.6-7.8,23.4c-2.9,0.7-2.3,2.8,0.6,2.1
						c9.4-2.2,15.1-9.9,13.4-19.6c-1.3-7.6-1.7-17.3-8.6-22.1c-7.2-5-18.6-3.1-24.4,3.4c-6.1,6.9-3.1,15.5-1.6,23.5
						c0.9,4.5,2,8.7,5.8,11.8c4.2,3.5,9.5,4.1,14.8,3.1C310.1,815.6,312.1,813,308.7,813.6z"/>
				</g>
			</g>
			<g>
				<path class="st0" d="M487.5,897.4c-10.9,0.2-20-8.5-20.1-19.5l-1.1-112.3c-0.2-10.9,8.5-19.8,19.4-20h0.2
					c10.9-0.2,19.9,8.5,20,19.4l1.1,112.2C507.2,888.2,487.5,897.4,487.5,897.4z"/>
				<g>
					<path class="st4" d="M469.2,818.9c-0.1-14.3-0.3-28.6-0.4-43c-0.1-6.1-1-13.2,1.6-19c7.1-16,29.2-11.1,32.7,4.7
						c0.8,3.5,0.5,7.3,0.5,10.8c0.1,6.6,0.1,13.2,0.2,19.7c0.2,18.4,0.3,36.7,0.5,55.1c0.1,12,0.2,24,0.3,36c0,1.3,4.8,0.4,4.8-1.3
						c-0.3-30.9-0.6-61.8-0.9-92.8c-0.1-6.7-0.1-13.4-0.2-20.1c-0.1-5.5-0.2-10.6-3.4-15.5c-6.7-10.1-20.7-11.8-30.7-5.8
						c-7.8,4.7-10.5,12.5-10.4,21.1c0.2,17.1,0.3,34.2,0.5,51.2C464.4,821.5,469.3,820.6,469.2,818.9L469.2,818.9z"/>
				</g>
			</g>
			<g>
				<path class="st0" d="M448.1,886.2c0,0-25-11-25.1-24.8l-0.4-128.6c-0.1-13.6,10.9-24.8,24.6-24.9h0.4
					c13.7-0.1,24.8,7.4,24.7,41.2l0.6,112C472.1,877.6,461.9,886.1,448.1,886.2z"/>
				<g>
					<path class="st4" d="M425.5,856.1c-0.1-35.3-0.2-70.7-0.3-106c0-5.6-0.1-11.1-0.1-16.7c0.1-13.4,9.9-24.6,23.9-23.7
						c23,1.4,20.9,32.4,21,49.1c0.1,19.9,0.2,39.7,0.3,59.6c0,2.3,4.9,1.4,4.9-0.5c-0.1-18.9-0.2-37.7-0.3-56.6
						c-0.1-17.3,3.1-47-17.6-53.6c-11.3-3.6-24.7,0.4-31.8,10c-4.9,6.6-5.2,13.8-5.1,21.5c0.1,21.2,0.1,42.4,0.2,63.6
						c0.1,17.9,0.1,35.9,0.2,53.8C420.6,858.8,425.5,857.9,425.5,856.1L425.5,856.1z"/>
				</g>
			</g>
			<g>
				<path class="st0" d="M407.2,866c0,0-25.7,10.2-26-3.3l-2.3-163.9c-0.3-13.4,10.3-24.6,23.7-24.9h0.4
					c13.4-0.3,24.5,10.2,24.8,23.6l2.2,148.9C430.3,859.8,420.7,865.6,407.2,866z"/>
				<g>
					<path class="st4" d="M383.3,816.7c-0.6-38.2-1.3-76.3-1.9-114.5c0-1.4-0.1-2.8-0.1-4.2c0-10.6,7-21.4,18.1-22.9
						c14.6-2,25.6,10.3,25.9,24.1c0.5,19.5,0.6,39,1,58.6c0.3,19.6,0.7,39.2,1,58.9c0,1.2,4.9,0.4,4.8-1.3
						c-0.6-39.1-1-78.3-1.9-117.4c-0.3-13.1-9.6-24.1-23-25.3c-16-1.5-30.7,10.2-30.7,26.6c-0.1,18.1,0.6,36.2,0.9,54.3
						c0.4,21.4,0.7,42.9,1.1,64.3C378.5,819.2,383.3,818.4,383.3,816.7L383.3,816.7z"/>
				</g>
			</g>
			<g>
				<path class="st0" d="M358.7,886.5c-14,0-25.4-11.3-25.5-25.3L331.9,618c0-14,11.2-25.3,25.2-25.4h0.2c14,0,25.3,11.2,25.4,25.2
					L384,861C384.1,875,358.7,886.5,358.7,886.5z"/>
				<g>
					<path class="st4" d="M336.4,815.3c-0.3-25.4-0.5-50.8-0.8-76.2c-0.4-36.3-0.7-72.7-1.1-109c-0.1-12.8-1.2-26.9,12.5-34
						c15.1-7.8,32.3,5.2,33.3,21c0.1,2.4,0.1,4.8,0.1,7.2c0.2,33.5,0.3,67.1,0.5,100.6c0.1,19.2,0.2,38.5,0.3,57.7
						c0.1,10.6-0.8,21.6,0.2,32.2c0,0.5,0,1,0,1.6c0,1.4,4.8,0.5,4.8-1.3c-0.1-26.9-0.3-53.7-0.4-80.6c-0.2-36.4-0.4-72.8-0.5-109.1
						c0-2.7,0-5.4,0-8.1c-0.3-12-8.4-22.4-20.2-25.2c-12-2.9-25.5,2.4-31.8,13.1c-2.9,5-3.6,10.5-3.6,16.1c0.3,32.9,0.7,65.9,1,98.8
						c0.2,20.1,0.4,40.2,0.6,60.3c0.1,11.4-0.6,23.1,0.3,34.5c0,0.5,0,1.1,0,1.7C331.5,817.9,336.4,817,336.4,815.3L336.4,815.3z"/>
				</g>
				<g>
					<path class="st4" d="M358.1,640.6c-5.9,0-11.1-3-13.6-8.4c-1.5-3.3-1.3-6.8-1.4-10.3c0-3-0.3-6.2,0.2-9.1
						c1.1-6.4,6.3-11.1,12.9-11.3c5.5-0.2,10.6,2.6,13.2,7.4c1.9,3.4,1.8,7.1,1.8,10.8c0,2.7,0.2,5.6,0,8.3
						C370.6,635,365.2,640.3,358.1,640.6c-2.7,0.1-3.7,3.7-0.4,3.5c10.2-0.5,18.2-8,18.5-18.4c0.2-8,0.9-17.1-5.5-23
						c-7-6.5-18.8-6.4-26.1-0.3c-7.2,6-6.4,14.7-6.3,23.1c0.2,11.3,8.1,18.7,19.4,18.6C360.4,644.1,361.4,640.6,358.1,640.6z"/>
				</g>
				<g>
					<path class="st4" d="M331.6,822.7c1.5,22.7,5.7,46.2,14.5,67.2c0.9,2.2,5.7,0.9,4.8-1.3c-8.6-20.7-13-43.9-14.4-66.3
						C336.3,819.7,331.4,820.4,331.6,822.7L331.6,822.7z"/>
				</g>
			</g>
		</g>
	</g>
	<g>
		<path class="st11" d="M224.9,608.9c-42.2-17.9-48.8-75.6-47.4-115.5c0.8-23.2,4.5-46.6,12.1-68.6c7.9-23,22.1-43,40.1-59.4
			c40.2-36.5,97.4-52.7,151-47.4c57.2,5.7,107.5,39.3,137.3,88.1c30.6,50.1,40.9,111.5,42.7,169.3c2.2,70-8,140.7,3.4,210.3
			c4.9,29.7,13.6,60.2,29.9,85.7c10.1,15.9,23.4,29.5,38.4,41c31.8,24.3,70.9,38.6,110.4,43.9c38.5,5.1,79.6,1.5,115.1-15
			c34.9-16.3,61.4-45.4,72.4-82.5c3-10.2,4.8-20.7,5.7-31.3c0.4-4.4-9.4-2.7-9.7,1c-3.3,40-21.6,76.6-55.7,98.9
			c-32.1,20.9-72.1,27-109.7,24.3c-39.9-2.9-79.8-15.8-112.9-38.6c-15.7-10.8-29.9-24.1-40.9-39.7c-16.7-23.5-25.8-52.3-31.3-80.4
			c-13.8-70.5-3.4-142.5-5-213.6c-1.3-57.7-10.6-118-38.9-169.1c-27.5-49.7-75.6-86.4-131.9-96.3c-53.3-9.3-111,2.2-156.1,32.2
			c-22.1,14.7-41.7,34.4-54.4,57.8c-10.2,18.8-15.6,40.3-18.7,61.3c-3.6,24-4.1,48.8-0.3,72.8c3.3,20.9,10.1,42.7,24.2,59
			c6.3,7.2,14.1,13.1,22.9,16.8c2.2,0.9,4.9,0.6,6.9-0.8C225.4,612.3,227.2,609.9,224.9,608.9L224.9,608.9z"/>
	</g>
</g>
</svg>
