<?xml version="1.0" encoding="utf-8"?>
<!-- Generator: Adobe Illustrator 24.3.0, SVG Export Plug-In . SVG Version: 6.00 Build 0)  -->
<svg version="1.1" id="Layer_1" xmlns="http://www.w3.org/2000/svg" xmlns:xlink="http://www.w3.org/1999/xlink" x="0px" y="0px"
	 viewBox="0 0 587.5 662.3" style="enable-background:new 0 0 587.5 662.3;" xml:space="preserve">
<style type="text/css">
	.st0{fill:#EFEFEF;}
	.st1{fill:#444444;}
	.st2{fill:#FFFFFF;}
	.st3{opacity:0.5;fill:#FFE0EB;enable-background:new    ;}
</style>
<g id="Ñëîé_1_1_">
</g>
<g id="Ñëîé_2">
	<g>
		<g>
			<path class="st0" d="M564.8,656.1c4.9-4.1,7.7-9.7,8.2-15.6c0.5-5.9-1.2-12-5.2-16.8L393.5,414.1c38-36.9,63.5-87,68.7-143.8
				c11.6-126.5-81.8-238.8-208.3-250.4C127.3,8.3,15,101.7,3.4,228.2S85.2,467,211.7,478.6c48.5,4.5,95-6.6,134.5-29l10.9-7.2
				l175.2,210.7C540.4,662.9,555,664.2,564.8,656.1z M412.6,265.8c-9.1,99.2-97.2,172.4-196.3,163.3
				C117.1,420,43.8,331.9,52.9,232.8S150.1,60.3,249.3,69.4C348.4,78.5,421.7,166.6,412.6,265.8z"/>
		</g>
		<g>
			<path class="st1" d="M29.8,140.1c-9.2,19.6-17.5,39.8-23.3,60.6c-5.4,19.3-7.1,38.9-6.3,58.9c1.5,37.6,12.5,74.5,31.6,106.9
				C70,431.4,138.7,474.3,213.7,480c47.3,3.6,99.1-6.9,139-33.4c2-1.3-2.8-0.9-3.7-0.2c-37.1,24.5-84.7,34.4-128.6,31.8
				c-37.6-2.3-74.4-13.9-106.4-33.8C53,406.6,12.1,340.8,5.7,269.2c-1.9-21.7-1.1-43.6,4.3-64.7c5.8-22.5,14.6-44.3,24.5-65.2
				C34.9,138.4,30.4,138.8,29.8,140.1L29.8,140.1z"/>
			<path class="st1" d="M359.6,449.1c22.7,27.3,45.4,54.5,68.1,81.8c31.3,37.6,62.6,75.2,93.9,112.8c2.8,3.3,5.5,6.8,8.4,10.1
				c11.9,13.6,34.3,10.2,43-5.3c0.4-0.7-4.1-0.4-4.8,0.8c-8.1,14.5-24.8,13.2-34.6,1.6c-3.1-3.7-6.2-7.4-9.3-11.2
				c-12.9-15.6-25.9-31.1-38.8-46.7c-32.6-39.2-65.2-78.4-97.9-117.7c-7.8-9.4-15.6-18.7-23.4-28.1
				C363.4,446.5,358.8,448.1,359.6,449.1L359.6,449.1z"/>
			<path class="st1" d="M140.5,95.4C190.7,65,253.8,61.6,307,86.5c42.4,19.9,76.1,56.3,92.5,100.2c9.5,25.4,13.1,52.7,10.7,79.7
				c-0.1,0.8,4.7,0.2,4.8-1.3c4.4-50.3-12.4-100.7-46.4-138.1C334.1,89,284.3,67.4,233,67.6c-33.9,0.2-67.2,9.9-96.2,27.5
				C134.7,96.4,139.5,95.9,140.5,95.4L140.5,95.4z"/>
		</g>
		<g>
			<path class="st2" d="M577,638.8c4.9-4.1,7.7-9.7,8.2-15.6c0.5-5.9-1.2-12-5.2-16.8L405.7,396.8c38-36.9,63.5-87,68.7-143.8
				C486,126.6,392.5,14.2,266.1,2.6S27.2,84.4,15.6,210.9s81.9,238.9,208.3,250.5c48.5,4.5,95-6.6,134.5-29l10.9-7.2l175.2,210.7
				C552.7,645.6,567.2,646.9,577,638.8z M424.8,248.5c-9.1,99.2-97.2,172.4-196.3,163.3S56.1,314.6,65.2,215.5
				c9.1-99.2,97.2-172.4,196.3-163.3S433.9,149.3,424.8,248.5z"/>
			<g>
				<path class="st1" d="M579,639.4c10.6-9.4,11.3-24.2,2.4-35c-2.9-3.5-5.8-7-8.7-10.5c-13.2-15.8-26.3-31.7-39.5-47.5
					c-33.7-40.5-67.3-80.9-101-121.4c-8.1-9.7-16.2-19.5-24.3-29.2c-0.1,0.5-0.2,1.1-0.2,1.6c37.6-36.8,62.1-85.7,68.4-138
					c5.5-45.6-2.8-92.2-23.8-133.1c-20.1-39.1-51.2-72.1-89-94.4C324.3,9,278.8-2,233.5,0.3c-44.3,2.2-87.7,17.5-123.8,43.3
					C73.8,69.2,45.4,105,28.9,146c-17.1,42.5-21.2,90-11.6,134.8c9.3,43.4,31.3,83.7,62.7,115.1c31.5,31.6,72,53.7,115.6,63
					c53.6,11.4,110.4,3.5,158.7-22.3c5.8-3.1,11.1-6.7,16.6-10.4c-1.3,0-2.5,0-3.8,0c22.5,27,44.9,54,67.4,81
					c32.2,38.7,64.3,77.3,96.5,116c3.6,4.3,7.1,8.6,10.7,12.9c9.4,11.2,25.3,12.8,36.9,3.7c2.6-2-1.4-3.3-3.1-1.9
					c-10.3,8.1-22.4,4.5-30.2-4.8c-3.3-4-6.7-8-10-12.1c-13.5-16.3-27.1-32.6-40.6-48.9c-33.1-39.8-66.3-79.7-99.4-119.5
					c-7.9-9.5-15.8-19-23.7-28.4c-0.9-1.1-2.8-0.6-3.8,0c-80.2,53.1-188.5,46.6-263.5-12.8c-70-55.3-101.9-148.5-80.5-235
					C45,90.7,116.5,23.1,203.2,7c88.5-16.4,180.1,22.8,230.4,97.2c24.4,36.1,38.2,79,39.2,122.5c1.2,50.6-14.6,101-44.7,141.6
					c-7.4,9.9-15.6,19.2-24.4,27.9c-0.4,0.4-0.6,1.1-0.2,1.6c21.1,25.4,42.3,50.8,63.4,76.3c31.8,38.2,63.6,76.5,95.4,114.7
					c4.4,5.2,8.7,10.5,13.1,15.7c0.8,0.9,1.5,1.8,2.3,2.7c7.6,9.7,6.5,22.7-2.7,30.9C572.8,640.1,577.5,640.7,579,639.4z"/>
				<path class="st1" d="M422.4,248.7c-7.1,73.7-59.9,137.3-131.7,156.4c-72.6,19.2-150.9-11-192.9-72.9s-40.7-146,3.6-206.3
					c44.3-60.4,123.7-87,195.4-65c70,21.5,120.9,86.1,126,159C423.4,229.5,423.2,239.1,422.4,248.7c-0.2,2.3,4.7,1.6,4.9-0.4
					c6.7-76.2-36-150.3-105.7-182c-69.1-31.5-152.4-16.1-206.1,37.5c-54.6,54.4-69,140.1-34.6,209.2c34,68.3,108.9,109,184.8,100.2
					c74.3-8.7,137.9-63.4,156.6-136c2.4-9.4,4.1-19.1,5-28.8C427.5,246,422.6,246.7,422.4,248.7z"/>
			</g>
		</g>
		<ellipse class="st3" cx="245" cy="232" rx="180.6" ry="180.6"/>
		<g>
			<path class="st1" d="M262.4,50.7C187.1,44,113,85.2,80,153.6c-33.4,69.2-18.6,154,36,207.9c54.4,53.7,139,67.6,207.8,34.5
				c68.7-33,111-106.8,103.3-182.8C419.5,138,363.6,73.8,290.4,55.4C281.2,53.1,271.8,51.6,262.4,50.7c-2-0.2-5.1,2.7-1.8,3
				c73.6,7,136.8,60.2,156.3,131.6c19.7,72.1-8.8,150.9-70,193.8c-61.7,43.2-146,41.9-206.7-2.7c-59.8-44-86.7-122.5-66.5-193.9
				c20.1-71.1,84.5-124,158.3-129.2c9.5-0.7,19.1-0.5,28.6,0.3C262.6,53.8,265.7,50.9,262.4,50.7z"/>
		</g>
	</g>
</g>
</svg>
