<?xml version="1.0" encoding="utf-8"?>
<!-- Generator: Adobe Illustrator 24.3.0, SVG Export Plug-In . SVG Version: 6.00 Build 0)  -->
<svg version="1.1" id="Layer_1" xmlns="http://www.w3.org/2000/svg" xmlns:xlink="http://www.w3.org/1999/xlink" x="0px" y="0px"
	 viewBox="0 0 1400 1000" style="enable-background:new 0 0 1400 1000;" xml:space="preserve">
<style type="text/css">
	.st0{fill:#D01261;}
	.st1{fill:#E61261;}
	.st2{fill:#444444;}
	.st3{fill:#FFFFFF;}
	.st4{fill:#1199EE;}
	.st5{fill:#00B7ED;}
	.st6{fill:#E3E3E3;}
	.st7{fill:#F9F9F9;}
	.st8{fill:#EFEFEF;}
	.st9{fill:#DBDBDB;}
	.st10{fill:#EEF7FA;}
	.st11{fill:#BBDFF5;}
	.st12{fill:#F3F9F9;}
	.st13{fill-rule:evenodd;clip-rule:evenodd;fill:#E61562;}
	.st14{clip-path:url(#SVGID_4_);fill:#E61562;}
	.st15{clip-path:url(#SVGID_9_);fill:#E61562;}
	.st16{fill-rule:evenodd;clip-rule:evenodd;fill:#F8AF07;}
	.st17{clip-path:url(#SVGID_11_);fill:#F8AF07;}
	.st18{clip-path:url(#SVGID_13_);fill:#F8AF07;}
	.st19{fill:#14B5EB;}
</style>
<g id="Ñëîé_1_1_">
</g>
<g id="Ñëîé_2_1_">
	<g>
		<path class="st0" d="M1275.3,583.1c0-43-34.9-77.9-77.9-77.9s-77.9,34.9-77.9,77.9s77.9,121.7,77.9,121.7
			S1275.3,626.1,1275.3,583.1z"/>
		<path class="st1" d="M1275.8,582.7c0-43-32.8-77.9-73.2-77.9s-73.2,34.9-73.2,77.9s68.4,121.7,68.4,121.7
			S1275.8,625.7,1275.8,582.7z"/>
		<g>
			<path class="st2" d="M1277.7,582.4c-0.3-31.3-19.2-60.1-48.1-72.3c-28-11.8-61.3-6.5-84.5,13.1c-20.7,17.5-33.6,47.8-25.8,74.7
				c7.1,24.5,23.7,46.6,39.3,66.3c11.4,14.4,23.5,28.5,36.5,41.6c1,1,3.3,0.3,4.2-0.5c9.3-9.4,18-19.3,26.5-29.4
				c15.9-18.9,31.4-38.9,42.4-61c4.9-9.9,9.3-20.8,9.5-32c0-2-4.8-1-4.8,0.6c-0.2,21.7-14.5,42.7-26.4,59.8
				c-12.5,18-26.7,35-41.5,51.1c-3.1,3.4-6.3,6.8-9.5,10.1c1.4-0.2,2.8-0.4,4.2-0.5c-9.4-9.5-18.3-19.6-26.9-29.8
				c-16-19-31.7-39.3-42.5-61.8c-4.3-9-8.1-18.9-8.4-29c-0.4-15.1,4.4-30.5,12.8-43.1c17.7-26.6,50.6-39.2,81.5-31
				c33.5,9,56.4,40.2,56.7,74.5C1272.9,585.2,1277.7,584.3,1277.7,582.4z"/>
		</g>
		<ellipse class="st0" cx="1202.1" cy="583.6" rx="43.7" ry="40.7"/>
		
			<ellipse transform="matrix(0.9711 -0.2386 0.2386 0.9711 -104.5332 302.5368)" class="st3" cx="1197.4" cy="583" rx="38.9" ry="38.9"/>
		<g>
			<path class="st2" d="M1238.8,582.4c-0.3-17.9-12.4-33.7-29.9-38.1c-15.2-3.8-32.6,1.4-43,13.3c-11.8,13.5-13.1,34-2.7,48.7
				c9.6,13.5,26.6,19.2,42.5,15.6C1224.6,617.7,1238.4,601.9,1238.8,582.4c0-0.8-4.8-0.1-4.8,1.3c-0.3,15.3-9.3,30.1-24.1,35.4
				c-15.4,5.5-33.1-1.5-42.2-14.6c-8.2-11.9-9.1-27.8-2.1-40.5c8.1-14.8,25-22.2,41.2-17.2c16.2,5,26.8,20.2,27.1,36.9
				C1233.9,584.5,1238.8,583.8,1238.8,582.4z"/>
		</g>
	</g>
	<g>
		<path class="st4" d="M282.3,583.1c0-43-34.9-77.9-77.9-77.9s-77.9,34.9-77.9,77.9s77.9,121.7,77.9,121.7S282.3,626.1,282.3,583.1z
			"/>
		<path class="st5" d="M282.8,582.7c0-43-32.8-77.9-73.2-77.9s-73.2,34.9-73.2,77.9s68.4,121.7,68.4,121.7S282.8,625.7,282.8,582.7z
			"/>
		<g>
			<path class="st2" d="M284.7,582.5c-0.3-31.6-19.5-60.5-48.9-72.5c-27.4-11.1-60-5.7-82.9,13c-21.2,17.3-34.4,47.8-26.6,74.9
				c7.1,24.5,23.7,46.5,39.3,66.2c11.4,14.4,23.5,28.5,36.5,41.6c0.8,0.8,3.8-0.3,4.5-1c9.4-9.5,18.3-19.6,26.9-29.8
				c15.7-18.7,31-38.5,41.9-60.5C280.3,604.5,284.6,593.6,284.7,582.5c0-0.8-4.8-0.1-4.8,1.3c-0.2,21.6-14.6,42.9-26.5,60
				c-12.6,18.1-26.7,35-41.6,51.2c-3.1,3.4-6.3,6.8-9.5,10.1c1.5-0.3,3-0.7,4.5-1c-9.4-9.5-18.3-19.6-26.9-29.8
				c-16-19.1-31.7-39.4-42.5-62c-4.3-9-8.1-18.9-8.4-29c-0.4-14.9,4.2-30,12.2-42.5c17.7-27.6,51.3-40.6,82.9-31.6
				c33,9.5,55.6,40.5,55.9,74.6C279.9,584.6,284.7,583.8,284.7,582.5z"/>
		</g>
		<ellipse class="st4" cx="209.1" cy="583.7" rx="43.7" ry="40.7"/>
		
			<ellipse transform="matrix(0.3827 -0.9239 0.9239 0.3827 -412.4991 548.8222)" class="st3" cx="204.4" cy="583.1" rx="39" ry="39"/>
		<g>
			<path class="st2" d="M245.8,582.9c-0.3-17.4-11.2-32.9-27.9-38.3c-15.8-5.1-33.9-0.2-44.8,12.3c-11.5,13.2-13.3,32.7-4.1,47.7
				c8.9,14.4,26.2,21.5,42.7,18.4C231,619.3,245.4,602.6,245.8,582.9c0-2.3-4.8-1.5-4.9,0.5c-0.3,15-8.8,29-23,34.6
				c-14.9,5.9-32,0.6-41.9-11.8c-9.3-11.8-10.8-28.5-3.5-41.6c7.6-13.9,23.7-21.5,39.3-17.9c17,3.9,28.8,19.4,29.1,36.6
				C240.9,585.7,245.8,584.8,245.8,582.9z"/>
		</g>
	</g>
	<g>
		<g>
			<path class="st2" d="M896.4,721.6c33.9,0,67.8,0,101.7,0c53.6,0,107.3,0,160.9,0c12.4,0,24.8,0,37.1,0c1.9,0,5.1-2.9,1.8-2.9
				c-33.9,0-67.8,0-101.7,0c-53.6,0-107.3,0-160.9,0c-12.4,0-24.8,0-37.1,0C896.2,718.6,893.1,721.6,896.4,721.6L896.4,721.6z"/>
		</g>
		<g>
			<path class="st2" d="M534.9,721.6c11.4,0,22.7,0,34.1,0c27.3,0,54.6,0,81.9,0c33,0,66.1,0,99.1,0c28.6,0,57.2,0,85.7,0
				c13.8,0,27.9,0.9,41.7,0c0.2,0,0.4,0,0.6,0c1.9,0,5.1-2.9,1.8-2.9c-11.4,0-22.7,0-34.1,0c-27.3,0-54.6,0-81.9,0
				c-33,0-66.1,0-99.1,0c-28.6,0-57.2,0-85.7,0c-13.8,0-27.9-0.9-41.7,0c-0.2,0-0.4,0-0.6,0C534.8,718.6,531.7,721.6,534.9,721.6
				L534.9,721.6z"/>
		</g>
		<g>
			<path class="st2" d="M466.7,721.6c13.6,0,27.2,0,40.8,0c1.9,0,5.1-2.9,1.8-2.9c-13.6,0-27.2,0-40.8,0
				C466.6,718.6,463.5,721.6,466.7,721.6L466.7,721.6z"/>
		</g>
		<g>
			<path class="st2" d="M202.1,721.6c27.5,0,55,0,82.5,0c43.6,0,87.3,0,130.9,0c10.1,0,20.1,0,30.2,0c1.9,0,5.1-2.9,1.8-2.9
				c-27.5,0-55,0-82.5,0c-43.6,0-87.3,0-130.9,0c-10.1,0-20.1,0-30.2,0C202,718.6,198.8,721.6,202.1,721.6L202.1,721.6z"/>
		</g>
	</g>
	<g>
		<path class="st6" d="M780.5,634.9H392.9c-6.2,0-11.2-5-11.2-11.2v-34.6c0-6.2,5-11.2,11.2-11.2h387.5c6.2,0,11.2,5,11.2,11.2v34.6
			C791.7,629.9,786.7,634.9,780.5,634.9z"/>
		<path class="st7" d="M774.5,626.7h-61.5v-47.8h61.5c6.2,0,11.2,5,11.2,11.2v25.5C785.7,621.7,780.7,626.7,774.5,626.7z"/>
		<path class="st7" d="M564.9,628.1H391.7c-6.2,0-11.2-5-11.2-11.2v-28.6c0-6.2,5-11.2,11.2-11.2h173.1V628.1z"/>
		<g>
			<path class="st2" d="M383.4,588c0-4.9,2.2-8.3,7.2-8.3c4.1,0,8.1,0,12.2,0c6.8,0,13.4,0,20.2,0c2.2,0,5.5-3.4,2-3.4
				c-9.1,0-18.2,0-27.3,0s-19.6,0.2-19.6,12.2C378,591,383.4,590,383.4,588L383.4,588z"/>
		</g>
		<g>
			<path class="st2" d="M390,633.2c-3.7-0.1-6.5-3.2-6.6-6.9c-0.1-2.5-5.4-1.4-5.4,0.5c0.1,5.5,4.4,9.5,10,9.8
				c1.2,0,2.9-0.3,3.5-1.5C392.2,634,391,633.2,390,633.2L390,633.2z"/>
		</g>
		<g>
			<path class="st2" d="M570.8,633.2c-2.5,0-5.1,0-7.8,0c-1.2,0-2.9,0.3-3.5,1.5c-0.5,1.1,0.4,1.9,1.5,1.9c2.5,0,5.1,0,7.8,0
				c1.2,0,2.9-0.3,3.5-1.5C573,634,571.8,633.2,570.8,633.2L570.8,633.2z"/>
		</g>
		<g>
			<path class="st2" d="M707.3,579.7c12.9,0,25.7,0,38.6,0c8.7,0,17.3,0,25.9,0c4.2,0,12.2-1.3,15.4,2.3c2.1,2.4,1.8,5.8,1.8,8.8
				c0,4,0,8.1,0,12.1c0,7.7,0.2,15.4,0,23.1c-0.2,7.9-5.8,7.3-11.3,7.3c-8,0-15.8,0-23.8,0c-15.3,0-30.6,0-45.9,0
				c-2.2,0-5.5,3.4-2,3.4c14.5,0,29.2,0,43.7,0c8.7,0,17.3,0,25.9,0c5.4,0,11.5,0.7,15.7-3.5c4.8-4.9,3-14.7,3-21
				c0-8.4,0.2-16.7,0-25.2c-0.1-7.2-5.1-10.6-11.9-10.6c-7.2-0.1-14.4,0-21.6,0c-17.2,0-34.4,0-51.5,0
				C707.1,576.2,703.8,579.7,707.3,579.7L707.3,579.7z"/>
		</g>
		<g>
			<path class="st2" d="M529.7,579.7c12.9,0,25.7,0,38.6,0c2.2,0,5.5-3.4,2-3.4c-12.9,0-25.7,0-38.6,0
				C529.5,576.2,526.2,579.7,529.7,579.7L529.7,579.7z"/>
		</g>
		<path class="st8" d="M686.7,637.2h-95.8c-10.5,0-19.1-8.5-19.1-19.1v-23.7c0-10.5,8.5-19.1,19.1-19.1h95.7
			c10.5,0,19.1,8.5,19.1,19.1v23.7C705.8,628.7,697.2,637.2,686.7,637.2z"/>
		<path class="st3" d="M679.8,630.8h-80.7c-10.5,0-19.1-8.5-19.1-19.1v-17.4c0-10.5,8.5-19.1,19.1-19.1h80.7
			c10.5,0,19.1,8.5,19.1,19.1v17.4C699,622.2,690.5,630.8,679.8,630.8z"/>
		<g>
			<path class="st2" d="M687.6,635.4c-20,0-39.9,0-59.9,0c-10.5,0-21.1,0-31.6,0c-2.7,0-5.4,0.2-8-0.4c-8.9-2-13.5-10.2-13.6-18.7
				c0-6,0-12,0-18c0-7.2,0.8-14.3,7.3-18.8c6.2-4.3,16.7-2.7,23.9-2.7c24.4,0,48.8,0,73.3,0c2.2,0,4.4-0.1,6.7,0
				c10.6,0.4,17.3,8.9,17.4,19.2c0.1,13.8,4,38.7-16.1,39.5c-2.9,0.1-4.3,3.5-0.7,3.4c8.9-0.3,17.3-5.3,20.6-13.8
				c2.2-5.5,1.4-12.2,1.4-18.2c0-5.7,0.8-12.2-0.5-17.7c-2.1-8.8-10-15-18.7-15.6c-8-0.7-16.1-0.1-24-0.1c-14.8,0-29.8,0-44.7,0
				c-9.3,0-18.7-0.1-28,0c-6.9,0.1-13.4,2.4-18.1,7.8c-4.7,5.3-5.1,11.4-5.1,18.1c0,13.5-3,31.4,12.5,37.8
				c7.4,3.1,17.4,1.7,25.3,1.7c26.2,0,52.4,0,78.6,0C687.9,638.9,691.2,635.4,687.6,635.4z"/>
		</g>
		<path class="st8" d="M947,407.7c0.4,0,0.8-0.4,0.5-0.9c-17-39.2-42.2-64.7-76.5-73.8c-23.4-6.2-47.5-5.3-71.4-3.8
			c-0.3,0-0.5,0.3-0.5,0.7c0,25.7,0,51.5,0,77.3c0,0.3,0.3,0.7,0.7,0.7L947,407.7L947,407.7z"/>
		<path class="st3" d="M933,400.8c5.4,0,8.9-5.9,6.3-10.6c-15.7-29-37.6-49.7-64.6-57.2c-22.3-6.2-45.2-5.3-68-3.8
			c-0.3,0-0.5,0.3-0.5,0.7c0,19.2,0.3,49.3,0.5,63.5c0,4.3,3.5,7.8,7.9,7.8L933,400.8z"/>
		<g>
			<path class="st2" d="M949,407.9c3.7-2-7.1-18.7-9-21.8c-4.7-7.9-10-15.4-16-22.2c-11.4-12.9-25.7-23.1-42-29
				c-21.1-7.6-44-8.3-66.2-7.4c-5,0.2-10.8-0.1-15.7,0.9c-2.5,0.5-3.3,1-3.8,3.4c-1.1,5.8,0,12.9,0,18.7c0,6.6,0,13.2,0,19.8
				c0,6.2,0,12.5,0,18.7c0,3.3,0,6.6,0,10c0,2-1.1,7.9,0.2,9.3c0.8,0.8,2.3,0.5,3.3,0.5c6.8,0.1,13.5,0,20.3,0c24.4,0,48.8,0,73.3,0
				c17.3,0,34.6,0,51.9,0c1.1,0,6-2.1,3.4-2.1c-35.6,0-71.2,0-106.8,0c-9.3,0-18.6,0-27.9,0c-2.8,0-5.7,0-8.4,0c-0.7,0-3.4,0.4-4,0
				s0.1-8.9,0.1-10.2c0-6.2,0-12.5,0-18.7c0-12.2,0-24.3,0-36.5c0-2.5,0.2-5.2,0-7.8c0.1,1.5-0.2-4.5-1.1-3.4
				c0.2-0.2,3.5-0.2,4.2-0.2c6.9-0.4,13.6-0.7,20.5-0.7c11.8,0,23.6,0.7,35.2,2.9c19.3,3.8,36.7,12.4,51.1,25.8
				c7.1,6.6,13.3,14.3,18.7,22.5c1.4,2.2,15.8,26.6,14.5,27.3C942.6,409,948,408.4,949,407.9z"/>
		</g>
		<g>
			<g>
				<ellipse class="st9" cx="881.3" cy="642.4" rx="62" ry="62"/>
				<g>
					<path class="st2" d="M946,641.8c-0.3-27.3-18.3-51.9-44.6-59.8c-24.7-7.4-53,0.8-69.7,20.5c-17.8,21-19.8,52-4.5,75
						c14.7,22.2,42,32.2,67.7,26.5C924.2,697.5,945.6,672,946,641.8c0-1.1-5.3-0.3-5.3,1.4c-0.3,24.9-15.6,48.5-39.6,57
						c-24.2,8.4-51.5-1.2-66.7-21.3c-14.6-19.4-16.2-46.3-4.2-67.4c13.1-23,39.9-34.6,65.5-27.6c26.6,7.3,44.7,32,45,59.3
						C940.6,644.4,946.1,643.5,946,641.8z"/>
				</g>
			</g>
			<g>
				
					<ellipse transform="matrix(0.9674 -0.2532 0.2532 0.9674 -133.9632 244.0816)" class="st7" cx="881.3" cy="642.5" rx="45.8" ry="45.8"/>
				<g>
					<path class="st2" d="M929.9,641.8c-0.3-20.7-14.2-39.1-34.4-44.6c-18.2-4.9-39.1,1.3-51.4,15.7c-13.5,15.8-15,39.5-2.9,56.6
						c11.3,16.1,31.6,22.8,50.5,18.4C913.6,683,929.5,664.5,929.9,641.8c0-0.9-5.3-0.1-5.3,1.4c-0.3,18.1-11.2,35.6-28.6,41.8
						c-18,6.4-38.6-1.7-49.3-16.8c-10-14.1-11-33.1-2.7-48.2c9.5-17.4,29.5-26.2,48.7-20.3c19.1,5.9,31.7,23.7,31.9,43.6
						C924.6,644.2,929.9,643.3,929.9,641.8z"/>
				</g>
			</g>
			<g>
				<circle class="st9" cx="881.3" cy="642.5" r="12.4"/>
				<g>
					<path class="st9" d="M896.4,641.8c-1-18.2-30.2-15.6-30.2,1.4C866.4,661.6,895.5,658.7,896.4,641.8c0-0.8-5.3-0.1-5.3,1.4
						c-0.1,2.5-0.8,4.8-2.3,6.9c-2.4,3.3-7.7,4.2-11.2,2.2c-3.7-2.1-6-6.2-6-10.5c0-2.1,0.5-4.2,1.7-6c2.1-3.5,7.1-5.2,10.8-3.5
						c4.4,2,6.8,6.2,7,11C891.2,644.2,896.5,643.3,896.4,641.8z"/>
				</g>
			</g>
		</g>
		<g>
			<g>
				
					<ellipse transform="matrix(0.7071 -0.7071 0.7071 0.7071 -314.6893 525.2929)" class="st9" cx="476.7" cy="642.5" rx="62" ry="62"/>
				<g>
					<path class="st2" d="M541.4,641.8c-0.3-27.3-18.3-51.9-44.6-59.8c-24.7-7.4-53,0.8-69.7,20.5c-17.9,21-19.8,52-4.5,75
						c14.7,22.2,42,32.2,67.7,26.5C519.5,697.5,540.9,672,541.4,641.8c0-1.1-5.3-0.3-5.3,1.4c-0.3,24.9-15.6,48.5-39.6,57
						c-24.2,8.4-51.5-1.2-66.7-21.3c-14.6-19.4-16.2-46.3-4.2-67.4c13.1-23,39.9-34.6,65.5-27.6c26.6,7.3,44.7,32,45,59.3
						C536,644.4,541.4,643.5,541.4,641.8z"/>
				</g>
			</g>
			<g>
				
					<ellipse transform="matrix(0.7071 -0.7071 0.7071 0.7071 -314.6893 525.2929)" class="st7" cx="476.7" cy="642.5" rx="45.8" ry="45.8"/>
				<g>
					<path class="st2" d="M525.2,641.8c-0.3-20.7-14.2-39.1-34.4-44.6c-18.2-4.9-39.1,1.3-51.4,15.7c-13.5,15.8-15,39.5-2.9,56.6
						c11.3,16.1,31.6,22.8,50.5,18.4C508.9,683,524.8,664.5,525.2,641.8c0-0.9-5.3-0.1-5.3,1.4c-0.3,18.1-11.2,35.6-28.6,41.8
						c-18,6.4-38.6-1.7-49.3-16.8c-10-14.1-11-33.1-2.7-48.2c9.5-17.4,29.5-26.2,48.7-20.3c19.1,5.9,31.7,23.7,31.9,43.6
						C519.9,644.2,525.2,643.3,525.2,641.8z"/>
				</g>
			</g>
			<g>
				<circle class="st9" cx="476.7" cy="642.5" r="12.4"/>
				<g>
					<path class="st9" d="M491.8,641.8c-1-18.2-30.1-15.6-30.1,1.4C461.7,661.6,490.8,658.7,491.8,641.8c0-0.8-5.3-0.1-5.3,1.4
						c-0.1,2.5-0.8,4.8-2.3,6.9c-2.4,3.3-7.6,4.2-11.2,2.2c-3.7-2.1-6-6.2-6-10.5c0-2.1,0.5-4.2,1.7-6c2.1-3.5,7-5.2,10.8-3.5
						c4.4,2,6.8,6.2,7,11C486.5,644.2,491.8,643.3,491.8,641.8z"/>
				</g>
			</g>
		</g>
		<path class="st6" d="M811.8,640.6c0-38.9,31.6-70.5,70.5-70.5s70.5,31.6,70.5,70.5l0,0c0,0.8,0.7,1.4,1.4,1.4
			c21.1,0,38.2,0,47.8,0c4.3,0,7.9-3.5,7.8-7.9l-1-79.7c-0.3-24.8-7.2-49.1-19.8-70.5c-14.2-23.9-31.9-55-37.7-69.7
			c-0.4-0.3-0.9-0.5-1.3-0.9H801.5c-0.8,0-1.4,0.7-1.4,1.4c0,75.4,0,150.6,0,226c0,0.8,0.7,1.4,1.4,1.4h8.9
			C811.2,642.1,811.8,641.4,811.8,640.6L811.8,640.6z"/>
		<path class="st7" d="M807.7,621.1c0.5,0,0.9-1.4,0.9-1.8c0.2-1,0.4-1.9,0.7-2.9c0.4-1.9,1-3.8,1.7-5.7c1.3-3.7,2.9-7.2,4.9-10.6
			c3.9-6.9,9.1-13,15.1-18.1c25.6-22.3,65.1-25.2,93.6-6.3c18.7,12.4,34.1,35.6,34.1,58.5c0,0.8,35.6-0.3,45-0.3
			c4.3,0,6.2,0.8,6.2-3.4l-1-82.7c-0.3-23.7-7.2-46.9-19.8-67.3c-14.2-22.8-31.9-52.5-37.7-66.6c-0.4-0.3-0.9-0.5-1.3-0.9H807.4
			c0,0.8,0,1.5,0,2.3c0,2.2,0,4.4,0,6.6c0,44.3,0,89.1,0,133.7c0,3.9,0,7.8,0,11.6c0,8.4,0,16.8,0,25.3c0,4.8,0,9.6,0,14.4
			c0,3.9,0,7.8,0,11.6c0,0.3,0,0.8,0,1.1c0,0.2-0.1,0.7,0,0.8C807.5,621,807.6,621.1,807.7,621.1z"/>
		<g>
			<path class="st2" d="M1011.8,588.8c-0.3-23.3,0.9-47-5.2-69.7c-5.4-20.4-16.4-37.8-26.8-56c-8.8-15.2-17.8-30.6-24.7-46.8
				c-2.2-5.3-5.2-4.2-10.3-4.2c-8,0-16.1,0-24,0c-23.5,0-47,0-70.4,0c-15.3,0-30.8-0.5-46.1,0c-1.9,0.1-4.3,0.1-5.8,1.4
				c-2.3,2.2-1,7.8-1,10.6c0,6.3,0,12.5,0,18.8c0,24.4,0,48.8,0,73.2c0,24.4,0,48.8,0,73.2c0,12.2,0,24.4,0,36.6c0,3,0,5.9,0,8.9
				c0,1.8-0.9,6.2,0.4,7.7c1,1.1,3.1,0.8,4.4,0.8c2.9,0,9.4,1,11.5-1.7c1.5-1.9,0.8-5.4,0.9-7.8c0.4-4.7,1.3-9.3,2.7-13.8
				c4.8-16.1,15.3-30.2,29.5-39c31.3-19.6,73.2-7.7,92.5,23c4.3,6.9,7.4,14.4,9.1,22.3c0.9,4,1.4,8,1.5,12c0.1,3.4-0.1,4.5,3.5,4.9
				c10.1,1.1,21.1,0,31.2,0c6.2,0,13.4,1,19.5-0.5c5.4-1.4,8.2-5.1,8.2-10.6c0-0.9-5.3-0.1-5.3,1.4c0.1,9.8-10.3,7.7-17.3,7.7
				c-9.5,0-19,0-28.5,0c-2.2,0-5.1,0.3-5.9-1.8c-0.5-1.4-0.1-3.8-0.2-5.4c-0.3-4.2-1.1-8.4-2.2-12.5c-2-7.3-5.2-14.2-9.4-20.5
				c-16.7-24.9-47.5-36.2-76.6-29.7c-29,6.5-52.4,29.8-57,59.5c-0.3,1.9-2.1,9.6-0.9,11c0,0,4.9-0.2,1.4-0.3c-1.4-0.1-2.9,0-4.3,0
				c-0.5,0-2.3,0.3-2.8,0c-1.4-1-0.5-5.2-0.5-6.5c0-6.3,0-12.5,0-18.8c0-23,0-45.8,0-68.7c0-23.6,0-47.2,0-70.9c0-11.4,0-23,0-34.4
				c0-5.5,0-11.1,0-16.6c0-1.8,0.9-7.3,0-8.9c-0.2-0.3-3.2-1.4-2.9-1.8c0.5-0.4,3.2,0,4,0c2.8,0,5.7,0,8.4,0c8.7,0,17.3,0,25.9,0
				c22.5,0,45,0,67.4,0c9.3,0,18.6,0,27.8,0c3,0,6,0,9,0c1.3,0,3.8-0.4,5,0c2.3,0.9,4.1,7.8,5.2,10.2c3.7,7.6,7.8,15.2,11.8,22.6
				c9.3,16.9,20.3,33,28.4,50.5c8.3,18.1,12.6,37.7,13,57.5c0.1,8.8,0.2,17.6,0.3,26.4c0,2.9,0.1,5.8,0.1,8.7
				C1006.5,591.1,1011.8,590.3,1011.8,588.8L1011.8,588.8z"/>
		</g>
		<path class="st6" d="M993.4,529.3c-13.2,12.4-127.2-11.3-165.9-20c-7.5-1.7-12.9-8.3-12.9-15.9v-44c0-9,7.3-16.3,16.4-16.3h105.4
			c5.9,0,11.3,3.1,14.2,8.1C963.7,463.7,998.4,524.7,993.4,529.3z"/>
		<path class="st3" d="M989.4,522.6c-12.9,12.2-123.7-11.1-161.4-19.5c-7.3-1.7-12.5-8.1-12.5-15.5v-43.1c0-8.8,7.1-16,16-16H934
			c5.7,0,11,3,13.8,8C960.4,458.3,994.2,518,989.4,522.6z"/>
		<path class="st10" d="M977,513.7c-11.3,10-109.1-9.1-142.3-16c-6.4-1.3-11-6.6-11-12.8v-35.2c0-7.2,6.3-13.1,14.1-13.1h90.5
			c5,0,9.6,2.4,12.2,6.5C951.5,461.2,981.3,509.9,977,513.7z"/>
		<g>
			<path class="st2" d="M987.3,522.3c-3,2.7-8.8,2.3-12.5,2.4c-7.9,0.2-15.8-0.4-23.7-1.2c-19.5-2-38.9-5.2-58.2-8.8
				c-17.7-3.2-35.5-6.9-53.2-10.6c-9.4-2-20.3-4-21.5-15.7c-0.4-4.9-0.1-10.1-0.1-15c0-7.5,0-15.1,0-22.6c0-7.5-0.3-16.9,8.4-20.2
				c3.1-1.2,7.4-0.7,10.6-0.7c5.8,0,11.6,0,17.4,0c16.3,0,32.7,0,49,0c9.6,0,19.4-0.5,29,0c10.8,0.5,14.7,11.3,19.4,19.5
				c5.5,9.9,11.1,19.7,16.4,29.7c4.9,9.1,9.6,18.3,13.9,27.7c1.1,2.4,7.1,13.2,4.8,16c-1.3,1.5,3.9,1,4.9-0.1
				c2.5-2.9-1.2-10-2.3-12.8c-3.7-9-8.1-17.6-12.5-26.3c-5.1-9.9-10.5-19.6-16-29.4c-2.2-4-4.5-8-6.8-12c-2.2-3.9-4.2-8.4-7.9-11.3
				c-7.9-6.1-22.5-3.8-31.8-3.8c-17.6,0-35.1,0-52.8,0c-10.2,0-20.6-0.8-30.8,0.1c-9.8,0.8-17.7,7.9-18.2,17.9
				c-0.2,5.5,0,11.1,0,16.6c0,7.9,0,15.9,0,23.7c0,8.2,3.2,15.5,11.5,18.3c7.3,2.4,15.5,3.4,23.2,5.1c10.1,2.1,20.1,4.1,30.2,6.1
				c23.9,4.5,48.1,8.9,72.4,11.2c8.8,0.8,17.7,1.5,26.5,0.9c4.9-0.3,11.1-0.9,15-4.3C993.6,520.9,988.4,521.4,987.3,522.3z"/>
		</g>
		<g>
			<path class="st3" d="M386.1,621.8h-4.3c-5.2,0-9.4-4.2-9.4-9.4v-9.3c0-5.2,4.2-9.4,9.4-9.4h4.3c5.2,0,9.4,4.2,9.4,9.4v9.2
				C395.5,617.6,391.3,621.8,386.1,621.8z"/>
			<g>
				<path class="st2" d="M387.1,620.1c-2.4,0-5.3,0.3-7.5-0.8c-3.4-1.7-4.4-5.1-4.5-8.5c-0.1-5-1.2-12.2,4.1-14.6
					c16.4-7.5,18.1,23.1,7.2,23.9c-2.8,0.2-4.3,3.7-0.7,3.3c5.1-0.4,10-3,11.8-8c1.2-3.2,0.7-7.2,0.7-10.5c0-9.9-6.6-13.4-15.7-12.9
					c-4.7,0.2-9.3,2.3-11.5,6.7c-1.8,3.4-1.2,7.8-1.2,11.4c0,10.2,6,13.4,15.4,13.4C387.4,623.5,390.7,620.1,387.1,620.1z"/>
			</g>
		</g>
		<g>
			<path class="st3" d="M1005.8,628.7h-4.3c-5.2,0-9.4-4.2-9.4-9.4v-16.2c0-5.2,4.2-9.4,9.4-9.4h4.3c5.2,0,9.4,4.2,9.4,9.4v16.3
				C1015.2,624.5,1011,628.7,1005.8,628.7z"/>
			<g>
				<path class="st2" d="M1006.8,627c-3.9,0-7.9,0.2-10.4-3.3c-1.9-2.5-1.5-5.7-1.5-8.7c0-5.7-1.9-16.2,4.1-19
					c4.2-2,10.3-0.8,12.5,3.5c1.3,2.5,1,5.3,1,8.1c0,5.9,2.2,18.6-6.4,19.3c-2.8,0.2-4.3,3.7-0.7,3.3c5.7-0.4,11.3-3.9,12.3-9.9
					c0.7-4.1,0.1-8.8,0.1-12.9c0-4.4,0.4-8.9-3-12.4c-3.3-3.4-8.2-3.5-12.8-3.3c-5.3,0.2-10.6,3.1-12.3,8.4c-1.2,4-0.4,9.2-0.4,13.3
					s-0.5,8.8,2,12.3c3.3,4.4,8.3,4.4,13.4,4.4C1007,630.4,1010.5,627,1006.8,627z"/>
			</g>
		</g>
		<g>
			<path class="st2" d="M825.9,534.1c7.2,0,14.3,0,21.5,0c3,0,4.1-3.8,0.5-3.8c-7.2,0-14.3,0-21.5,0
				C823.4,530.2,822.2,534.1,825.9,534.1L825.9,534.1z"/>
		</g>
		<g>
			<path class="st11" d="M397.3,302.4l377.7,0.1c9.8,0,17.6,7.9,17.6,17.6v233.4c0,9.8-7.9,17.6-17.6,17.6l-377.7-0.1
				c-9.8,0-17.6-7.9-17.6-17.6V320.1C379.6,310.3,387.5,302.4,397.3,302.4z"/>
			<path class="st12" d="M424.3,315.4l324,0.1c14.8,0,26.8,12,26.8,26.8v187.9c0,14.8-12,26.8-26.8,26.8l-324-0.1
				c-14.9,0-26.8-12-26.8-26.8V342.2C397.5,327.5,409.6,315.4,424.3,315.4z"/>
			<g>
				<path class="st2" d="M626.3,304.1c46.6,0,93.2,0,139.8,0c7.3,0,17.4-1.8,22,5.5c2.8,4.4,1.8,11.1,1.8,16.1c0,22.8,0,45.7,0,68.5
					c0,52.1,0,104.2,0,156.4c0,7.5,1,17.7-9.4,18.8c-2.4,0.2-5,0-7.4,0c-16.8,0-33.7,0-50.5,0c-58.2,0-116.3,0-174.5,0
					c-47.2,0-94.3,0-141.5,0c-4,0-8,0.1-12,0c-8.3-0.2-12.3-6.5-12.2-14.1c0-18.3,0-36.7,0-55c0-55.5,0-111.1,0-166.7
					c0-5.8-0.1-11.5,0-17.3c0.1-6,2.9-11.6,9.4-12.3c1.5-0.1,3.2,0,4.8,0c25,0,50.1,0,75.1,0c43,0,86.1,0,129.1,0
					C609.3,304.1,617.8,304.1,626.3,304.1c2.2,0,5.7-3.3,2-3.3c-38.9,0-77.9,0-116.8,0c-30.1,0-60.3,0-90.6,0c-8.5,0-17.2,0-25.7,0
					c-9.6,0-18.1,5.3-18.4,15.7c-0.5,16.6,0,33.5,0,50.1c0,30.6,0,61.2,0,91.9c0,26.7,0,53.4,0,80.1c0,6.1-0.1,12.2,0,18.4
					c0.1,9.1,6,15.5,15.3,15.7c36.6,1,73.4,0,110.1,0c61.7,0,123.5,0,185.2,0c22.6,0,45.3,0,68,0c6.1,0,12.1,0,18.2,0
					c5.5,0,10.9,0,15.6-3.7c6.1-4.8,5.9-11.1,5.9-18c0-8.8,0-17.6,0-26.4c0-28.9,0-57.9,0-86.7c0-29.3,0-58.4,0-87.7
					c0-9.2,0-18.4,0-27.6c0-5.6,0.8-11.9-3.1-16.6c-5.4-6.8-14.5-5.5-22.2-5.5c-12.3,0-24.6,0-36.9,0c-29.5,0-58.9,0-88.3,0
					c-5.4,0-11,0-16.4,0C626.2,300.8,622.7,304.1,626.3,304.1z"/>
			</g>
		</g>
		<g>
			<path class="st8" d="M550,648.3c-2.3,0-4.2-1.9-4.2-4.2c0-38-31-69.1-69.2-69.1s-69.2,30.9-69.2,69.1c0,2.3-1.9,4.2-4.2,4.2
				s-4.2-1.9-4.2-4.2c0-42.7,34.8-77.4,77.5-77.4s77.5,34.7,77.5,77.4C554.2,646.4,552.3,648.3,550,648.3z"/>
			<g>
				<path class="st2" d="M551.8,647.1c-4.4-0.7-3.2-7.4-3.5-10.6c-0.4-4-1.1-8-2.2-11.9c-2.1-7.3-5.4-14.3-9.8-20.5
					c-8.2-11.9-20-20.8-33.5-25.8c-27-10-59.1-2.1-78.8,18.8c-10.1,10.8-16.6,24.5-18.4,39c-0.2,1.5-0.3,11-2,10.4
					c-3.2-1-1.1-11.5-0.8-13.6c1.1-7.7,3.3-15.1,6.5-22.1c14.5-30.8,48.5-48.7,82-41.2c17.1,3.8,32.6,13.5,43.6,27.2
					c5.4,6.8,9.6,14.5,12.5,22.7c1,2.8,7.4,26.9,3.2,27.6c-2.2,0.3-4.7,2.8-0.9,2.2c7.9-1.3,7.7-6.8,7-13.6
					c-0.9-8.7-3.2-17.2-6.9-25c-7-14.8-18.6-27.3-32.9-35.2c-28.2-15.5-64.4-12.1-89.7,7.7c-12.8,10-22.3,23.6-27,39
					c-1.2,3.9-2,7.8-2.5,11.8c-0.4,3.4-1.8,9-0.5,12.3c1.8,4.9,9.8,3.8,12.4,0.2c1.8-2.4,1.1-6.4,1.3-9.2c0.4-4.9,1.4-9.8,3-14.5
					c2.7-8.3,6.9-16.1,12.4-22.7c12.2-14.7,30.3-23.7,49.4-23.7c20.1,0,39.4,9.4,52.2,24.8c6.2,7.4,10.8,16.3,13.3,25.6
					c1.3,4.9,2.1,9.9,2.3,15c0.2,4.3,0.5,7,5.2,7.8C549.6,649.6,554.4,647.5,551.8,647.1z"/>
			</g>
		</g>
	</g>
</g>
<g>
	<g>
		<g>
			<path id="SVGID_1_" class="st13" d="M552.4,425.7c1.7-1,2.9-1.6,5-2.5c3.1-1.4,1.3-5.3-1.6-4.2c-2.1,0.8-5.1,2.2-7.2,3.5
				c-4.8-5.5-2-11.3,2.5-14.2c4.8-2.9,11.7-5.1,19.8-6.3c3.3-0.5,4.5,3.8,0.5,4.3c-5,0.8-10.2,2.5-13.2,3.7c-2.8,1-1.5,4.7,1.8,3.5
				c3.5-1.2,7.2-2,11.5-2.8l0,0c1.4-0.2,2.7,0.5,3,1.7c0.3,1.2-0.7,2.3-2.1,2.5c-2,0.3-4,0.6-5.8,1c-1.5,0.3-2.3,1.5-2,2.7
				c0.3,1.2,1.8,1.9,3.3,1.6c1.1-0.2,2.2-0.4,3.3-0.6c0.1,0,0.2,0,0.3-0.1c1.5-0.2,2.9,0.6,3.1,1.8c0.3,1.2-0.7,2.3-2.2,2.5l0,0
				c-5.9,0.9-11.3,2.2-15.7,4C554.9,427.1,553.5,426.4,552.4,425.7"/>
		</g>
		<g>
			<g>
				<g>
					<defs>
						<path id="SVGID_2_" d="M552.4,425.7c1.7-1,2.9-1.6,5-2.5c3.1-1.4,1.3-5.3-1.6-4.2c-2.1,0.8-5.1,2.2-7.2,3.5
							c-4.8-5.5-2-11.3,2.5-14.2c4.8-2.9,11.7-5.1,19.8-6.3c3.3-0.5,4.5,3.8,0.5,4.3c-5,0.8-10.2,2.5-13.2,3.7
							c-2.8,1-1.5,4.7,1.8,3.5c3.5-1.2,7.2-2,11.5-2.8l0,0c1.4-0.2,2.7,0.5,3,1.7c0.3,1.2-0.7,2.3-2.1,2.5c-2,0.3-4,0.6-5.8,1
							c-1.5,0.3-2.3,1.5-2,2.7c0.3,1.2,1.8,1.9,3.3,1.6c1.1-0.2,2.2-0.4,3.3-0.6c0.1,0,0.2,0,0.3-0.1c1.5-0.2,2.9,0.6,3.1,1.8
							c0.3,1.2-0.7,2.3-2.2,2.5l0,0c-5.9,0.9-11.3,2.2-15.7,4C554.9,427.1,553.5,426.4,552.4,425.7"/>
					</defs>
					<clipPath id="SVGID_4_">
						<use xlink:href="#SVGID_2_"  style="overflow:visible;"/>
					</clipPath>
					<rect x="543.7" y="401.4" class="st14" width="31.4" height="26.4"/>
				</g>
			</g>
		</g>
	</g>
	<g>
		<g>
			<path id="SVGID_3_" class="st13" d="M578.2,401c-1.2,0.2-2,1.3-1.8,2.5c0.2,1.2,1.4,2,2.6,1.8c1.2-0.2,2-1.3,1.8-2.5
				C580.6,401.5,579.5,400.8,578.2,401"/>
		</g>
		<g>
			<g>
				<g>
					<defs>
						<path id="SVGID_6_" d="M578.2,401c-1.2,0.2-2,1.3-1.8,2.5c0.2,1.2,1.4,2,2.6,1.8c1.2-0.2,2-1.3,1.8-2.5
							C580.6,401.5,579.5,400.8,578.2,401"/>
					</defs>
					<clipPath id="SVGID_9_">
						<use xlink:href="#SVGID_6_"  style="overflow:visible;"/>
					</clipPath>
					<rect x="576.3" y="400.8" class="st15" width="4.8" height="4.7"/>
				</g>
			</g>
		</g>
	</g>
	<g>
		<g>
			<path id="SVGID_5_" class="st16" d="M593.5,418.7c1.2,0.2,2,1.3,1.8,2.5c-0.2,1.2-1.4,2-2.6,1.8s-2-1.3-1.8-2.5
				C591.2,419.3,592.3,418.6,593.5,418.7"/>
		</g>
		<g>
			<g>
				<g>
					<defs>
						<path id="SVGID_10_" d="M593.5,418.7c1.2,0.2,2,1.3,1.8,2.5c-0.2,1.2-1.4,2-2.6,1.8s-2-1.3-1.8-2.5
							C591.2,419.3,592.3,418.6,593.5,418.7"/>
					</defs>
					<clipPath id="SVGID_11_">
						<use xlink:href="#SVGID_10_"  style="overflow:visible;"/>
					</clipPath>
					<rect x="590.7" y="418.6" class="st17" width="4.8" height="4.7"/>
				</g>
			</g>
		</g>
	</g>
	<g>
		<g>
			<path id="SVGID_7_" class="st16" d="M621,425.7c-1.7-1-2.9-1.6-5-2.5c-3.1-1.4-1.3-5.3,1.6-4.2c2.1,0.8,5.1,2.2,7.2,3.5
				c4.8-5.5,2.1-11.4-2.5-14.2c-4.8-2.9-11.7-5.1-19.8-6.3c-3.3-0.5-4.5,3.8-0.5,4.3c5,0.8,10.2,2.5,13.2,3.7c2.8,1,1.5,4.7-1.8,3.5
				c-3.5-1.2-7.2-2-11.5-2.8l0,0c-1.4-0.2-2.7,0.5-3,1.7c-0.3,1.2,0.7,2.3,2.1,2.5c2,0.3,4,0.6,5.8,1c1.5,0.3,2.3,1.5,2,2.7
				c-0.3,1.2-1.8,1.9-3.3,1.6c-1.1-0.2-2.2-0.4-3.3-0.6c-0.1,0-0.2,0-0.3-0.1c-1.5-0.2-2.9,0.6-3.1,1.8c-0.3,1.2,0.7,2.3,2.2,2.5
				l0,0c5.9,0.9,11.3,2.2,15.7,4C618.4,427.1,619.9,426.4,621,425.7"/>
		</g>
		<g>
			<g>
				<g>
					<defs>
						<path id="SVGID_12_" d="M621,425.7c-1.7-1-2.9-1.6-5-2.5c-3.1-1.4-1.3-5.3,1.6-4.2c2.1,0.8,5.1,2.2,7.2,3.5
							c4.8-5.5,2.1-11.4-2.5-14.2c-4.8-2.9-11.7-5.1-19.8-6.3c-3.3-0.5-4.5,3.8-0.5,4.3c5,0.8,10.2,2.5,13.2,3.7
							c2.8,1,1.5,4.7-1.8,3.5c-3.5-1.2-7.2-2-11.5-2.8l0,0c-1.4-0.2-2.7,0.5-3,1.7c-0.3,1.2,0.7,2.3,2.1,2.5c2,0.3,4,0.6,5.8,1
							c1.5,0.3,2.3,1.5,2,2.7c-0.3,1.2-1.8,1.9-3.3,1.6c-1.1-0.2-2.2-0.4-3.3-0.6c-0.1,0-0.2,0-0.3-0.1c-1.5-0.2-2.9,0.6-3.1,1.8
							c-0.3,1.2,0.7,2.3,2.2,2.5l0,0c5.9,0.9,11.3,2.2,15.7,4C618.4,427.1,619.9,426.4,621,425.7"/>
					</defs>
					<clipPath id="SVGID_13_">
						<use xlink:href="#SVGID_12_"  style="overflow:visible;"/>
					</clipPath>
					<rect x="598.2" y="401.4" class="st18" width="31.4" height="26.4"/>
				</g>
			</g>
		</g>
	</g>
	<path class="st19" d="M625.3,426.7l-22.9,13.8c-10.1,6.1-14.2,13.5-15.8,22.4c-1.6-8.9-5.7-16.3-15.8-22.4l-22.9-13.9
		c-2.6-1.6-5.5-4.8-5.8-8.5v15.6c1.9,6.4,6.5,13.8,16.8,20.7l27.6,18.4l27.6-18.4c10.2-6.8,14.9-14.3,16.8-20.7v-15.6
		C630.8,421.9,628,425.1,625.3,426.7z"/>
</g>
</svg>
